<mxfile host="Electron" agent="Mozilla/5.0 (X11; Linux x86_64) AppleWebKit/537.36 (KHTML, like Gecko) draw.io/28.1.2 Chrome/138.0.7204.251 Electron/37.5.1 Safari/537.36" version="28.1.2">
  <diagram name="top_Nexys_A7_100T" id="f4R5nthmzPWrMM-4h1sa">
    <mxGraphModel dx="3080" dy="834" grid="1" gridSize="10" guides="1" tooltips="1" connect="1" arrows="1" fold="1" page="1" pageScale="1" pageWidth="827" pageHeight="1169" math="0" shadow="0">
      <root>
        <mxCell id="0" />
        <mxCell id="1" parent="0" />
        <mxCell id="wawASpPagILhCwxSG9ba-1" value="vga" style="shape=table;startSize=30;container=1;collapsible=0;childLayout=tableLayout;" parent="1" vertex="1">
          <mxGeometry x="1930" y="90" width="170" height="310" as="geometry" />
        </mxCell>
        <mxCell id="wawASpPagILhCwxSG9ba-2" value="" style="shape=tableRow;horizontal=0;startSize=0;swimlaneHead=0;swimlaneBody=0;strokeColor=inherit;top=0;left=0;bottom=0;right=0;collapsible=0;dropTarget=0;fillColor=none;points=[[0,0.5],[1,0.5]];portConstraint=eastwest;" parent="wawASpPagILhCwxSG9ba-1" vertex="1">
          <mxGeometry y="30" width="170" height="40" as="geometry" />
        </mxCell>
        <mxCell id="wawASpPagILhCwxSG9ba-3" value="clk" style="shape=partialRectangle;html=1;whiteSpace=wrap;connectable=0;strokeColor=inherit;overflow=hidden;fillColor=none;top=0;left=0;bottom=0;right=0;pointerEvents=1;" parent="wawASpPagILhCwxSG9ba-2" vertex="1">
          <mxGeometry width="60" height="40" as="geometry">
            <mxRectangle width="60" height="40" as="alternateBounds" />
          </mxGeometry>
        </mxCell>
        <mxCell id="wawASpPagILhCwxSG9ba-4" value="[3:0] r" style="shape=partialRectangle;html=1;whiteSpace=wrap;connectable=0;strokeColor=inherit;overflow=hidden;fillColor=none;top=0;left=0;bottom=0;right=0;pointerEvents=1;" parent="wawASpPagILhCwxSG9ba-2" vertex="1">
          <mxGeometry x="60" width="110" height="40" as="geometry">
            <mxRectangle width="110" height="40" as="alternateBounds" />
          </mxGeometry>
        </mxCell>
        <mxCell id="wawASpPagILhCwxSG9ba-5" value="" style="shape=tableRow;horizontal=0;startSize=0;swimlaneHead=0;swimlaneBody=0;strokeColor=inherit;top=0;left=0;bottom=0;right=0;collapsible=0;dropTarget=0;fillColor=none;points=[[0,0.5],[1,0.5]];portConstraint=eastwest;" parent="wawASpPagILhCwxSG9ba-1" vertex="1">
          <mxGeometry y="70" width="170" height="40" as="geometry" />
        </mxCell>
        <mxCell id="wawASpPagILhCwxSG9ba-6" value="read_data" style="shape=partialRectangle;html=1;whiteSpace=wrap;connectable=0;strokeColor=inherit;overflow=hidden;fillColor=none;top=0;left=0;bottom=0;right=0;pointerEvents=1;" parent="wawASpPagILhCwxSG9ba-5" vertex="1">
          <mxGeometry width="60" height="40" as="geometry">
            <mxRectangle width="60" height="40" as="alternateBounds" />
          </mxGeometry>
        </mxCell>
        <mxCell id="wawASpPagILhCwxSG9ba-7" value="[3:0] g" style="shape=partialRectangle;html=1;whiteSpace=wrap;connectable=0;strokeColor=inherit;overflow=hidden;fillColor=none;top=0;left=0;bottom=0;right=0;pointerEvents=1;" parent="wawASpPagILhCwxSG9ba-5" vertex="1">
          <mxGeometry x="60" width="110" height="40" as="geometry">
            <mxRectangle width="110" height="40" as="alternateBounds" />
          </mxGeometry>
        </mxCell>
        <mxCell id="wawASpPagILhCwxSG9ba-8" value="" style="shape=tableRow;horizontal=0;startSize=0;swimlaneHead=0;swimlaneBody=0;strokeColor=inherit;top=0;left=0;bottom=0;right=0;collapsible=0;dropTarget=0;fillColor=none;points=[[0,0.5],[1,0.5]];portConstraint=eastwest;" parent="wawASpPagILhCwxSG9ba-1" vertex="1">
          <mxGeometry y="110" width="170" height="40" as="geometry" />
        </mxCell>
        <mxCell id="wawASpPagILhCwxSG9ba-9" value="" style="shape=partialRectangle;html=1;whiteSpace=wrap;connectable=0;strokeColor=inherit;overflow=hidden;fillColor=none;top=0;left=0;bottom=0;right=0;pointerEvents=1;" parent="wawASpPagILhCwxSG9ba-8" vertex="1">
          <mxGeometry width="60" height="40" as="geometry">
            <mxRectangle width="60" height="40" as="alternateBounds" />
          </mxGeometry>
        </mxCell>
        <mxCell id="wawASpPagILhCwxSG9ba-10" value="[3:0] b" style="shape=partialRectangle;html=1;whiteSpace=wrap;connectable=0;strokeColor=inherit;overflow=hidden;fillColor=none;top=0;left=0;bottom=0;right=0;pointerEvents=1;" parent="wawASpPagILhCwxSG9ba-8" vertex="1">
          <mxGeometry x="60" width="110" height="40" as="geometry">
            <mxRectangle width="110" height="40" as="alternateBounds" />
          </mxGeometry>
        </mxCell>
        <mxCell id="wawASpPagILhCwxSG9ba-21" style="shape=tableRow;horizontal=0;startSize=0;swimlaneHead=0;swimlaneBody=0;strokeColor=inherit;top=0;left=0;bottom=0;right=0;collapsible=0;dropTarget=0;fillColor=none;points=[[0,0.5],[1,0.5]];portConstraint=eastwest;" parent="wawASpPagILhCwxSG9ba-1" vertex="1">
          <mxGeometry y="150" width="170" height="40" as="geometry" />
        </mxCell>
        <mxCell id="wawASpPagILhCwxSG9ba-22" style="shape=partialRectangle;html=1;whiteSpace=wrap;connectable=0;strokeColor=inherit;overflow=hidden;fillColor=none;top=0;left=0;bottom=0;right=0;pointerEvents=1;" parent="wawASpPagILhCwxSG9ba-21" vertex="1">
          <mxGeometry width="60" height="40" as="geometry">
            <mxRectangle width="60" height="40" as="alternateBounds" />
          </mxGeometry>
        </mxCell>
        <mxCell id="wawASpPagILhCwxSG9ba-23" value="hs" style="shape=partialRectangle;html=1;whiteSpace=wrap;connectable=0;strokeColor=inherit;overflow=hidden;fillColor=none;top=0;left=0;bottom=0;right=0;pointerEvents=1;" parent="wawASpPagILhCwxSG9ba-21" vertex="1">
          <mxGeometry x="60" width="110" height="40" as="geometry">
            <mxRectangle width="110" height="40" as="alternateBounds" />
          </mxGeometry>
        </mxCell>
        <mxCell id="wawASpPagILhCwxSG9ba-18" style="shape=tableRow;horizontal=0;startSize=0;swimlaneHead=0;swimlaneBody=0;strokeColor=inherit;top=0;left=0;bottom=0;right=0;collapsible=0;dropTarget=0;fillColor=none;points=[[0,0.5],[1,0.5]];portConstraint=eastwest;" parent="wawASpPagILhCwxSG9ba-1" vertex="1">
          <mxGeometry y="190" width="170" height="40" as="geometry" />
        </mxCell>
        <mxCell id="wawASpPagILhCwxSG9ba-19" style="shape=partialRectangle;html=1;whiteSpace=wrap;connectable=0;strokeColor=inherit;overflow=hidden;fillColor=none;top=0;left=0;bottom=0;right=0;pointerEvents=1;" parent="wawASpPagILhCwxSG9ba-18" vertex="1">
          <mxGeometry width="60" height="40" as="geometry">
            <mxRectangle width="60" height="40" as="alternateBounds" />
          </mxGeometry>
        </mxCell>
        <mxCell id="wawASpPagILhCwxSG9ba-20" value="vs" style="shape=partialRectangle;html=1;whiteSpace=wrap;connectable=0;strokeColor=inherit;overflow=hidden;fillColor=none;top=0;left=0;bottom=0;right=0;pointerEvents=1;" parent="wawASpPagILhCwxSG9ba-18" vertex="1">
          <mxGeometry x="60" width="110" height="40" as="geometry">
            <mxRectangle width="110" height="40" as="alternateBounds" />
          </mxGeometry>
        </mxCell>
        <mxCell id="wawASpPagILhCwxSG9ba-130" style="shape=tableRow;horizontal=0;startSize=0;swimlaneHead=0;swimlaneBody=0;strokeColor=inherit;top=0;left=0;bottom=0;right=0;collapsible=0;dropTarget=0;fillColor=none;points=[[0,0.5],[1,0.5]];portConstraint=eastwest;" parent="wawASpPagILhCwxSG9ba-1" vertex="1">
          <mxGeometry y="230" width="170" height="40" as="geometry" />
        </mxCell>
        <mxCell id="wawASpPagILhCwxSG9ba-131" style="shape=partialRectangle;html=1;whiteSpace=wrap;connectable=0;strokeColor=inherit;overflow=hidden;fillColor=none;top=0;left=0;bottom=0;right=0;pointerEvents=1;" parent="wawASpPagILhCwxSG9ba-130" vertex="1">
          <mxGeometry width="60" height="40" as="geometry">
            <mxRectangle width="60" height="40" as="alternateBounds" />
          </mxGeometry>
        </mxCell>
        <mxCell id="wawASpPagILhCwxSG9ba-132" value="[18:0] read_addr" style="shape=partialRectangle;html=1;whiteSpace=wrap;connectable=0;strokeColor=inherit;overflow=hidden;fillColor=none;top=0;left=0;bottom=0;right=0;pointerEvents=1;" parent="wawASpPagILhCwxSG9ba-130" vertex="1">
          <mxGeometry x="60" width="110" height="40" as="geometry">
            <mxRectangle width="110" height="40" as="alternateBounds" />
          </mxGeometry>
        </mxCell>
        <mxCell id="wawASpPagILhCwxSG9ba-133" style="shape=tableRow;horizontal=0;startSize=0;swimlaneHead=0;swimlaneBody=0;strokeColor=inherit;top=0;left=0;bottom=0;right=0;collapsible=0;dropTarget=0;fillColor=none;points=[[0,0.5],[1,0.5]];portConstraint=eastwest;" parent="wawASpPagILhCwxSG9ba-1" vertex="1">
          <mxGeometry y="270" width="170" height="40" as="geometry" />
        </mxCell>
        <mxCell id="wawASpPagILhCwxSG9ba-134" style="shape=partialRectangle;html=1;whiteSpace=wrap;connectable=0;strokeColor=inherit;overflow=hidden;fillColor=none;top=0;left=0;bottom=0;right=0;pointerEvents=1;" parent="wawASpPagILhCwxSG9ba-133" vertex="1">
          <mxGeometry width="60" height="40" as="geometry">
            <mxRectangle width="60" height="40" as="alternateBounds" />
          </mxGeometry>
        </mxCell>
        <mxCell id="wawASpPagILhCwxSG9ba-135" value="swap" style="shape=partialRectangle;html=1;whiteSpace=wrap;connectable=0;strokeColor=inherit;overflow=hidden;fillColor=none;top=0;left=0;bottom=0;right=0;pointerEvents=1;" parent="wawASpPagILhCwxSG9ba-133" vertex="1">
          <mxGeometry x="60" width="110" height="40" as="geometry">
            <mxRectangle width="110" height="40" as="alternateBounds" />
          </mxGeometry>
        </mxCell>
        <mxCell id="wawASpPagILhCwxSG9ba-11" value="top inputs" style="shape=table;startSize=30;container=1;collapsible=0;childLayout=tableLayout;" parent="1" vertex="1">
          <mxGeometry x="-1020" y="370" width="90" height="150" as="geometry" />
        </mxCell>
        <mxCell id="wawASpPagILhCwxSG9ba-12" value="" style="shape=tableRow;horizontal=0;startSize=0;swimlaneHead=0;swimlaneBody=0;strokeColor=inherit;top=0;left=0;bottom=0;right=0;collapsible=0;dropTarget=0;fillColor=none;points=[[0,0.5],[1,0.5]];portConstraint=eastwest;" parent="wawASpPagILhCwxSG9ba-11" vertex="1">
          <mxGeometry y="30" width="90" height="40" as="geometry" />
        </mxCell>
        <mxCell id="wawASpPagILhCwxSG9ba-13" value="clk_100M" style="shape=partialRectangle;html=1;whiteSpace=wrap;connectable=0;strokeColor=inherit;overflow=hidden;fillColor=none;top=0;left=0;bottom=0;right=0;pointerEvents=1;" parent="wawASpPagILhCwxSG9ba-12" vertex="1">
          <mxGeometry width="90" height="40" as="geometry">
            <mxRectangle width="90" height="40" as="alternateBounds" />
          </mxGeometry>
        </mxCell>
        <mxCell id="wawASpPagILhCwxSG9ba-14" value="" style="shape=tableRow;horizontal=0;startSize=0;swimlaneHead=0;swimlaneBody=0;strokeColor=inherit;top=0;left=0;bottom=0;right=0;collapsible=0;dropTarget=0;fillColor=none;points=[[0,0.5],[1,0.5]];portConstraint=eastwest;" parent="wawASpPagILhCwxSG9ba-11" vertex="1">
          <mxGeometry y="70" width="90" height="40" as="geometry" />
        </mxCell>
        <mxCell id="wawASpPagILhCwxSG9ba-15" value="ps2_clk" style="shape=partialRectangle;html=1;whiteSpace=wrap;connectable=0;strokeColor=inherit;overflow=hidden;fillColor=none;top=0;left=0;bottom=0;right=0;pointerEvents=1;" parent="wawASpPagILhCwxSG9ba-14" vertex="1">
          <mxGeometry width="90" height="40" as="geometry">
            <mxRectangle width="90" height="40" as="alternateBounds" />
          </mxGeometry>
        </mxCell>
        <mxCell id="wawASpPagILhCwxSG9ba-16" value="" style="shape=tableRow;horizontal=0;startSize=0;swimlaneHead=0;swimlaneBody=0;strokeColor=inherit;top=0;left=0;bottom=0;right=0;collapsible=0;dropTarget=0;fillColor=none;points=[[0,0.5],[1,0.5]];portConstraint=eastwest;" parent="wawASpPagILhCwxSG9ba-11" vertex="1">
          <mxGeometry y="110" width="90" height="40" as="geometry" />
        </mxCell>
        <mxCell id="wawASpPagILhCwxSG9ba-17" value="ps2_dat" style="shape=partialRectangle;html=1;whiteSpace=wrap;connectable=0;strokeColor=inherit;overflow=hidden;fillColor=none;top=0;left=0;bottom=0;right=0;pointerEvents=1;" parent="wawASpPagILhCwxSG9ba-16" vertex="1">
          <mxGeometry width="90" height="40" as="geometry">
            <mxRectangle width="90" height="40" as="alternateBounds" />
          </mxGeometry>
        </mxCell>
        <mxCell id="wawASpPagILhCwxSG9ba-24" value="top outputs" style="shape=table;startSize=30;container=1;collapsible=0;childLayout=tableLayout;" parent="1" vertex="1">
          <mxGeometry x="2280" y="90" width="90" height="230" as="geometry" />
        </mxCell>
        <mxCell id="wawASpPagILhCwxSG9ba-25" value="" style="shape=tableRow;horizontal=0;startSize=0;swimlaneHead=0;swimlaneBody=0;strokeColor=inherit;top=0;left=0;bottom=0;right=0;collapsible=0;dropTarget=0;fillColor=none;points=[[0,0.5],[1,0.5]];portConstraint=eastwest;" parent="wawASpPagILhCwxSG9ba-24" vertex="1">
          <mxGeometry y="30" width="90" height="40" as="geometry" />
        </mxCell>
        <mxCell id="wawASpPagILhCwxSG9ba-26" value="[3:0] vga_r" style="shape=partialRectangle;html=1;whiteSpace=wrap;connectable=0;strokeColor=inherit;overflow=hidden;fillColor=none;top=0;left=0;bottom=0;right=0;pointerEvents=1;" parent="wawASpPagILhCwxSG9ba-25" vertex="1">
          <mxGeometry width="90" height="40" as="geometry">
            <mxRectangle width="90" height="40" as="alternateBounds" />
          </mxGeometry>
        </mxCell>
        <mxCell id="wawASpPagILhCwxSG9ba-27" value="" style="shape=tableRow;horizontal=0;startSize=0;swimlaneHead=0;swimlaneBody=0;strokeColor=inherit;top=0;left=0;bottom=0;right=0;collapsible=0;dropTarget=0;fillColor=none;points=[[0,0.5],[1,0.5]];portConstraint=eastwest;" parent="wawASpPagILhCwxSG9ba-24" vertex="1">
          <mxGeometry y="70" width="90" height="40" as="geometry" />
        </mxCell>
        <mxCell id="wawASpPagILhCwxSG9ba-28" value="[3:0] vga_g" style="shape=partialRectangle;html=1;whiteSpace=wrap;connectable=0;strokeColor=inherit;overflow=hidden;fillColor=none;top=0;left=0;bottom=0;right=0;pointerEvents=1;" parent="wawASpPagILhCwxSG9ba-27" vertex="1">
          <mxGeometry width="90" height="40" as="geometry">
            <mxRectangle width="90" height="40" as="alternateBounds" />
          </mxGeometry>
        </mxCell>
        <mxCell id="wawASpPagILhCwxSG9ba-36" style="shape=tableRow;horizontal=0;startSize=0;swimlaneHead=0;swimlaneBody=0;strokeColor=inherit;top=0;left=0;bottom=0;right=0;collapsible=0;dropTarget=0;fillColor=none;points=[[0,0.5],[1,0.5]];portConstraint=eastwest;" parent="wawASpPagILhCwxSG9ba-24" vertex="1">
          <mxGeometry y="110" width="90" height="40" as="geometry" />
        </mxCell>
        <mxCell id="wawASpPagILhCwxSG9ba-37" value="[3:0] vga_b" style="shape=partialRectangle;html=1;whiteSpace=wrap;connectable=0;strokeColor=inherit;overflow=hidden;fillColor=none;top=0;left=0;bottom=0;right=0;pointerEvents=1;" parent="wawASpPagILhCwxSG9ba-36" vertex="1">
          <mxGeometry width="90" height="40" as="geometry">
            <mxRectangle width="90" height="40" as="alternateBounds" />
          </mxGeometry>
        </mxCell>
        <mxCell id="wawASpPagILhCwxSG9ba-38" style="shape=tableRow;horizontal=0;startSize=0;swimlaneHead=0;swimlaneBody=0;strokeColor=inherit;top=0;left=0;bottom=0;right=0;collapsible=0;dropTarget=0;fillColor=none;points=[[0,0.5],[1,0.5]];portConstraint=eastwest;" parent="wawASpPagILhCwxSG9ba-24" vertex="1">
          <mxGeometry y="150" width="90" height="40" as="geometry" />
        </mxCell>
        <mxCell id="wawASpPagILhCwxSG9ba-39" value="vga_hs" style="shape=partialRectangle;html=1;whiteSpace=wrap;connectable=0;strokeColor=inherit;overflow=hidden;fillColor=none;top=0;left=0;bottom=0;right=0;pointerEvents=1;" parent="wawASpPagILhCwxSG9ba-38" vertex="1">
          <mxGeometry width="90" height="40" as="geometry">
            <mxRectangle width="90" height="40" as="alternateBounds" />
          </mxGeometry>
        </mxCell>
        <mxCell id="wawASpPagILhCwxSG9ba-40" style="shape=tableRow;horizontal=0;startSize=0;swimlaneHead=0;swimlaneBody=0;strokeColor=inherit;top=0;left=0;bottom=0;right=0;collapsible=0;dropTarget=0;fillColor=none;points=[[0,0.5],[1,0.5]];portConstraint=eastwest;" parent="wawASpPagILhCwxSG9ba-24" vertex="1">
          <mxGeometry y="190" width="90" height="40" as="geometry" />
        </mxCell>
        <mxCell id="wawASpPagILhCwxSG9ba-41" value="vga_vs" style="shape=partialRectangle;html=1;whiteSpace=wrap;connectable=0;strokeColor=inherit;overflow=hidden;fillColor=none;top=0;left=0;bottom=0;right=0;pointerEvents=1;" parent="wawASpPagILhCwxSG9ba-40" vertex="1">
          <mxGeometry width="90" height="40" as="geometry">
            <mxRectangle width="90" height="40" as="alternateBounds" />
          </mxGeometry>
        </mxCell>
        <mxCell id="wawASpPagILhCwxSG9ba-50" value="MMCM&#xa;vga_mmcm" style="shape=table;startSize=30;container=1;collapsible=0;childLayout=tableLayout;" parent="1" vertex="1">
          <mxGeometry x="-840" y="370" width="170" height="70" as="geometry" />
        </mxCell>
        <mxCell id="wawASpPagILhCwxSG9ba-51" value="" style="shape=tableRow;horizontal=0;startSize=0;swimlaneHead=0;swimlaneBody=0;strokeColor=inherit;top=0;left=0;bottom=0;right=0;collapsible=0;dropTarget=0;fillColor=none;points=[[0,0.5],[1,0.5]];portConstraint=eastwest;" parent="wawASpPagILhCwxSG9ba-50" vertex="1">
          <mxGeometry y="30" width="170" height="40" as="geometry" />
        </mxCell>
        <mxCell id="wawASpPagILhCwxSG9ba-52" value="clk_100M" style="shape=partialRectangle;html=1;whiteSpace=wrap;connectable=0;strokeColor=inherit;overflow=hidden;fillColor=none;top=0;left=0;bottom=0;right=0;pointerEvents=1;" parent="wawASpPagILhCwxSG9ba-51" vertex="1">
          <mxGeometry width="85" height="40" as="geometry">
            <mxRectangle width="85" height="40" as="alternateBounds" />
          </mxGeometry>
        </mxCell>
        <mxCell id="wawASpPagILhCwxSG9ba-53" value="clk_25M175" style="shape=partialRectangle;html=1;whiteSpace=wrap;connectable=0;strokeColor=inherit;overflow=hidden;fillColor=none;top=0;left=0;bottom=0;right=0;pointerEvents=1;" parent="wawASpPagILhCwxSG9ba-51" vertex="1">
          <mxGeometry x="85" width="85" height="40" as="geometry">
            <mxRectangle width="85" height="40" as="alternateBounds" />
          </mxGeometry>
        </mxCell>
        <mxCell id="wawASpPagILhCwxSG9ba-60" value="ps2" style="shape=table;startSize=30;container=1;collapsible=0;childLayout=tableLayout;" parent="1" vertex="1">
          <mxGeometry x="-390" y="370" width="160" height="190" as="geometry" />
        </mxCell>
        <mxCell id="wawASpPagILhCwxSG9ba-61" value="" style="shape=tableRow;horizontal=0;startSize=0;swimlaneHead=0;swimlaneBody=0;strokeColor=inherit;top=0;left=0;bottom=0;right=0;collapsible=0;dropTarget=0;fillColor=none;points=[[0,0.5],[1,0.5]];portConstraint=eastwest;" parent="wawASpPagILhCwxSG9ba-60" vertex="1">
          <mxGeometry y="30" width="160" height="40" as="geometry" />
        </mxCell>
        <mxCell id="wawASpPagILhCwxSG9ba-62" value="clk" style="shape=partialRectangle;html=1;whiteSpace=wrap;connectable=0;strokeColor=inherit;overflow=hidden;fillColor=none;top=0;left=0;bottom=0;right=0;pointerEvents=1;" parent="wawASpPagILhCwxSG9ba-61" vertex="1">
          <mxGeometry width="60" height="40" as="geometry">
            <mxRectangle width="60" height="40" as="alternateBounds" />
          </mxGeometry>
        </mxCell>
        <mxCell id="wawASpPagILhCwxSG9ba-63" value="left" style="shape=partialRectangle;html=1;whiteSpace=wrap;connectable=0;strokeColor=inherit;overflow=hidden;fillColor=none;top=0;left=0;bottom=0;right=0;pointerEvents=1;" parent="wawASpPagILhCwxSG9ba-61" vertex="1">
          <mxGeometry x="60" width="100" height="40" as="geometry">
            <mxRectangle width="100" height="40" as="alternateBounds" />
          </mxGeometry>
        </mxCell>
        <mxCell id="wawASpPagILhCwxSG9ba-64" value="" style="shape=tableRow;horizontal=0;startSize=0;swimlaneHead=0;swimlaneBody=0;strokeColor=inherit;top=0;left=0;bottom=0;right=0;collapsible=0;dropTarget=0;fillColor=none;points=[[0,0.5],[1,0.5]];portConstraint=eastwest;" parent="wawASpPagILhCwxSG9ba-60" vertex="1">
          <mxGeometry y="70" width="160" height="40" as="geometry" />
        </mxCell>
        <mxCell id="wawASpPagILhCwxSG9ba-65" value="ps2_clk" style="shape=partialRectangle;html=1;whiteSpace=wrap;connectable=0;strokeColor=inherit;overflow=hidden;fillColor=none;top=0;left=0;bottom=0;right=0;pointerEvents=1;" parent="wawASpPagILhCwxSG9ba-64" vertex="1">
          <mxGeometry width="60" height="40" as="geometry">
            <mxRectangle width="60" height="40" as="alternateBounds" />
          </mxGeometry>
        </mxCell>
        <mxCell id="wawASpPagILhCwxSG9ba-66" value="right" style="shape=partialRectangle;html=1;whiteSpace=wrap;connectable=0;strokeColor=inherit;overflow=hidden;fillColor=none;top=0;left=0;bottom=0;right=0;pointerEvents=1;" parent="wawASpPagILhCwxSG9ba-64" vertex="1">
          <mxGeometry x="60" width="100" height="40" as="geometry">
            <mxRectangle width="100" height="40" as="alternateBounds" />
          </mxGeometry>
        </mxCell>
        <mxCell id="wawASpPagILhCwxSG9ba-67" value="" style="shape=tableRow;horizontal=0;startSize=0;swimlaneHead=0;swimlaneBody=0;strokeColor=inherit;top=0;left=0;bottom=0;right=0;collapsible=0;dropTarget=0;fillColor=none;points=[[0,0.5],[1,0.5]];portConstraint=eastwest;" parent="wawASpPagILhCwxSG9ba-60" vertex="1">
          <mxGeometry y="110" width="160" height="40" as="geometry" />
        </mxCell>
        <mxCell id="wawASpPagILhCwxSG9ba-68" value="ps2_dat" style="shape=partialRectangle;html=1;whiteSpace=wrap;connectable=0;strokeColor=inherit;overflow=hidden;fillColor=none;top=0;left=0;bottom=0;right=0;pointerEvents=1;" parent="wawASpPagILhCwxSG9ba-67" vertex="1">
          <mxGeometry width="60" height="40" as="geometry">
            <mxRectangle width="60" height="40" as="alternateBounds" />
          </mxGeometry>
        </mxCell>
        <mxCell id="wawASpPagILhCwxSG9ba-69" value="backspace" style="shape=partialRectangle;html=1;whiteSpace=wrap;connectable=0;strokeColor=inherit;overflow=hidden;fillColor=none;top=0;left=0;bottom=0;right=0;pointerEvents=1;" parent="wawASpPagILhCwxSG9ba-67" vertex="1">
          <mxGeometry x="60" width="100" height="40" as="geometry">
            <mxRectangle width="100" height="40" as="alternateBounds" />
          </mxGeometry>
        </mxCell>
        <mxCell id="wawASpPagILhCwxSG9ba-74" style="shape=tableRow;horizontal=0;startSize=0;swimlaneHead=0;swimlaneBody=0;strokeColor=inherit;top=0;left=0;bottom=0;right=0;collapsible=0;dropTarget=0;fillColor=none;points=[[0,0.5],[1,0.5]];portConstraint=eastwest;" parent="wawASpPagILhCwxSG9ba-60" vertex="1">
          <mxGeometry y="150" width="160" height="40" as="geometry" />
        </mxCell>
        <mxCell id="wawASpPagILhCwxSG9ba-75" style="shape=partialRectangle;html=1;whiteSpace=wrap;connectable=0;strokeColor=inherit;overflow=hidden;fillColor=none;top=0;left=0;bottom=0;right=0;pointerEvents=1;" parent="wawASpPagILhCwxSG9ba-74" vertex="1">
          <mxGeometry width="60" height="40" as="geometry">
            <mxRectangle width="60" height="40" as="alternateBounds" />
          </mxGeometry>
        </mxCell>
        <mxCell id="wawASpPagILhCwxSG9ba-76" value="[6:0] symbol" style="shape=partialRectangle;html=1;whiteSpace=wrap;connectable=0;strokeColor=inherit;overflow=hidden;fillColor=none;top=0;left=0;bottom=0;right=0;pointerEvents=1;" parent="wawASpPagILhCwxSG9ba-74" vertex="1">
          <mxGeometry x="60" width="100" height="40" as="geometry">
            <mxRectangle width="100" height="40" as="alternateBounds" />
          </mxGeometry>
        </mxCell>
        <mxCell id="wawASpPagILhCwxSG9ba-71" style="edgeStyle=orthogonalEdgeStyle;rounded=0;orthogonalLoop=1;jettySize=auto;html=1;exitX=1;exitY=0.5;exitDx=0;exitDy=0;entryX=0;entryY=0.5;entryDx=0;entryDy=0;jumpStyle=gap;" parent="1" source="wawASpPagILhCwxSG9ba-12" target="wawASpPagILhCwxSG9ba-51" edge="1">
          <mxGeometry relative="1" as="geometry" />
        </mxCell>
        <mxCell id="wawASpPagILhCwxSG9ba-72" style="edgeStyle=orthogonalEdgeStyle;rounded=0;orthogonalLoop=1;jettySize=auto;html=1;exitX=1;exitY=0.5;exitDx=0;exitDy=0;entryX=0;entryY=0.5;entryDx=0;entryDy=0;jumpStyle=gap;" parent="1" source="wawASpPagILhCwxSG9ba-14" target="wawASpPagILhCwxSG9ba-64" edge="1">
          <mxGeometry relative="1" as="geometry" />
        </mxCell>
        <mxCell id="wawASpPagILhCwxSG9ba-73" style="edgeStyle=orthogonalEdgeStyle;rounded=0;orthogonalLoop=1;jettySize=auto;html=1;exitX=1;exitY=0.5;exitDx=0;exitDy=0;entryX=0;entryY=0.5;entryDx=0;entryDy=0;jumpStyle=gap;" parent="1" source="wawASpPagILhCwxSG9ba-16" target="wawASpPagILhCwxSG9ba-67" edge="1">
          <mxGeometry relative="1" as="geometry" />
        </mxCell>
        <mxCell id="wawASpPagILhCwxSG9ba-77" style="edgeStyle=orthogonalEdgeStyle;rounded=0;orthogonalLoop=1;jettySize=auto;html=1;exitX=1;exitY=0.5;exitDx=0;exitDy=0;entryX=0;entryY=0.5;entryDx=0;entryDy=0;jumpStyle=gap;" parent="1" source="wawASpPagILhCwxSG9ba-2" target="wawASpPagILhCwxSG9ba-25" edge="1">
          <mxGeometry relative="1" as="geometry" />
        </mxCell>
        <mxCell id="wawASpPagILhCwxSG9ba-78" style="edgeStyle=orthogonalEdgeStyle;rounded=0;orthogonalLoop=1;jettySize=auto;html=1;exitX=1;exitY=0.5;exitDx=0;exitDy=0;entryX=0;entryY=0.5;entryDx=0;entryDy=0;jumpStyle=gap;" parent="1" source="wawASpPagILhCwxSG9ba-5" target="wawASpPagILhCwxSG9ba-27" edge="1">
          <mxGeometry relative="1" as="geometry" />
        </mxCell>
        <mxCell id="wawASpPagILhCwxSG9ba-79" style="edgeStyle=orthogonalEdgeStyle;rounded=0;orthogonalLoop=1;jettySize=auto;html=1;exitX=1;exitY=0.5;exitDx=0;exitDy=0;entryX=0;entryY=0.5;entryDx=0;entryDy=0;jumpStyle=gap;" parent="1" source="wawASpPagILhCwxSG9ba-8" target="wawASpPagILhCwxSG9ba-36" edge="1">
          <mxGeometry relative="1" as="geometry" />
        </mxCell>
        <mxCell id="wawASpPagILhCwxSG9ba-80" style="edgeStyle=orthogonalEdgeStyle;rounded=0;orthogonalLoop=1;jettySize=auto;html=1;exitX=1;exitY=0.5;exitDx=0;exitDy=0;entryX=0;entryY=0.5;entryDx=0;entryDy=0;jumpStyle=gap;" parent="1" source="wawASpPagILhCwxSG9ba-21" target="wawASpPagILhCwxSG9ba-38" edge="1">
          <mxGeometry relative="1" as="geometry" />
        </mxCell>
        <mxCell id="wawASpPagILhCwxSG9ba-81" style="edgeStyle=orthogonalEdgeStyle;rounded=0;orthogonalLoop=1;jettySize=auto;html=1;exitX=1;exitY=0.5;exitDx=0;exitDy=0;entryX=0;entryY=0.5;entryDx=0;entryDy=0;jumpStyle=gap;" parent="1" source="wawASpPagILhCwxSG9ba-18" target="wawASpPagILhCwxSG9ba-40" edge="1">
          <mxGeometry relative="1" as="geometry" />
        </mxCell>
        <mxCell id="wawASpPagILhCwxSG9ba-82" value="text_buffer" style="shape=table;startSize=30;container=1;collapsible=0;childLayout=tableLayout;" parent="1" vertex="1">
          <mxGeometry x="290" y="290" width="200" height="350" as="geometry" />
        </mxCell>
        <mxCell id="wawASpPagILhCwxSG9ba-83" value="" style="shape=tableRow;horizontal=0;startSize=0;swimlaneHead=0;swimlaneBody=0;strokeColor=inherit;top=0;left=0;bottom=0;right=0;collapsible=0;dropTarget=0;fillColor=none;points=[[0,0.5],[1,0.5]];portConstraint=eastwest;" parent="wawASpPagILhCwxSG9ba-82" vertex="1">
          <mxGeometry y="30" width="200" height="40" as="geometry" />
        </mxCell>
        <mxCell id="wawASpPagILhCwxSG9ba-84" value="clk" style="shape=partialRectangle;html=1;whiteSpace=wrap;connectable=0;strokeColor=inherit;overflow=hidden;fillColor=none;top=0;left=0;bottom=0;right=0;pointerEvents=1;" parent="wawASpPagILhCwxSG9ba-83" vertex="1">
          <mxGeometry width="96" height="40" as="geometry">
            <mxRectangle width="96" height="40" as="alternateBounds" />
          </mxGeometry>
        </mxCell>
        <mxCell id="wawASpPagILhCwxSG9ba-85" value="[6:0] iter_out" style="shape=partialRectangle;html=1;whiteSpace=wrap;connectable=0;strokeColor=inherit;overflow=hidden;fillColor=none;top=0;left=0;bottom=0;right=0;pointerEvents=1;" parent="wawASpPagILhCwxSG9ba-83" vertex="1">
          <mxGeometry x="96" width="104" height="40" as="geometry">
            <mxRectangle width="104" height="40" as="alternateBounds" />
          </mxGeometry>
        </mxCell>
        <mxCell id="wawASpPagILhCwxSG9ba-86" value="" style="shape=tableRow;horizontal=0;startSize=0;swimlaneHead=0;swimlaneBody=0;strokeColor=inherit;top=0;left=0;bottom=0;right=0;collapsible=0;dropTarget=0;fillColor=none;points=[[0,0.5],[1,0.5]];portConstraint=eastwest;" parent="wawASpPagILhCwxSG9ba-82" vertex="1">
          <mxGeometry y="70" width="200" height="40" as="geometry" />
        </mxCell>
        <mxCell id="wawASpPagILhCwxSG9ba-87" value="left" style="shape=partialRectangle;html=1;whiteSpace=wrap;connectable=0;strokeColor=inherit;overflow=hidden;fillColor=none;top=0;left=0;bottom=0;right=0;pointerEvents=1;" parent="wawASpPagILhCwxSG9ba-86" vertex="1">
          <mxGeometry width="96" height="40" as="geometry">
            <mxRectangle width="96" height="40" as="alternateBounds" />
          </mxGeometry>
        </mxCell>
        <mxCell id="wawASpPagILhCwxSG9ba-88" value="iter_out_valid" style="shape=partialRectangle;html=1;whiteSpace=wrap;connectable=0;strokeColor=inherit;overflow=hidden;fillColor=none;top=0;left=0;bottom=0;right=0;pointerEvents=1;" parent="wawASpPagILhCwxSG9ba-86" vertex="1">
          <mxGeometry x="96" width="104" height="40" as="geometry">
            <mxRectangle width="104" height="40" as="alternateBounds" />
          </mxGeometry>
        </mxCell>
        <mxCell id="wawASpPagILhCwxSG9ba-89" value="" style="shape=tableRow;horizontal=0;startSize=0;swimlaneHead=0;swimlaneBody=0;strokeColor=inherit;top=0;left=0;bottom=0;right=0;collapsible=0;dropTarget=0;fillColor=none;points=[[0,0.5],[1,0.5]];portConstraint=eastwest;" parent="wawASpPagILhCwxSG9ba-82" vertex="1">
          <mxGeometry y="110" width="200" height="40" as="geometry" />
        </mxCell>
        <mxCell id="wawASpPagILhCwxSG9ba-90" value="right" style="shape=partialRectangle;html=1;whiteSpace=wrap;connectable=0;strokeColor=inherit;overflow=hidden;fillColor=none;top=0;left=0;bottom=0;right=0;pointerEvents=1;" parent="wawASpPagILhCwxSG9ba-89" vertex="1">
          <mxGeometry width="96" height="40" as="geometry">
            <mxRectangle width="96" height="40" as="alternateBounds" />
          </mxGeometry>
        </mxCell>
        <mxCell id="wawASpPagILhCwxSG9ba-91" value="cursor_left" style="shape=partialRectangle;html=1;whiteSpace=wrap;connectable=0;strokeColor=inherit;overflow=hidden;fillColor=none;top=0;left=0;bottom=0;right=0;pointerEvents=1;" parent="wawASpPagILhCwxSG9ba-89" vertex="1">
          <mxGeometry x="96" width="104" height="40" as="geometry">
            <mxRectangle width="104" height="40" as="alternateBounds" />
          </mxGeometry>
        </mxCell>
        <mxCell id="wawASpPagILhCwxSG9ba-92" style="shape=tableRow;horizontal=0;startSize=0;swimlaneHead=0;swimlaneBody=0;strokeColor=inherit;top=0;left=0;bottom=0;right=0;collapsible=0;dropTarget=0;fillColor=none;points=[[0,0.5],[1,0.5]];portConstraint=eastwest;" parent="wawASpPagILhCwxSG9ba-82" vertex="1">
          <mxGeometry y="150" width="200" height="40" as="geometry" />
        </mxCell>
        <mxCell id="wawASpPagILhCwxSG9ba-93" value="backspace" style="shape=partialRectangle;html=1;whiteSpace=wrap;connectable=0;strokeColor=inherit;overflow=hidden;fillColor=none;top=0;left=0;bottom=0;right=0;pointerEvents=1;" parent="wawASpPagILhCwxSG9ba-92" vertex="1">
          <mxGeometry width="96" height="40" as="geometry">
            <mxRectangle width="96" height="40" as="alternateBounds" />
          </mxGeometry>
        </mxCell>
        <mxCell id="wawASpPagILhCwxSG9ba-94" value="cursor_right" style="shape=partialRectangle;html=1;whiteSpace=wrap;connectable=0;strokeColor=inherit;overflow=hidden;fillColor=none;top=0;left=0;bottom=0;right=0;pointerEvents=1;" parent="wawASpPagILhCwxSG9ba-92" vertex="1">
          <mxGeometry x="96" width="104" height="40" as="geometry">
            <mxRectangle width="104" height="40" as="alternateBounds" />
          </mxGeometry>
        </mxCell>
        <mxCell id="wawASpPagILhCwxSG9ba-95" style="shape=tableRow;horizontal=0;startSize=0;swimlaneHead=0;swimlaneBody=0;strokeColor=inherit;top=0;left=0;bottom=0;right=0;collapsible=0;dropTarget=0;fillColor=none;points=[[0,0.5],[1,0.5]];portConstraint=eastwest;" parent="wawASpPagILhCwxSG9ba-82" vertex="1">
          <mxGeometry y="190" width="200" height="40" as="geometry" />
        </mxCell>
        <mxCell id="wawASpPagILhCwxSG9ba-96" value="[6:0] symbol" style="shape=partialRectangle;html=1;whiteSpace=wrap;connectable=0;strokeColor=inherit;overflow=hidden;fillColor=none;top=0;left=0;bottom=0;right=0;pointerEvents=1;" parent="wawASpPagILhCwxSG9ba-95" vertex="1">
          <mxGeometry width="96" height="40" as="geometry">
            <mxRectangle width="96" height="40" as="alternateBounds" />
          </mxGeometry>
        </mxCell>
        <mxCell id="wawASpPagILhCwxSG9ba-97" value="input_ready" style="shape=partialRectangle;html=1;whiteSpace=wrap;connectable=0;strokeColor=inherit;overflow=hidden;fillColor=none;top=0;left=0;bottom=0;right=0;pointerEvents=1;" parent="wawASpPagILhCwxSG9ba-95" vertex="1">
          <mxGeometry x="96" width="104" height="40" as="geometry">
            <mxRectangle width="104" height="40" as="alternateBounds" />
          </mxGeometry>
        </mxCell>
        <mxCell id="wawASpPagILhCwxSG9ba-98" style="shape=tableRow;horizontal=0;startSize=0;swimlaneHead=0;swimlaneBody=0;strokeColor=inherit;top=0;left=0;bottom=0;right=0;collapsible=0;dropTarget=0;fillColor=none;points=[[0,0.5],[1,0.5]];portConstraint=eastwest;" parent="wawASpPagILhCwxSG9ba-82" vertex="1">
          <mxGeometry y="230" width="200" height="40" as="geometry" />
        </mxCell>
        <mxCell id="wawASpPagILhCwxSG9ba-99" value="full_iter_start" style="shape=partialRectangle;html=1;whiteSpace=wrap;connectable=0;strokeColor=inherit;overflow=hidden;fillColor=none;top=0;left=0;bottom=0;right=0;pointerEvents=1;" parent="wawASpPagILhCwxSG9ba-98" vertex="1">
          <mxGeometry width="96" height="40" as="geometry">
            <mxRectangle width="96" height="40" as="alternateBounds" />
          </mxGeometry>
        </mxCell>
        <mxCell id="wawASpPagILhCwxSG9ba-100" style="shape=partialRectangle;html=1;whiteSpace=wrap;connectable=0;strokeColor=inherit;overflow=hidden;fillColor=none;top=0;left=0;bottom=0;right=0;pointerEvents=1;" parent="wawASpPagILhCwxSG9ba-98" vertex="1">
          <mxGeometry x="96" width="104" height="40" as="geometry">
            <mxRectangle width="104" height="40" as="alternateBounds" />
          </mxGeometry>
        </mxCell>
        <mxCell id="wawASpPagILhCwxSG9ba-101" style="shape=tableRow;horizontal=0;startSize=0;swimlaneHead=0;swimlaneBody=0;strokeColor=inherit;top=0;left=0;bottom=0;right=0;collapsible=0;dropTarget=0;fillColor=none;points=[[0,0.5],[1,0.5]];portConstraint=eastwest;" parent="wawASpPagILhCwxSG9ba-82" vertex="1">
          <mxGeometry y="270" width="200" height="40" as="geometry" />
        </mxCell>
        <mxCell id="wawASpPagILhCwxSG9ba-102" value="visible_iter_start" style="shape=partialRectangle;html=1;whiteSpace=wrap;connectable=0;strokeColor=inherit;overflow=hidden;fillColor=none;top=0;left=0;bottom=0;right=0;pointerEvents=1;" parent="wawASpPagILhCwxSG9ba-101" vertex="1">
          <mxGeometry width="96" height="40" as="geometry">
            <mxRectangle width="96" height="40" as="alternateBounds" />
          </mxGeometry>
        </mxCell>
        <mxCell id="wawASpPagILhCwxSG9ba-103" style="shape=partialRectangle;html=1;whiteSpace=wrap;connectable=0;strokeColor=inherit;overflow=hidden;fillColor=none;top=0;left=0;bottom=0;right=0;pointerEvents=1;" parent="wawASpPagILhCwxSG9ba-101" vertex="1">
          <mxGeometry x="96" width="104" height="40" as="geometry">
            <mxRectangle width="104" height="40" as="alternateBounds" />
          </mxGeometry>
        </mxCell>
        <mxCell id="wawASpPagILhCwxSG9ba-104" style="shape=tableRow;horizontal=0;startSize=0;swimlaneHead=0;swimlaneBody=0;strokeColor=inherit;top=0;left=0;bottom=0;right=0;collapsible=0;dropTarget=0;fillColor=none;points=[[0,0.5],[1,0.5]];portConstraint=eastwest;" parent="wawASpPagILhCwxSG9ba-82" vertex="1">
          <mxGeometry y="310" width="200" height="40" as="geometry" />
        </mxCell>
        <mxCell id="wawASpPagILhCwxSG9ba-105" value="iter_en" style="shape=partialRectangle;html=1;whiteSpace=wrap;connectable=0;strokeColor=inherit;overflow=hidden;fillColor=none;top=0;left=0;bottom=0;right=0;pointerEvents=1;" parent="wawASpPagILhCwxSG9ba-104" vertex="1">
          <mxGeometry width="96" height="40" as="geometry">
            <mxRectangle width="96" height="40" as="alternateBounds" />
          </mxGeometry>
        </mxCell>
        <mxCell id="wawASpPagILhCwxSG9ba-106" style="shape=partialRectangle;html=1;whiteSpace=wrap;connectable=0;strokeColor=inherit;overflow=hidden;fillColor=none;top=0;left=0;bottom=0;right=0;pointerEvents=1;" parent="wawASpPagILhCwxSG9ba-104" vertex="1">
          <mxGeometry x="96" width="104" height="40" as="geometry">
            <mxRectangle width="104" height="40" as="alternateBounds" />
          </mxGeometry>
        </mxCell>
        <mxCell id="wawASpPagILhCwxSG9ba-111" value="frame_buffer" style="shape=table;startSize=30;container=1;collapsible=0;childLayout=tableLayout;" parent="1" vertex="1">
          <mxGeometry x="1690" y="130" width="210" height="270" as="geometry" />
        </mxCell>
        <mxCell id="wawASpPagILhCwxSG9ba-112" value="" style="shape=tableRow;horizontal=0;startSize=0;swimlaneHead=0;swimlaneBody=0;strokeColor=inherit;top=0;left=0;bottom=0;right=0;collapsible=0;dropTarget=0;fillColor=none;points=[[0,0.5],[1,0.5]];portConstraint=eastwest;" parent="wawASpPagILhCwxSG9ba-111" vertex="1">
          <mxGeometry y="30" width="210" height="40" as="geometry" />
        </mxCell>
        <mxCell id="wawASpPagILhCwxSG9ba-113" value="clk" style="shape=partialRectangle;html=1;whiteSpace=wrap;connectable=0;strokeColor=inherit;overflow=hidden;fillColor=none;top=0;left=0;bottom=0;right=0;pointerEvents=1;" parent="wawASpPagILhCwxSG9ba-112" vertex="1">
          <mxGeometry width="100" height="40" as="geometry">
            <mxRectangle width="100" height="40" as="alternateBounds" />
          </mxGeometry>
        </mxCell>
        <mxCell id="wawASpPagILhCwxSG9ba-114" value="read_data" style="shape=partialRectangle;html=1;whiteSpace=wrap;connectable=0;strokeColor=inherit;overflow=hidden;fillColor=none;top=0;left=0;bottom=0;right=0;pointerEvents=1;" parent="wawASpPagILhCwxSG9ba-112" vertex="1">
          <mxGeometry x="100" width="110" height="40" as="geometry">
            <mxRectangle width="110" height="40" as="alternateBounds" />
          </mxGeometry>
        </mxCell>
        <mxCell id="wawASpPagILhCwxSG9ba-115" value="" style="shape=tableRow;horizontal=0;startSize=0;swimlaneHead=0;swimlaneBody=0;strokeColor=inherit;top=0;left=0;bottom=0;right=0;collapsible=0;dropTarget=0;fillColor=none;points=[[0,0.5],[1,0.5]];portConstraint=eastwest;" parent="wawASpPagILhCwxSG9ba-111" vertex="1">
          <mxGeometry y="70" width="210" height="40" as="geometry" />
        </mxCell>
        <mxCell id="wawASpPagILhCwxSG9ba-116" value="write_enable" style="shape=partialRectangle;html=1;whiteSpace=wrap;connectable=0;strokeColor=inherit;overflow=hidden;fillColor=none;top=0;left=0;bottom=0;right=0;pointerEvents=1;" parent="wawASpPagILhCwxSG9ba-115" vertex="1">
          <mxGeometry width="100" height="40" as="geometry">
            <mxRectangle width="100" height="40" as="alternateBounds" />
          </mxGeometry>
        </mxCell>
        <mxCell id="wawASpPagILhCwxSG9ba-117" value="" style="shape=partialRectangle;html=1;whiteSpace=wrap;connectable=0;strokeColor=inherit;overflow=hidden;fillColor=none;top=0;left=0;bottom=0;right=0;pointerEvents=1;" parent="wawASpPagILhCwxSG9ba-115" vertex="1">
          <mxGeometry x="100" width="110" height="40" as="geometry">
            <mxRectangle width="110" height="40" as="alternateBounds" />
          </mxGeometry>
        </mxCell>
        <mxCell id="wawASpPagILhCwxSG9ba-118" value="" style="shape=tableRow;horizontal=0;startSize=0;swimlaneHead=0;swimlaneBody=0;strokeColor=inherit;top=0;left=0;bottom=0;right=0;collapsible=0;dropTarget=0;fillColor=none;points=[[0,0.5],[1,0.5]];portConstraint=eastwest;" parent="wawASpPagILhCwxSG9ba-111" vertex="1">
          <mxGeometry y="110" width="210" height="40" as="geometry" />
        </mxCell>
        <mxCell id="wawASpPagILhCwxSG9ba-119" value="[18:0] write_addr" style="shape=partialRectangle;html=1;whiteSpace=wrap;connectable=0;strokeColor=inherit;overflow=hidden;fillColor=none;top=0;left=0;bottom=0;right=0;pointerEvents=1;" parent="wawASpPagILhCwxSG9ba-118" vertex="1">
          <mxGeometry width="100" height="40" as="geometry">
            <mxRectangle width="100" height="40" as="alternateBounds" />
          </mxGeometry>
        </mxCell>
        <mxCell id="wawASpPagILhCwxSG9ba-120" value="" style="shape=partialRectangle;html=1;whiteSpace=wrap;connectable=0;strokeColor=inherit;overflow=hidden;fillColor=none;top=0;left=0;bottom=0;right=0;pointerEvents=1;" parent="wawASpPagILhCwxSG9ba-118" vertex="1">
          <mxGeometry x="100" width="110" height="40" as="geometry">
            <mxRectangle width="110" height="40" as="alternateBounds" />
          </mxGeometry>
        </mxCell>
        <mxCell id="wawASpPagILhCwxSG9ba-121" style="shape=tableRow;horizontal=0;startSize=0;swimlaneHead=0;swimlaneBody=0;strokeColor=inherit;top=0;left=0;bottom=0;right=0;collapsible=0;dropTarget=0;fillColor=none;points=[[0,0.5],[1,0.5]];portConstraint=eastwest;" parent="wawASpPagILhCwxSG9ba-111" vertex="1">
          <mxGeometry y="150" width="210" height="40" as="geometry" />
        </mxCell>
        <mxCell id="wawASpPagILhCwxSG9ba-122" value="write_data" style="shape=partialRectangle;html=1;whiteSpace=wrap;connectable=0;strokeColor=inherit;overflow=hidden;fillColor=none;top=0;left=0;bottom=0;right=0;pointerEvents=1;" parent="wawASpPagILhCwxSG9ba-121" vertex="1">
          <mxGeometry width="100" height="40" as="geometry">
            <mxRectangle width="100" height="40" as="alternateBounds" />
          </mxGeometry>
        </mxCell>
        <mxCell id="wawASpPagILhCwxSG9ba-123" style="shape=partialRectangle;html=1;whiteSpace=wrap;connectable=0;strokeColor=inherit;overflow=hidden;fillColor=none;top=0;left=0;bottom=0;right=0;pointerEvents=1;" parent="wawASpPagILhCwxSG9ba-121" vertex="1">
          <mxGeometry x="100" width="110" height="40" as="geometry">
            <mxRectangle width="110" height="40" as="alternateBounds" />
          </mxGeometry>
        </mxCell>
        <mxCell id="wawASpPagILhCwxSG9ba-124" style="shape=tableRow;horizontal=0;startSize=0;swimlaneHead=0;swimlaneBody=0;strokeColor=inherit;top=0;left=0;bottom=0;right=0;collapsible=0;dropTarget=0;fillColor=none;points=[[0,0.5],[1,0.5]];portConstraint=eastwest;" parent="wawASpPagILhCwxSG9ba-111" vertex="1">
          <mxGeometry y="190" width="210" height="40" as="geometry" />
        </mxCell>
        <mxCell id="wawASpPagILhCwxSG9ba-125" value="[18:0] read_addr" style="shape=partialRectangle;html=1;whiteSpace=wrap;connectable=0;strokeColor=inherit;overflow=hidden;fillColor=none;top=0;left=0;bottom=0;right=0;pointerEvents=1;" parent="wawASpPagILhCwxSG9ba-124" vertex="1">
          <mxGeometry width="100" height="40" as="geometry">
            <mxRectangle width="100" height="40" as="alternateBounds" />
          </mxGeometry>
        </mxCell>
        <mxCell id="wawASpPagILhCwxSG9ba-126" style="shape=partialRectangle;html=1;whiteSpace=wrap;connectable=0;strokeColor=inherit;overflow=hidden;fillColor=none;top=0;left=0;bottom=0;right=0;pointerEvents=1;" parent="wawASpPagILhCwxSG9ba-124" vertex="1">
          <mxGeometry x="100" width="110" height="40" as="geometry">
            <mxRectangle width="110" height="40" as="alternateBounds" />
          </mxGeometry>
        </mxCell>
        <mxCell id="wawASpPagILhCwxSG9ba-127" style="shape=tableRow;horizontal=0;startSize=0;swimlaneHead=0;swimlaneBody=0;strokeColor=inherit;top=0;left=0;bottom=0;right=0;collapsible=0;dropTarget=0;fillColor=none;points=[[0,0.5],[1,0.5]];portConstraint=eastwest;" parent="wawASpPagILhCwxSG9ba-111" vertex="1">
          <mxGeometry y="230" width="210" height="40" as="geometry" />
        </mxCell>
        <mxCell id="wawASpPagILhCwxSG9ba-128" value="swap" style="shape=partialRectangle;html=1;whiteSpace=wrap;connectable=0;strokeColor=inherit;overflow=hidden;fillColor=none;top=0;left=0;bottom=0;right=0;pointerEvents=1;" parent="wawASpPagILhCwxSG9ba-127" vertex="1">
          <mxGeometry width="100" height="40" as="geometry">
            <mxRectangle width="100" height="40" as="alternateBounds" />
          </mxGeometry>
        </mxCell>
        <mxCell id="wawASpPagILhCwxSG9ba-129" style="shape=partialRectangle;html=1;whiteSpace=wrap;connectable=0;strokeColor=inherit;overflow=hidden;fillColor=none;top=0;left=0;bottom=0;right=0;pointerEvents=1;" parent="wawASpPagILhCwxSG9ba-127" vertex="1">
          <mxGeometry x="100" width="110" height="40" as="geometry">
            <mxRectangle width="110" height="40" as="alternateBounds" />
          </mxGeometry>
        </mxCell>
        <mxCell id="wawASpPagILhCwxSG9ba-136" style="edgeStyle=orthogonalEdgeStyle;rounded=0;orthogonalLoop=1;jettySize=auto;html=1;exitX=1;exitY=0.5;exitDx=0;exitDy=0;entryX=0;entryY=0.5;entryDx=0;entryDy=0;jumpStyle=gap;" parent="1" source="wawASpPagILhCwxSG9ba-112" target="wawASpPagILhCwxSG9ba-5" edge="1">
          <mxGeometry relative="1" as="geometry" />
        </mxCell>
        <mxCell id="wawASpPagILhCwxSG9ba-137" style="edgeStyle=orthogonalEdgeStyle;rounded=0;orthogonalLoop=1;jettySize=auto;html=1;exitX=1;exitY=0.5;exitDx=0;exitDy=0;entryX=0;entryY=0.5;entryDx=0;entryDy=0;jumpStyle=gap;" parent="1" source="wawASpPagILhCwxSG9ba-130" target="wawASpPagILhCwxSG9ba-124" edge="1">
          <mxGeometry relative="1" as="geometry">
            <Array as="points">
              <mxPoint x="2100" y="344" />
              <mxPoint x="2160" y="344" />
              <mxPoint x="2160" y="460" />
              <mxPoint x="1630" y="460" />
              <mxPoint x="1630" y="340" />
            </Array>
          </mxGeometry>
        </mxCell>
        <mxCell id="wawASpPagILhCwxSG9ba-138" style="edgeStyle=orthogonalEdgeStyle;rounded=0;orthogonalLoop=1;jettySize=auto;html=1;exitX=1;exitY=0.5;exitDx=0;exitDy=0;entryX=0;entryY=0.5;entryDx=0;entryDy=0;jumpStyle=gap;" parent="1" source="wawASpPagILhCwxSG9ba-133" target="wawASpPagILhCwxSG9ba-127" edge="1">
          <mxGeometry relative="1" as="geometry">
            <Array as="points">
              <mxPoint x="2130" y="380" />
              <mxPoint x="2130" y="430" />
              <mxPoint x="1660" y="430" />
              <mxPoint x="1660" y="380" />
            </Array>
          </mxGeometry>
        </mxCell>
        <mxCell id="wawASpPagILhCwxSG9ba-140" value="logic" style="shape=table;startSize=30;container=1;collapsible=0;childLayout=tableLayout;" parent="1" vertex="1">
          <mxGeometry x="690" y="170" width="220" height="350" as="geometry" />
        </mxCell>
        <mxCell id="wawASpPagILhCwxSG9ba-141" value="" style="shape=tableRow;horizontal=0;startSize=0;swimlaneHead=0;swimlaneBody=0;strokeColor=inherit;top=0;left=0;bottom=0;right=0;collapsible=0;dropTarget=0;fillColor=none;points=[[0,0.5],[1,0.5]];portConstraint=eastwest;" parent="wawASpPagILhCwxSG9ba-140" vertex="1">
          <mxGeometry y="30" width="220" height="40" as="geometry" />
        </mxCell>
        <mxCell id="wawASpPagILhCwxSG9ba-142" value="clk" style="shape=partialRectangle;html=1;whiteSpace=wrap;connectable=0;strokeColor=inherit;overflow=hidden;fillColor=none;top=0;left=0;bottom=0;right=0;pointerEvents=1;" parent="wawASpPagILhCwxSG9ba-141" vertex="1">
          <mxGeometry width="110" height="40" as="geometry">
            <mxRectangle width="110" height="40" as="alternateBounds" />
          </mxGeometry>
        </mxCell>
        <mxCell id="wawASpPagILhCwxSG9ba-143" value="[9:0] x1" style="shape=partialRectangle;html=1;whiteSpace=wrap;connectable=0;strokeColor=inherit;overflow=hidden;fillColor=none;top=0;left=0;bottom=0;right=0;pointerEvents=1;" parent="wawASpPagILhCwxSG9ba-141" vertex="1">
          <mxGeometry x="110" width="110" height="40" as="geometry">
            <mxRectangle width="110" height="40" as="alternateBounds" />
          </mxGeometry>
        </mxCell>
        <mxCell id="wawASpPagILhCwxSG9ba-144" value="" style="shape=tableRow;horizontal=0;startSize=0;swimlaneHead=0;swimlaneBody=0;strokeColor=inherit;top=0;left=0;bottom=0;right=0;collapsible=0;dropTarget=0;fillColor=none;points=[[0,0.5],[1,0.5]];portConstraint=eastwest;" parent="wawASpPagILhCwxSG9ba-140" vertex="1">
          <mxGeometry y="70" width="220" height="40" as="geometry" />
        </mxCell>
        <mxCell id="wawASpPagILhCwxSG9ba-145" value="line_drawer_ready" style="shape=partialRectangle;html=1;whiteSpace=wrap;connectable=0;strokeColor=inherit;overflow=hidden;fillColor=none;top=0;left=0;bottom=0;right=0;pointerEvents=1;" parent="wawASpPagILhCwxSG9ba-144" vertex="1">
          <mxGeometry width="110" height="40" as="geometry">
            <mxRectangle width="110" height="40" as="alternateBounds" />
          </mxGeometry>
        </mxCell>
        <mxCell id="wawASpPagILhCwxSG9ba-146" value="[8:0] y1" style="shape=partialRectangle;html=1;whiteSpace=wrap;connectable=0;strokeColor=inherit;overflow=hidden;fillColor=none;top=0;left=0;bottom=0;right=0;pointerEvents=1;" parent="wawASpPagILhCwxSG9ba-144" vertex="1">
          <mxGeometry x="110" width="110" height="40" as="geometry">
            <mxRectangle width="110" height="40" as="alternateBounds" />
          </mxGeometry>
        </mxCell>
        <mxCell id="wawASpPagILhCwxSG9ba-147" value="" style="shape=tableRow;horizontal=0;startSize=0;swimlaneHead=0;swimlaneBody=0;strokeColor=inherit;top=0;left=0;bottom=0;right=0;collapsible=0;dropTarget=0;fillColor=none;points=[[0,0.5],[1,0.5]];portConstraint=eastwest;" parent="wawASpPagILhCwxSG9ba-140" vertex="1">
          <mxGeometry y="110" width="220" height="40" as="geometry" />
        </mxCell>
        <mxCell id="wawASpPagILhCwxSG9ba-148" value="start" style="shape=partialRectangle;html=1;whiteSpace=wrap;connectable=0;strokeColor=inherit;overflow=hidden;fillColor=none;top=0;left=0;bottom=0;right=0;pointerEvents=1;" parent="wawASpPagILhCwxSG9ba-147" vertex="1">
          <mxGeometry width="110" height="40" as="geometry">
            <mxRectangle width="110" height="40" as="alternateBounds" />
          </mxGeometry>
        </mxCell>
        <mxCell id="wawASpPagILhCwxSG9ba-149" value="[9:0] x2" style="shape=partialRectangle;html=1;whiteSpace=wrap;connectable=0;strokeColor=inherit;overflow=hidden;fillColor=none;top=0;left=0;bottom=0;right=0;pointerEvents=1;" parent="wawASpPagILhCwxSG9ba-147" vertex="1">
          <mxGeometry x="110" width="110" height="40" as="geometry">
            <mxRectangle width="110" height="40" as="alternateBounds" />
          </mxGeometry>
        </mxCell>
        <mxCell id="wawASpPagILhCwxSG9ba-150" style="shape=tableRow;horizontal=0;startSize=0;swimlaneHead=0;swimlaneBody=0;strokeColor=inherit;top=0;left=0;bottom=0;right=0;collapsible=0;dropTarget=0;fillColor=none;points=[[0,0.5],[1,0.5]];portConstraint=eastwest;" parent="wawASpPagILhCwxSG9ba-140" vertex="1">
          <mxGeometry y="150" width="220" height="40" as="geometry" />
        </mxCell>
        <mxCell id="wawASpPagILhCwxSG9ba-151" value="[6:0] symbol" style="shape=partialRectangle;html=1;whiteSpace=wrap;connectable=0;strokeColor=inherit;overflow=hidden;fillColor=none;top=0;left=0;bottom=0;right=0;pointerEvents=1;" parent="wawASpPagILhCwxSG9ba-150" vertex="1">
          <mxGeometry width="110" height="40" as="geometry">
            <mxRectangle width="110" height="40" as="alternateBounds" />
          </mxGeometry>
        </mxCell>
        <mxCell id="wawASpPagILhCwxSG9ba-152" value="[8:0] y2" style="shape=partialRectangle;html=1;whiteSpace=wrap;connectable=0;strokeColor=inherit;overflow=hidden;fillColor=none;top=0;left=0;bottom=0;right=0;pointerEvents=1;" parent="wawASpPagILhCwxSG9ba-150" vertex="1">
          <mxGeometry x="110" width="110" height="40" as="geometry">
            <mxRectangle width="110" height="40" as="alternateBounds" />
          </mxGeometry>
        </mxCell>
        <mxCell id="wawASpPagILhCwxSG9ba-167" style="shape=tableRow;horizontal=0;startSize=0;swimlaneHead=0;swimlaneBody=0;strokeColor=inherit;top=0;left=0;bottom=0;right=0;collapsible=0;dropTarget=0;fillColor=none;points=[[0,0.5],[1,0.5]];portConstraint=eastwest;" parent="wawASpPagILhCwxSG9ba-140" vertex="1">
          <mxGeometry y="190" width="220" height="40" as="geometry" />
        </mxCell>
        <mxCell id="wawASpPagILhCwxSG9ba-168" value="symbol_valid" style="shape=partialRectangle;html=1;whiteSpace=wrap;connectable=0;strokeColor=inherit;overflow=hidden;fillColor=none;top=0;left=0;bottom=0;right=0;pointerEvents=1;" parent="wawASpPagILhCwxSG9ba-167" vertex="1">
          <mxGeometry width="110" height="40" as="geometry">
            <mxRectangle width="110" height="40" as="alternateBounds" />
          </mxGeometry>
        </mxCell>
        <mxCell id="wawASpPagILhCwxSG9ba-169" value="line_drawer_start" style="shape=partialRectangle;html=1;whiteSpace=wrap;connectable=0;strokeColor=inherit;overflow=hidden;fillColor=none;top=0;left=0;bottom=0;right=0;pointerEvents=1;" parent="wawASpPagILhCwxSG9ba-167" vertex="1">
          <mxGeometry x="110" width="110" height="40" as="geometry">
            <mxRectangle width="110" height="40" as="alternateBounds" />
          </mxGeometry>
        </mxCell>
        <mxCell id="wawASpPagILhCwxSG9ba-229" style="shape=tableRow;horizontal=0;startSize=0;swimlaneHead=0;swimlaneBody=0;strokeColor=inherit;top=0;left=0;bottom=0;right=0;collapsible=0;dropTarget=0;fillColor=none;points=[[0,0.5],[1,0.5]];portConstraint=eastwest;" parent="wawASpPagILhCwxSG9ba-140" vertex="1">
          <mxGeometry y="230" width="220" height="40" as="geometry" />
        </mxCell>
        <mxCell id="wawASpPagILhCwxSG9ba-230" style="shape=partialRectangle;html=1;whiteSpace=wrap;connectable=0;strokeColor=inherit;overflow=hidden;fillColor=none;top=0;left=0;bottom=0;right=0;pointerEvents=1;" parent="wawASpPagILhCwxSG9ba-229" vertex="1">
          <mxGeometry width="110" height="40" as="geometry">
            <mxRectangle width="110" height="40" as="alternateBounds" />
          </mxGeometry>
        </mxCell>
        <mxCell id="wawASpPagILhCwxSG9ba-231" value="symbol_iter_start" style="shape=partialRectangle;html=1;whiteSpace=wrap;connectable=0;strokeColor=inherit;overflow=hidden;fillColor=none;top=0;left=0;bottom=0;right=0;pointerEvents=1;" parent="wawASpPagILhCwxSG9ba-229" vertex="1">
          <mxGeometry x="110" width="110" height="40" as="geometry">
            <mxRectangle width="110" height="40" as="alternateBounds" />
          </mxGeometry>
        </mxCell>
        <mxCell id="cJzb_HQXO194d4CzHGgO-1" style="shape=tableRow;horizontal=0;startSize=0;swimlaneHead=0;swimlaneBody=0;strokeColor=inherit;top=0;left=0;bottom=0;right=0;collapsible=0;dropTarget=0;fillColor=none;points=[[0,0.5],[1,0.5]];portConstraint=eastwest;" parent="wawASpPagILhCwxSG9ba-140" vertex="1">
          <mxGeometry y="270" width="220" height="40" as="geometry" />
        </mxCell>
        <mxCell id="cJzb_HQXO194d4CzHGgO-2" style="shape=partialRectangle;html=1;whiteSpace=wrap;connectable=0;strokeColor=inherit;overflow=hidden;fillColor=none;top=0;left=0;bottom=0;right=0;pointerEvents=1;" parent="cJzb_HQXO194d4CzHGgO-1" vertex="1">
          <mxGeometry width="110" height="40" as="geometry">
            <mxRectangle width="110" height="40" as="alternateBounds" />
          </mxGeometry>
        </mxCell>
        <mxCell id="cJzb_HQXO194d4CzHGgO-3" value="symbol_iter_en" style="shape=partialRectangle;html=1;whiteSpace=wrap;connectable=0;strokeColor=inherit;overflow=hidden;fillColor=none;top=0;left=0;bottom=0;right=0;pointerEvents=1;" parent="cJzb_HQXO194d4CzHGgO-1" vertex="1">
          <mxGeometry x="110" width="110" height="40" as="geometry">
            <mxRectangle width="110" height="40" as="alternateBounds" />
          </mxGeometry>
        </mxCell>
        <mxCell id="-I-AIGW35sh0JRv_y47P-1" style="shape=tableRow;horizontal=0;startSize=0;swimlaneHead=0;swimlaneBody=0;strokeColor=inherit;top=0;left=0;bottom=0;right=0;collapsible=0;dropTarget=0;fillColor=none;points=[[0,0.5],[1,0.5]];portConstraint=eastwest;" parent="wawASpPagILhCwxSG9ba-140" vertex="1">
          <mxGeometry y="310" width="220" height="40" as="geometry" />
        </mxCell>
        <mxCell id="-I-AIGW35sh0JRv_y47P-2" style="shape=partialRectangle;html=1;whiteSpace=wrap;connectable=0;strokeColor=inherit;overflow=hidden;fillColor=none;top=0;left=0;bottom=0;right=0;pointerEvents=1;" parent="-I-AIGW35sh0JRv_y47P-1" vertex="1">
          <mxGeometry width="110" height="40" as="geometry">
            <mxRectangle width="110" height="40" as="alternateBounds" />
          </mxGeometry>
        </mxCell>
        <mxCell id="-I-AIGW35sh0JRv_y47P-3" value="ready" style="shape=partialRectangle;html=1;whiteSpace=wrap;connectable=0;strokeColor=inherit;overflow=hidden;fillColor=none;top=0;left=0;bottom=0;right=0;pointerEvents=1;" parent="-I-AIGW35sh0JRv_y47P-1" vertex="1">
          <mxGeometry x="110" width="110" height="40" as="geometry">
            <mxRectangle width="110" height="40" as="alternateBounds" />
          </mxGeometry>
        </mxCell>
        <mxCell id="wawASpPagILhCwxSG9ba-153" style="edgeStyle=orthogonalEdgeStyle;rounded=0;orthogonalLoop=1;jettySize=auto;html=1;exitX=1;exitY=0.5;exitDx=0;exitDy=0;entryX=0;entryY=0.5;entryDx=0;entryDy=0;jumpStyle=gap;" parent="1" source="wawASpPagILhCwxSG9ba-83" target="wawASpPagILhCwxSG9ba-150" edge="1">
          <mxGeometry relative="1" as="geometry" />
        </mxCell>
        <mxCell id="wawASpPagILhCwxSG9ba-154" style="edgeStyle=orthogonalEdgeStyle;rounded=0;orthogonalLoop=1;jettySize=auto;html=1;exitX=1;exitY=0.5;exitDx=0;exitDy=0;entryX=0;entryY=0.5;entryDx=0;entryDy=0;jumpStyle=gap;" parent="1" source="cJzb_HQXO194d4CzHGgO-1" target="wawASpPagILhCwxSG9ba-292" edge="1">
          <mxGeometry relative="1" as="geometry">
            <Array as="points">
              <mxPoint x="970" y="460" />
              <mxPoint x="970" y="1240" />
              <mxPoint x="-160" y="1240" />
              <mxPoint x="-160" y="1120" />
            </Array>
          </mxGeometry>
        </mxCell>
        <mxCell id="wawASpPagILhCwxSG9ba-156" style="edgeStyle=orthogonalEdgeStyle;rounded=0;orthogonalLoop=1;jettySize=auto;html=1;exitX=1;exitY=0.5;exitDx=0;exitDy=0;entryX=0;entryY=0.5;entryDx=0;entryDy=0;jumpStyle=gap;" parent="1" source="wawASpPagILhCwxSG9ba-86" target="wawASpPagILhCwxSG9ba-167" edge="1">
          <mxGeometry relative="1" as="geometry" />
        </mxCell>
        <mxCell id="wawASpPagILhCwxSG9ba-157" value="line_drawer" style="shape=table;startSize=30;container=1;collapsible=0;childLayout=tableLayout;" parent="1" vertex="1">
          <mxGeometry x="1080" y="130" width="200" height="270" as="geometry" />
        </mxCell>
        <mxCell id="wawASpPagILhCwxSG9ba-158" value="" style="shape=tableRow;horizontal=0;startSize=0;swimlaneHead=0;swimlaneBody=0;strokeColor=inherit;top=0;left=0;bottom=0;right=0;collapsible=0;dropTarget=0;fillColor=none;points=[[0,0.5],[1,0.5]];portConstraint=eastwest;" parent="wawASpPagILhCwxSG9ba-157" vertex="1">
          <mxGeometry y="30" width="200" height="40" as="geometry" />
        </mxCell>
        <mxCell id="wawASpPagILhCwxSG9ba-159" value="clk" style="shape=partialRectangle;html=1;whiteSpace=wrap;connectable=0;strokeColor=inherit;overflow=hidden;fillColor=none;top=0;left=0;bottom=0;right=0;pointerEvents=1;" parent="wawASpPagILhCwxSG9ba-158" vertex="1">
          <mxGeometry width="60" height="40" as="geometry">
            <mxRectangle width="60" height="40" as="alternateBounds" />
          </mxGeometry>
        </mxCell>
        <mxCell id="wawASpPagILhCwxSG9ba-160" value="ready" style="shape=partialRectangle;html=1;whiteSpace=wrap;connectable=0;strokeColor=inherit;overflow=hidden;fillColor=none;top=0;left=0;bottom=0;right=0;pointerEvents=1;" parent="wawASpPagILhCwxSG9ba-158" vertex="1">
          <mxGeometry x="60" width="140" height="40" as="geometry">
            <mxRectangle width="140" height="40" as="alternateBounds" />
          </mxGeometry>
        </mxCell>
        <mxCell id="wawASpPagILhCwxSG9ba-161" value="" style="shape=tableRow;horizontal=0;startSize=0;swimlaneHead=0;swimlaneBody=0;strokeColor=inherit;top=0;left=0;bottom=0;right=0;collapsible=0;dropTarget=0;fillColor=none;points=[[0,0.5],[1,0.5]];portConstraint=eastwest;" parent="wawASpPagILhCwxSG9ba-157" vertex="1">
          <mxGeometry y="70" width="200" height="40" as="geometry" />
        </mxCell>
        <mxCell id="wawASpPagILhCwxSG9ba-162" value="[9:0] x1" style="shape=partialRectangle;html=1;whiteSpace=wrap;connectable=0;strokeColor=inherit;overflow=hidden;fillColor=none;top=0;left=0;bottom=0;right=0;pointerEvents=1;" parent="wawASpPagILhCwxSG9ba-161" vertex="1">
          <mxGeometry width="60" height="40" as="geometry">
            <mxRectangle width="60" height="40" as="alternateBounds" />
          </mxGeometry>
        </mxCell>
        <mxCell id="wawASpPagILhCwxSG9ba-163" value="write_enable" style="shape=partialRectangle;html=1;whiteSpace=wrap;connectable=0;strokeColor=inherit;overflow=hidden;fillColor=none;top=0;left=0;bottom=0;right=0;pointerEvents=1;" parent="wawASpPagILhCwxSG9ba-161" vertex="1">
          <mxGeometry x="60" width="140" height="40" as="geometry">
            <mxRectangle width="140" height="40" as="alternateBounds" />
          </mxGeometry>
        </mxCell>
        <mxCell id="wawASpPagILhCwxSG9ba-164" value="" style="shape=tableRow;horizontal=0;startSize=0;swimlaneHead=0;swimlaneBody=0;strokeColor=inherit;top=0;left=0;bottom=0;right=0;collapsible=0;dropTarget=0;fillColor=none;points=[[0,0.5],[1,0.5]];portConstraint=eastwest;" parent="wawASpPagILhCwxSG9ba-157" vertex="1">
          <mxGeometry y="110" width="200" height="40" as="geometry" />
        </mxCell>
        <mxCell id="wawASpPagILhCwxSG9ba-165" value="[8:0] y1" style="shape=partialRectangle;html=1;whiteSpace=wrap;connectable=0;strokeColor=inherit;overflow=hidden;fillColor=none;top=0;left=0;bottom=0;right=0;pointerEvents=1;" parent="wawASpPagILhCwxSG9ba-164" vertex="1">
          <mxGeometry width="60" height="40" as="geometry">
            <mxRectangle width="60" height="40" as="alternateBounds" />
          </mxGeometry>
        </mxCell>
        <mxCell id="wawASpPagILhCwxSG9ba-166" value="[18:0] write_addr" style="shape=partialRectangle;html=1;whiteSpace=wrap;connectable=0;strokeColor=inherit;overflow=hidden;fillColor=none;top=0;left=0;bottom=0;right=0;pointerEvents=1;" parent="wawASpPagILhCwxSG9ba-164" vertex="1">
          <mxGeometry x="60" width="140" height="40" as="geometry">
            <mxRectangle width="140" height="40" as="alternateBounds" />
          </mxGeometry>
        </mxCell>
        <mxCell id="wawASpPagILhCwxSG9ba-170" style="shape=tableRow;horizontal=0;startSize=0;swimlaneHead=0;swimlaneBody=0;strokeColor=inherit;top=0;left=0;bottom=0;right=0;collapsible=0;dropTarget=0;fillColor=none;points=[[0,0.5],[1,0.5]];portConstraint=eastwest;" parent="wawASpPagILhCwxSG9ba-157" vertex="1">
          <mxGeometry y="150" width="200" height="40" as="geometry" />
        </mxCell>
        <mxCell id="wawASpPagILhCwxSG9ba-171" value="[9:0] x2" style="shape=partialRectangle;html=1;whiteSpace=wrap;connectable=0;strokeColor=inherit;overflow=hidden;fillColor=none;top=0;left=0;bottom=0;right=0;pointerEvents=1;" parent="wawASpPagILhCwxSG9ba-170" vertex="1">
          <mxGeometry width="60" height="40" as="geometry">
            <mxRectangle width="60" height="40" as="alternateBounds" />
          </mxGeometry>
        </mxCell>
        <mxCell id="wawASpPagILhCwxSG9ba-172" value="write_data" style="shape=partialRectangle;html=1;whiteSpace=wrap;connectable=0;strokeColor=inherit;overflow=hidden;fillColor=none;top=0;left=0;bottom=0;right=0;pointerEvents=1;" parent="wawASpPagILhCwxSG9ba-170" vertex="1">
          <mxGeometry x="60" width="140" height="40" as="geometry">
            <mxRectangle width="140" height="40" as="alternateBounds" />
          </mxGeometry>
        </mxCell>
        <mxCell id="wawASpPagILhCwxSG9ba-173" style="shape=tableRow;horizontal=0;startSize=0;swimlaneHead=0;swimlaneBody=0;strokeColor=inherit;top=0;left=0;bottom=0;right=0;collapsible=0;dropTarget=0;fillColor=none;points=[[0,0.5],[1,0.5]];portConstraint=eastwest;" parent="wawASpPagILhCwxSG9ba-157" vertex="1">
          <mxGeometry y="190" width="200" height="40" as="geometry" />
        </mxCell>
        <mxCell id="wawASpPagILhCwxSG9ba-174" value="[8:0] y2" style="shape=partialRectangle;html=1;whiteSpace=wrap;connectable=0;strokeColor=inherit;overflow=hidden;fillColor=none;top=0;left=0;bottom=0;right=0;pointerEvents=1;" parent="wawASpPagILhCwxSG9ba-173" vertex="1">
          <mxGeometry width="60" height="40" as="geometry">
            <mxRectangle width="60" height="40" as="alternateBounds" />
          </mxGeometry>
        </mxCell>
        <mxCell id="wawASpPagILhCwxSG9ba-175" style="shape=partialRectangle;html=1;whiteSpace=wrap;connectable=0;strokeColor=inherit;overflow=hidden;fillColor=none;top=0;left=0;bottom=0;right=0;pointerEvents=1;" parent="wawASpPagILhCwxSG9ba-173" vertex="1">
          <mxGeometry x="60" width="140" height="40" as="geometry">
            <mxRectangle width="140" height="40" as="alternateBounds" />
          </mxGeometry>
        </mxCell>
        <mxCell id="wawASpPagILhCwxSG9ba-176" style="shape=tableRow;horizontal=0;startSize=0;swimlaneHead=0;swimlaneBody=0;strokeColor=inherit;top=0;left=0;bottom=0;right=0;collapsible=0;dropTarget=0;fillColor=none;points=[[0,0.5],[1,0.5]];portConstraint=eastwest;" parent="wawASpPagILhCwxSG9ba-157" vertex="1">
          <mxGeometry y="230" width="200" height="40" as="geometry" />
        </mxCell>
        <mxCell id="wawASpPagILhCwxSG9ba-177" value="start" style="shape=partialRectangle;html=1;whiteSpace=wrap;connectable=0;strokeColor=inherit;overflow=hidden;fillColor=none;top=0;left=0;bottom=0;right=0;pointerEvents=1;" parent="wawASpPagILhCwxSG9ba-176" vertex="1">
          <mxGeometry width="60" height="40" as="geometry">
            <mxRectangle width="60" height="40" as="alternateBounds" />
          </mxGeometry>
        </mxCell>
        <mxCell id="wawASpPagILhCwxSG9ba-178" style="shape=partialRectangle;html=1;whiteSpace=wrap;connectable=0;strokeColor=inherit;overflow=hidden;fillColor=none;top=0;left=0;bottom=0;right=0;pointerEvents=1;" parent="wawASpPagILhCwxSG9ba-176" vertex="1">
          <mxGeometry x="60" width="140" height="40" as="geometry">
            <mxRectangle width="140" height="40" as="alternateBounds" />
          </mxGeometry>
        </mxCell>
        <mxCell id="wawASpPagILhCwxSG9ba-182" value="symbol_drawer" style="shape=table;startSize=30;container=1;collapsible=0;childLayout=tableLayout;" parent="1" vertex="1">
          <mxGeometry x="1080" y="460" width="200" height="310" as="geometry" />
        </mxCell>
        <mxCell id="wawASpPagILhCwxSG9ba-183" value="" style="shape=tableRow;horizontal=0;startSize=0;swimlaneHead=0;swimlaneBody=0;strokeColor=inherit;top=0;left=0;bottom=0;right=0;collapsible=0;dropTarget=0;fillColor=none;points=[[0,0.5],[1,0.5]];portConstraint=eastwest;" parent="wawASpPagILhCwxSG9ba-182" vertex="1">
          <mxGeometry y="30" width="200" height="40" as="geometry" />
        </mxCell>
        <mxCell id="wawASpPagILhCwxSG9ba-184" value="clk" style="shape=partialRectangle;html=1;whiteSpace=wrap;connectable=0;strokeColor=inherit;overflow=hidden;fillColor=none;top=0;left=0;bottom=0;right=0;pointerEvents=1;" parent="wawASpPagILhCwxSG9ba-183" vertex="1">
          <mxGeometry width="80" height="40" as="geometry">
            <mxRectangle width="80" height="40" as="alternateBounds" />
          </mxGeometry>
        </mxCell>
        <mxCell id="wawASpPagILhCwxSG9ba-185" value="ready" style="shape=partialRectangle;html=1;whiteSpace=wrap;connectable=0;strokeColor=inherit;overflow=hidden;fillColor=none;top=0;left=0;bottom=0;right=0;pointerEvents=1;" parent="wawASpPagILhCwxSG9ba-183" vertex="1">
          <mxGeometry x="80" width="120" height="40" as="geometry">
            <mxRectangle width="120" height="40" as="alternateBounds" />
          </mxGeometry>
        </mxCell>
        <mxCell id="wawASpPagILhCwxSG9ba-186" value="" style="shape=tableRow;horizontal=0;startSize=0;swimlaneHead=0;swimlaneBody=0;strokeColor=inherit;top=0;left=0;bottom=0;right=0;collapsible=0;dropTarget=0;fillColor=none;points=[[0,0.5],[1,0.5]];portConstraint=eastwest;" parent="wawASpPagILhCwxSG9ba-182" vertex="1">
          <mxGeometry y="70" width="200" height="40" as="geometry" />
        </mxCell>
        <mxCell id="wawASpPagILhCwxSG9ba-187" value="[9:0] x" style="shape=partialRectangle;html=1;whiteSpace=wrap;connectable=0;strokeColor=inherit;overflow=hidden;fillColor=none;top=0;left=0;bottom=0;right=0;pointerEvents=1;" parent="wawASpPagILhCwxSG9ba-186" vertex="1">
          <mxGeometry width="80" height="40" as="geometry">
            <mxRectangle width="80" height="40" as="alternateBounds" />
          </mxGeometry>
        </mxCell>
        <mxCell id="wawASpPagILhCwxSG9ba-188" value="write_enable" style="shape=partialRectangle;html=1;whiteSpace=wrap;connectable=0;strokeColor=inherit;overflow=hidden;fillColor=none;top=0;left=0;bottom=0;right=0;pointerEvents=1;" parent="wawASpPagILhCwxSG9ba-186" vertex="1">
          <mxGeometry x="80" width="120" height="40" as="geometry">
            <mxRectangle width="120" height="40" as="alternateBounds" />
          </mxGeometry>
        </mxCell>
        <mxCell id="wawASpPagILhCwxSG9ba-189" value="" style="shape=tableRow;horizontal=0;startSize=0;swimlaneHead=0;swimlaneBody=0;strokeColor=inherit;top=0;left=0;bottom=0;right=0;collapsible=0;dropTarget=0;fillColor=none;points=[[0,0.5],[1,0.5]];portConstraint=eastwest;" parent="wawASpPagILhCwxSG9ba-182" vertex="1">
          <mxGeometry y="110" width="200" height="40" as="geometry" />
        </mxCell>
        <mxCell id="wawASpPagILhCwxSG9ba-190" value="[8:0] y" style="shape=partialRectangle;html=1;whiteSpace=wrap;connectable=0;strokeColor=inherit;overflow=hidden;fillColor=none;top=0;left=0;bottom=0;right=0;pointerEvents=1;" parent="wawASpPagILhCwxSG9ba-189" vertex="1">
          <mxGeometry width="80" height="40" as="geometry">
            <mxRectangle width="80" height="40" as="alternateBounds" />
          </mxGeometry>
        </mxCell>
        <mxCell id="wawASpPagILhCwxSG9ba-191" value="[18:0] write_addr" style="shape=partialRectangle;html=1;whiteSpace=wrap;connectable=0;strokeColor=inherit;overflow=hidden;fillColor=none;top=0;left=0;bottom=0;right=0;pointerEvents=1;" parent="wawASpPagILhCwxSG9ba-189" vertex="1">
          <mxGeometry x="80" width="120" height="40" as="geometry">
            <mxRectangle width="120" height="40" as="alternateBounds" />
          </mxGeometry>
        </mxCell>
        <mxCell id="wawASpPagILhCwxSG9ba-192" style="shape=tableRow;horizontal=0;startSize=0;swimlaneHead=0;swimlaneBody=0;strokeColor=inherit;top=0;left=0;bottom=0;right=0;collapsible=0;dropTarget=0;fillColor=none;points=[[0,0.5],[1,0.5]];portConstraint=eastwest;" parent="wawASpPagILhCwxSG9ba-182" vertex="1">
          <mxGeometry y="150" width="200" height="40" as="geometry" />
        </mxCell>
        <mxCell id="wawASpPagILhCwxSG9ba-193" value="[6:0] symbol" style="shape=partialRectangle;html=1;whiteSpace=wrap;connectable=0;strokeColor=inherit;overflow=hidden;fillColor=none;top=0;left=0;bottom=0;right=0;pointerEvents=1;" parent="wawASpPagILhCwxSG9ba-192" vertex="1">
          <mxGeometry width="80" height="40" as="geometry">
            <mxRectangle width="80" height="40" as="alternateBounds" />
          </mxGeometry>
        </mxCell>
        <mxCell id="wawASpPagILhCwxSG9ba-194" value="write_data" style="shape=partialRectangle;html=1;whiteSpace=wrap;connectable=0;strokeColor=inherit;overflow=hidden;fillColor=none;top=0;left=0;bottom=0;right=0;pointerEvents=1;" parent="wawASpPagILhCwxSG9ba-192" vertex="1">
          <mxGeometry x="80" width="120" height="40" as="geometry">
            <mxRectangle width="120" height="40" as="alternateBounds" />
          </mxGeometry>
        </mxCell>
        <mxCell id="wawASpPagILhCwxSG9ba-195" style="shape=tableRow;horizontal=0;startSize=0;swimlaneHead=0;swimlaneBody=0;strokeColor=inherit;top=0;left=0;bottom=0;right=0;collapsible=0;dropTarget=0;fillColor=none;points=[[0,0.5],[1,0.5]];portConstraint=eastwest;" parent="wawASpPagILhCwxSG9ba-182" vertex="1">
          <mxGeometry y="190" width="200" height="40" as="geometry" />
        </mxCell>
        <mxCell id="wawASpPagILhCwxSG9ba-196" value="cursor_left" style="shape=partialRectangle;html=1;whiteSpace=wrap;connectable=0;strokeColor=inherit;overflow=hidden;fillColor=none;top=0;left=0;bottom=0;right=0;pointerEvents=1;" parent="wawASpPagILhCwxSG9ba-195" vertex="1">
          <mxGeometry width="80" height="40" as="geometry">
            <mxRectangle width="80" height="40" as="alternateBounds" />
          </mxGeometry>
        </mxCell>
        <mxCell id="wawASpPagILhCwxSG9ba-197" style="shape=partialRectangle;html=1;whiteSpace=wrap;connectable=0;strokeColor=inherit;overflow=hidden;fillColor=none;top=0;left=0;bottom=0;right=0;pointerEvents=1;" parent="wawASpPagILhCwxSG9ba-195" vertex="1">
          <mxGeometry x="80" width="120" height="40" as="geometry">
            <mxRectangle width="120" height="40" as="alternateBounds" />
          </mxGeometry>
        </mxCell>
        <mxCell id="wawASpPagILhCwxSG9ba-224" style="shape=tableRow;horizontal=0;startSize=0;swimlaneHead=0;swimlaneBody=0;strokeColor=inherit;top=0;left=0;bottom=0;right=0;collapsible=0;dropTarget=0;fillColor=none;points=[[0,0.5],[1,0.5]];portConstraint=eastwest;" parent="wawASpPagILhCwxSG9ba-182" vertex="1">
          <mxGeometry y="230" width="200" height="40" as="geometry" />
        </mxCell>
        <mxCell id="wawASpPagILhCwxSG9ba-225" value="cursor_right" style="shape=partialRectangle;html=1;whiteSpace=wrap;connectable=0;strokeColor=inherit;overflow=hidden;fillColor=none;top=0;left=0;bottom=0;right=0;pointerEvents=1;" parent="wawASpPagILhCwxSG9ba-224" vertex="1">
          <mxGeometry width="80" height="40" as="geometry">
            <mxRectangle width="80" height="40" as="alternateBounds" />
          </mxGeometry>
        </mxCell>
        <mxCell id="wawASpPagILhCwxSG9ba-226" style="shape=partialRectangle;html=1;whiteSpace=wrap;connectable=0;strokeColor=inherit;overflow=hidden;fillColor=none;top=0;left=0;bottom=0;right=0;pointerEvents=1;" parent="wawASpPagILhCwxSG9ba-224" vertex="1">
          <mxGeometry x="80" width="120" height="40" as="geometry">
            <mxRectangle width="120" height="40" as="alternateBounds" />
          </mxGeometry>
        </mxCell>
        <mxCell id="lt0cO0rgXMRksFK3DKkX-1" style="shape=tableRow;horizontal=0;startSize=0;swimlaneHead=0;swimlaneBody=0;strokeColor=inherit;top=0;left=0;bottom=0;right=0;collapsible=0;dropTarget=0;fillColor=none;points=[[0,0.5],[1,0.5]];portConstraint=eastwest;" parent="wawASpPagILhCwxSG9ba-182" vertex="1">
          <mxGeometry y="270" width="200" height="40" as="geometry" />
        </mxCell>
        <mxCell id="lt0cO0rgXMRksFK3DKkX-2" value="start" style="shape=partialRectangle;html=1;whiteSpace=wrap;connectable=0;strokeColor=inherit;overflow=hidden;fillColor=none;top=0;left=0;bottom=0;right=0;pointerEvents=1;" parent="lt0cO0rgXMRksFK3DKkX-1" vertex="1">
          <mxGeometry width="80" height="40" as="geometry">
            <mxRectangle width="80" height="40" as="alternateBounds" />
          </mxGeometry>
        </mxCell>
        <mxCell id="lt0cO0rgXMRksFK3DKkX-3" style="shape=partialRectangle;html=1;whiteSpace=wrap;connectable=0;strokeColor=inherit;overflow=hidden;fillColor=none;top=0;left=0;bottom=0;right=0;pointerEvents=1;" parent="lt0cO0rgXMRksFK3DKkX-1" vertex="1">
          <mxGeometry x="80" width="120" height="40" as="geometry">
            <mxRectangle width="120" height="40" as="alternateBounds" />
          </mxGeometry>
        </mxCell>
        <mxCell id="wawASpPagILhCwxSG9ba-214" value="graphics_fsm" style="shape=table;startSize=30;container=1;collapsible=0;childLayout=tableLayout;" parent="1" vertex="1">
          <mxGeometry x="-100" y="830" width="270" height="350" as="geometry" />
        </mxCell>
        <mxCell id="wawASpPagILhCwxSG9ba-215" value="" style="shape=tableRow;horizontal=0;startSize=0;swimlaneHead=0;swimlaneBody=0;strokeColor=inherit;top=0;left=0;bottom=0;right=0;collapsible=0;dropTarget=0;fillColor=none;points=[[0,0.5],[1,0.5]];portConstraint=eastwest;" parent="wawASpPagILhCwxSG9ba-214" vertex="1">
          <mxGeometry y="30" width="270" height="40" as="geometry" />
        </mxCell>
        <mxCell id="wawASpPagILhCwxSG9ba-216" value="clk" style="shape=partialRectangle;html=1;whiteSpace=wrap;connectable=0;strokeColor=inherit;overflow=hidden;fillColor=none;top=0;left=0;bottom=0;right=0;pointerEvents=1;" parent="wawASpPagILhCwxSG9ba-215" vertex="1">
          <mxGeometry width="130" height="40" as="geometry">
            <mxRectangle width="130" height="40" as="alternateBounds" />
          </mxGeometry>
        </mxCell>
        <mxCell id="wawASpPagILhCwxSG9ba-217" value="full_iter_start" style="shape=partialRectangle;html=1;whiteSpace=wrap;connectable=0;strokeColor=inherit;overflow=hidden;fillColor=none;top=0;left=0;bottom=0;right=0;pointerEvents=1;" parent="wawASpPagILhCwxSG9ba-215" vertex="1">
          <mxGeometry x="130" width="140" height="40" as="geometry">
            <mxRectangle width="140" height="40" as="alternateBounds" />
          </mxGeometry>
        </mxCell>
        <mxCell id="wawASpPagILhCwxSG9ba-218" value="" style="shape=tableRow;horizontal=0;startSize=0;swimlaneHead=0;swimlaneBody=0;strokeColor=inherit;top=0;left=0;bottom=0;right=0;collapsible=0;dropTarget=0;fillColor=none;points=[[0,0.5],[1,0.5]];portConstraint=eastwest;" parent="wawASpPagILhCwxSG9ba-214" vertex="1">
          <mxGeometry y="70" width="270" height="40" as="geometry" />
        </mxCell>
        <mxCell id="wawASpPagILhCwxSG9ba-219" value="symbol_valid" style="shape=partialRectangle;html=1;whiteSpace=wrap;connectable=0;strokeColor=inherit;overflow=hidden;fillColor=none;top=0;left=0;bottom=0;right=0;pointerEvents=1;" parent="wawASpPagILhCwxSG9ba-218" vertex="1">
          <mxGeometry width="130" height="40" as="geometry">
            <mxRectangle width="130" height="40" as="alternateBounds" />
          </mxGeometry>
        </mxCell>
        <mxCell id="wawASpPagILhCwxSG9ba-220" value="visible_iter_start" style="shape=partialRectangle;html=1;whiteSpace=wrap;connectable=0;strokeColor=inherit;overflow=hidden;fillColor=none;top=0;left=0;bottom=0;right=0;pointerEvents=1;" parent="wawASpPagILhCwxSG9ba-218" vertex="1">
          <mxGeometry x="130" width="140" height="40" as="geometry">
            <mxRectangle width="140" height="40" as="alternateBounds" />
          </mxGeometry>
        </mxCell>
        <mxCell id="wawASpPagILhCwxSG9ba-221" value="" style="shape=tableRow;horizontal=0;startSize=0;swimlaneHead=0;swimlaneBody=0;strokeColor=inherit;top=0;left=0;bottom=0;right=0;collapsible=0;dropTarget=0;fillColor=none;points=[[0,0.5],[1,0.5]];portConstraint=eastwest;" parent="wawASpPagILhCwxSG9ba-214" vertex="1">
          <mxGeometry y="110" width="270" height="40" as="geometry" />
        </mxCell>
        <mxCell id="wawASpPagILhCwxSG9ba-222" value="swap" style="shape=partialRectangle;html=1;whiteSpace=wrap;connectable=0;strokeColor=inherit;overflow=hidden;fillColor=none;top=0;left=0;bottom=0;right=0;pointerEvents=1;" parent="wawASpPagILhCwxSG9ba-221" vertex="1">
          <mxGeometry width="130" height="40" as="geometry">
            <mxRectangle width="130" height="40" as="alternateBounds" />
          </mxGeometry>
        </mxCell>
        <mxCell id="wawASpPagILhCwxSG9ba-223" value="iter_en" style="shape=partialRectangle;html=1;whiteSpace=wrap;connectable=0;strokeColor=inherit;overflow=hidden;fillColor=none;top=0;left=0;bottom=0;right=0;pointerEvents=1;" parent="wawASpPagILhCwxSG9ba-221" vertex="1">
          <mxGeometry x="130" width="140" height="40" as="geometry">
            <mxRectangle width="140" height="40" as="alternateBounds" />
          </mxGeometry>
        </mxCell>
        <mxCell id="wawASpPagILhCwxSG9ba-247" style="shape=tableRow;horizontal=0;startSize=0;swimlaneHead=0;swimlaneBody=0;strokeColor=inherit;top=0;left=0;bottom=0;right=0;collapsible=0;dropTarget=0;fillColor=none;points=[[0,0.5],[1,0.5]];portConstraint=eastwest;" parent="wawASpPagILhCwxSG9ba-214" vertex="1">
          <mxGeometry y="150" width="270" height="40" as="geometry" />
        </mxCell>
        <mxCell id="wawASpPagILhCwxSG9ba-248" value="symbol_drawer_ready" style="shape=partialRectangle;html=1;whiteSpace=wrap;connectable=0;strokeColor=inherit;overflow=hidden;fillColor=none;top=0;left=0;bottom=0;right=0;pointerEvents=1;" parent="wawASpPagILhCwxSG9ba-247" vertex="1">
          <mxGeometry width="130" height="40" as="geometry">
            <mxRectangle width="130" height="40" as="alternateBounds" />
          </mxGeometry>
        </mxCell>
        <mxCell id="wawASpPagILhCwxSG9ba-249" value="logic_start" style="shape=partialRectangle;html=1;whiteSpace=wrap;connectable=0;strokeColor=inherit;overflow=hidden;fillColor=none;top=0;left=0;bottom=0;right=0;pointerEvents=1;" parent="wawASpPagILhCwxSG9ba-247" vertex="1">
          <mxGeometry x="130" width="140" height="40" as="geometry">
            <mxRectangle width="140" height="40" as="alternateBounds" />
          </mxGeometry>
        </mxCell>
        <mxCell id="wawASpPagILhCwxSG9ba-250" style="shape=tableRow;horizontal=0;startSize=0;swimlaneHead=0;swimlaneBody=0;strokeColor=inherit;top=0;left=0;bottom=0;right=0;collapsible=0;dropTarget=0;fillColor=none;points=[[0,0.5],[1,0.5]];portConstraint=eastwest;" parent="wawASpPagILhCwxSG9ba-214" vertex="1">
          <mxGeometry y="190" width="270" height="40" as="geometry" />
        </mxCell>
        <mxCell id="wawASpPagILhCwxSG9ba-251" value="fill_drawer_ready" style="shape=partialRectangle;html=1;whiteSpace=wrap;connectable=0;strokeColor=inherit;overflow=hidden;fillColor=none;top=0;left=0;bottom=0;right=0;pointerEvents=1;" parent="wawASpPagILhCwxSG9ba-250" vertex="1">
          <mxGeometry width="130" height="40" as="geometry">
            <mxRectangle width="130" height="40" as="alternateBounds" />
          </mxGeometry>
        </mxCell>
        <mxCell id="wawASpPagILhCwxSG9ba-252" value="[9:0] symbol_drawer_x" style="shape=partialRectangle;html=1;whiteSpace=wrap;connectable=0;strokeColor=inherit;overflow=hidden;fillColor=none;top=0;left=0;bottom=0;right=0;pointerEvents=1;" parent="wawASpPagILhCwxSG9ba-250" vertex="1">
          <mxGeometry x="130" width="140" height="40" as="geometry">
            <mxRectangle width="140" height="40" as="alternateBounds" />
          </mxGeometry>
        </mxCell>
        <mxCell id="wawASpPagILhCwxSG9ba-289" style="shape=tableRow;horizontal=0;startSize=0;swimlaneHead=0;swimlaneBody=0;strokeColor=inherit;top=0;left=0;bottom=0;right=0;collapsible=0;dropTarget=0;fillColor=none;points=[[0,0.5],[1,0.5]];portConstraint=eastwest;" parent="wawASpPagILhCwxSG9ba-214" vertex="1">
          <mxGeometry y="230" width="270" height="40" as="geometry" />
        </mxCell>
        <mxCell id="wawASpPagILhCwxSG9ba-290" value="logic_symbol_iter_start" style="shape=partialRectangle;html=1;whiteSpace=wrap;connectable=0;strokeColor=inherit;overflow=hidden;fillColor=none;top=0;left=0;bottom=0;right=0;pointerEvents=1;" parent="wawASpPagILhCwxSG9ba-289" vertex="1">
          <mxGeometry width="130" height="40" as="geometry">
            <mxRectangle width="130" height="40" as="alternateBounds" />
          </mxGeometry>
        </mxCell>
        <mxCell id="wawASpPagILhCwxSG9ba-291" value="[8:0] symbol_drawer_y" style="shape=partialRectangle;html=1;whiteSpace=wrap;connectable=0;strokeColor=inherit;overflow=hidden;fillColor=none;top=0;left=0;bottom=0;right=0;pointerEvents=1;" parent="wawASpPagILhCwxSG9ba-289" vertex="1">
          <mxGeometry x="130" width="140" height="40" as="geometry">
            <mxRectangle width="140" height="40" as="alternateBounds" />
          </mxGeometry>
        </mxCell>
        <mxCell id="wawASpPagILhCwxSG9ba-292" style="shape=tableRow;horizontal=0;startSize=0;swimlaneHead=0;swimlaneBody=0;strokeColor=inherit;top=0;left=0;bottom=0;right=0;collapsible=0;dropTarget=0;fillColor=none;points=[[0,0.5],[1,0.5]];portConstraint=eastwest;" parent="wawASpPagILhCwxSG9ba-214" vertex="1">
          <mxGeometry y="270" width="270" height="40" as="geometry" />
        </mxCell>
        <mxCell id="wawASpPagILhCwxSG9ba-293" value="logic_symbol_iter_en" style="shape=partialRectangle;html=1;whiteSpace=wrap;connectable=0;strokeColor=inherit;overflow=hidden;fillColor=none;top=0;left=0;bottom=0;right=0;pointerEvents=1;" parent="wawASpPagILhCwxSG9ba-292" vertex="1">
          <mxGeometry width="130" height="40" as="geometry">
            <mxRectangle width="130" height="40" as="alternateBounds" />
          </mxGeometry>
        </mxCell>
        <mxCell id="wawASpPagILhCwxSG9ba-294" value="symbol_drawer_start" style="shape=partialRectangle;html=1;whiteSpace=wrap;connectable=0;strokeColor=inherit;overflow=hidden;fillColor=none;top=0;left=0;bottom=0;right=0;pointerEvents=1;" parent="wawASpPagILhCwxSG9ba-292" vertex="1">
          <mxGeometry x="130" width="140" height="40" as="geometry">
            <mxRectangle width="140" height="40" as="alternateBounds" />
          </mxGeometry>
        </mxCell>
        <mxCell id="wawASpPagILhCwxSG9ba-298" style="shape=tableRow;horizontal=0;startSize=0;swimlaneHead=0;swimlaneBody=0;strokeColor=inherit;top=0;left=0;bottom=0;right=0;collapsible=0;dropTarget=0;fillColor=none;points=[[0,0.5],[1,0.5]];portConstraint=eastwest;" parent="wawASpPagILhCwxSG9ba-214" vertex="1">
          <mxGeometry y="310" width="270" height="40" as="geometry" />
        </mxCell>
        <mxCell id="wawASpPagILhCwxSG9ba-299" value="logic_ready" style="shape=partialRectangle;html=1;whiteSpace=wrap;connectable=0;strokeColor=inherit;overflow=hidden;fillColor=none;top=0;left=0;bottom=0;right=0;pointerEvents=1;" parent="wawASpPagILhCwxSG9ba-298" vertex="1">
          <mxGeometry width="130" height="40" as="geometry">
            <mxRectangle width="130" height="40" as="alternateBounds" />
          </mxGeometry>
        </mxCell>
        <mxCell id="wawASpPagILhCwxSG9ba-300" value="fill_drawer_start" style="shape=partialRectangle;html=1;whiteSpace=wrap;connectable=0;strokeColor=inherit;overflow=hidden;fillColor=none;top=0;left=0;bottom=0;right=0;pointerEvents=1;" parent="wawASpPagILhCwxSG9ba-298" vertex="1">
          <mxGeometry x="130" width="140" height="40" as="geometry">
            <mxRectangle width="140" height="40" as="alternateBounds" />
          </mxGeometry>
        </mxCell>
        <mxCell id="wawASpPagILhCwxSG9ba-227" style="edgeStyle=orthogonalEdgeStyle;rounded=0;orthogonalLoop=1;jettySize=auto;html=1;exitX=1;exitY=0.5;exitDx=0;exitDy=0;entryX=0;entryY=0.5;entryDx=0;entryDy=0;jumpStyle=gap;" parent="1" source="wawASpPagILhCwxSG9ba-89" target="wawASpPagILhCwxSG9ba-195" edge="1">
          <mxGeometry relative="1" as="geometry">
            <Array as="points">
              <mxPoint x="580" y="420" />
              <mxPoint x="580" y="670" />
            </Array>
          </mxGeometry>
        </mxCell>
        <mxCell id="wawASpPagILhCwxSG9ba-228" style="edgeStyle=orthogonalEdgeStyle;rounded=0;orthogonalLoop=1;jettySize=auto;html=1;exitX=1;exitY=0.5;exitDx=0;exitDy=0;entryX=0;entryY=0.5;entryDx=0;entryDy=0;jumpStyle=gap;" parent="1" source="wawASpPagILhCwxSG9ba-158" target="wawASpPagILhCwxSG9ba-144" edge="1">
          <mxGeometry relative="1" as="geometry">
            <Array as="points">
              <mxPoint x="1310" y="180" />
              <mxPoint x="1310" y="100" />
              <mxPoint x="660" y="100" />
              <mxPoint x="660" y="260" />
            </Array>
          </mxGeometry>
        </mxCell>
        <mxCell id="wawASpPagILhCwxSG9ba-238" style="edgeStyle=orthogonalEdgeStyle;rounded=0;orthogonalLoop=1;jettySize=auto;html=1;exitX=1;exitY=0.5;exitDx=0;exitDy=0;entryX=0;entryY=0.5;entryDx=0;entryDy=0;jumpStyle=gap;" parent="1" source="wawASpPagILhCwxSG9ba-167" target="wawASpPagILhCwxSG9ba-176" edge="1">
          <mxGeometry relative="1" as="geometry" />
        </mxCell>
        <mxCell id="wawASpPagILhCwxSG9ba-239" style="edgeStyle=orthogonalEdgeStyle;rounded=0;orthogonalLoop=1;jettySize=auto;html=1;exitX=1;exitY=0.5;exitDx=0;exitDy=0;entryX=0;entryY=0.5;entryDx=0;entryDy=0;jumpStyle=gap;" parent="1" source="wawASpPagILhCwxSG9ba-141" target="wawASpPagILhCwxSG9ba-161" edge="1">
          <mxGeometry relative="1" as="geometry" />
        </mxCell>
        <mxCell id="wawASpPagILhCwxSG9ba-240" style="edgeStyle=orthogonalEdgeStyle;rounded=0;orthogonalLoop=1;jettySize=auto;html=1;exitX=1;exitY=0.5;exitDx=0;exitDy=0;entryX=0;entryY=0.5;entryDx=0;entryDy=0;jumpStyle=gap;" parent="1" source="wawASpPagILhCwxSG9ba-144" target="wawASpPagILhCwxSG9ba-164" edge="1">
          <mxGeometry relative="1" as="geometry" />
        </mxCell>
        <mxCell id="wawASpPagILhCwxSG9ba-241" style="edgeStyle=orthogonalEdgeStyle;rounded=0;orthogonalLoop=1;jettySize=auto;html=1;exitX=1;exitY=0.5;exitDx=0;exitDy=0;entryX=0;entryY=0.5;entryDx=0;entryDy=0;jumpStyle=gap;" parent="1" source="wawASpPagILhCwxSG9ba-147" target="wawASpPagILhCwxSG9ba-170" edge="1">
          <mxGeometry relative="1" as="geometry" />
        </mxCell>
        <mxCell id="wawASpPagILhCwxSG9ba-242" style="edgeStyle=orthogonalEdgeStyle;rounded=0;orthogonalLoop=1;jettySize=auto;html=1;exitX=1;exitY=0.5;exitDx=0;exitDy=0;entryX=0;entryY=0.5;entryDx=0;entryDy=0;jumpStyle=gap;" parent="1" source="wawASpPagILhCwxSG9ba-150" target="wawASpPagILhCwxSG9ba-173" edge="1">
          <mxGeometry relative="1" as="geometry" />
        </mxCell>
        <mxCell id="wawASpPagILhCwxSG9ba-244" style="edgeStyle=orthogonalEdgeStyle;rounded=0;orthogonalLoop=1;jettySize=auto;html=1;exitX=1;exitY=0.5;exitDx=0;exitDy=0;entryX=0;entryY=0.5;entryDx=0;entryDy=0;jumpStyle=gap;" parent="1" source="wawASpPagILhCwxSG9ba-215" target="wawASpPagILhCwxSG9ba-98" edge="1">
          <mxGeometry relative="1" as="geometry">
            <Array as="points">
              <mxPoint x="200" y="880" />
              <mxPoint x="200" y="540" />
            </Array>
          </mxGeometry>
        </mxCell>
        <mxCell id="wawASpPagILhCwxSG9ba-245" style="edgeStyle=orthogonalEdgeStyle;rounded=0;orthogonalLoop=1;jettySize=auto;html=1;exitX=1;exitY=0.5;exitDx=0;exitDy=0;entryX=0;entryY=0.5;entryDx=0;entryDy=0;jumpStyle=gap;" parent="1" source="wawASpPagILhCwxSG9ba-218" target="wawASpPagILhCwxSG9ba-101" edge="1">
          <mxGeometry relative="1" as="geometry">
            <Array as="points">
              <mxPoint x="230" y="920" />
              <mxPoint x="230" y="580" />
            </Array>
          </mxGeometry>
        </mxCell>
        <mxCell id="wawASpPagILhCwxSG9ba-246" style="edgeStyle=orthogonalEdgeStyle;rounded=0;orthogonalLoop=1;jettySize=auto;html=1;exitX=1;exitY=0.5;exitDx=0;exitDy=0;entryX=0;entryY=0.5;entryDx=0;entryDy=0;jumpStyle=gap;" parent="1" source="wawASpPagILhCwxSG9ba-83" target="wawASpPagILhCwxSG9ba-192" edge="1">
          <mxGeometry relative="1" as="geometry">
            <Array as="points">
              <mxPoint x="610" y="340" />
              <mxPoint x="610" y="630" />
            </Array>
          </mxGeometry>
        </mxCell>
        <mxCell id="wawASpPagILhCwxSG9ba-253" style="edgeStyle=orthogonalEdgeStyle;rounded=0;orthogonalLoop=1;jettySize=auto;html=1;exitX=1;exitY=0.5;exitDx=0;exitDy=0;jumpStyle=gap;entryX=0;entryY=0.5;entryDx=0;entryDy=0;" parent="1" source="wawASpPagILhCwxSG9ba-133" target="wawASpPagILhCwxSG9ba-221" edge="1">
          <mxGeometry relative="1" as="geometry">
            <mxPoint x="-150" y="960" as="targetPoint" />
            <Array as="points">
              <mxPoint x="2130" y="380" />
              <mxPoint x="2130" y="1330" />
              <mxPoint x="-250" y="1330" />
              <mxPoint x="-250" y="960" />
            </Array>
          </mxGeometry>
        </mxCell>
        <mxCell id="wawASpPagILhCwxSG9ba-254" style="edgeStyle=orthogonalEdgeStyle;rounded=0;orthogonalLoop=1;jettySize=auto;html=1;entryX=0;entryY=0.5;entryDx=0;entryDy=0;jumpStyle=gap;exitX=1;exitY=0.5;exitDx=0;exitDy=0;" parent="1" source="wawASpPagILhCwxSG9ba-247" target="wawASpPagILhCwxSG9ba-147" edge="1">
          <mxGeometry relative="1" as="geometry">
            <mxPoint x="290" y="1020" as="sourcePoint" />
            <Array as="points">
              <mxPoint x="660" y="1000" />
              <mxPoint x="660" y="300" />
            </Array>
          </mxGeometry>
        </mxCell>
        <mxCell id="wawASpPagILhCwxSG9ba-255" value="fill_drawer" style="shape=table;startSize=30;container=1;collapsible=0;childLayout=tableLayout;" parent="1" vertex="1">
          <mxGeometry x="1080" y="1070" width="200" height="190" as="geometry" />
        </mxCell>
        <mxCell id="wawASpPagILhCwxSG9ba-256" value="" style="shape=tableRow;horizontal=0;startSize=0;swimlaneHead=0;swimlaneBody=0;strokeColor=inherit;top=0;left=0;bottom=0;right=0;collapsible=0;dropTarget=0;fillColor=none;points=[[0,0.5],[1,0.5]];portConstraint=eastwest;" parent="wawASpPagILhCwxSG9ba-255" vertex="1">
          <mxGeometry y="30" width="200" height="40" as="geometry" />
        </mxCell>
        <mxCell id="wawASpPagILhCwxSG9ba-257" value="clk" style="shape=partialRectangle;html=1;whiteSpace=wrap;connectable=0;strokeColor=inherit;overflow=hidden;fillColor=none;top=0;left=0;bottom=0;right=0;pointerEvents=1;" parent="wawASpPagILhCwxSG9ba-256" vertex="1">
          <mxGeometry width="60" height="40" as="geometry">
            <mxRectangle width="60" height="40" as="alternateBounds" />
          </mxGeometry>
        </mxCell>
        <mxCell id="wawASpPagILhCwxSG9ba-258" value="ready" style="shape=partialRectangle;html=1;whiteSpace=wrap;connectable=0;strokeColor=inherit;overflow=hidden;fillColor=none;top=0;left=0;bottom=0;right=0;pointerEvents=1;" parent="wawASpPagILhCwxSG9ba-256" vertex="1">
          <mxGeometry x="60" width="140" height="40" as="geometry">
            <mxRectangle width="140" height="40" as="alternateBounds" />
          </mxGeometry>
        </mxCell>
        <mxCell id="wawASpPagILhCwxSG9ba-259" value="" style="shape=tableRow;horizontal=0;startSize=0;swimlaneHead=0;swimlaneBody=0;strokeColor=inherit;top=0;left=0;bottom=0;right=0;collapsible=0;dropTarget=0;fillColor=none;points=[[0,0.5],[1,0.5]];portConstraint=eastwest;" parent="wawASpPagILhCwxSG9ba-255" vertex="1">
          <mxGeometry y="70" width="200" height="40" as="geometry" />
        </mxCell>
        <mxCell id="wawASpPagILhCwxSG9ba-260" value="start" style="shape=partialRectangle;html=1;whiteSpace=wrap;connectable=0;strokeColor=inherit;overflow=hidden;fillColor=none;top=0;left=0;bottom=0;right=0;pointerEvents=1;" parent="wawASpPagILhCwxSG9ba-259" vertex="1">
          <mxGeometry width="60" height="40" as="geometry">
            <mxRectangle width="60" height="40" as="alternateBounds" />
          </mxGeometry>
        </mxCell>
        <mxCell id="wawASpPagILhCwxSG9ba-261" value="write_enable" style="shape=partialRectangle;html=1;whiteSpace=wrap;connectable=0;strokeColor=inherit;overflow=hidden;fillColor=none;top=0;left=0;bottom=0;right=0;pointerEvents=1;" parent="wawASpPagILhCwxSG9ba-259" vertex="1">
          <mxGeometry x="60" width="140" height="40" as="geometry">
            <mxRectangle width="140" height="40" as="alternateBounds" />
          </mxGeometry>
        </mxCell>
        <mxCell id="wawASpPagILhCwxSG9ba-262" value="" style="shape=tableRow;horizontal=0;startSize=0;swimlaneHead=0;swimlaneBody=0;strokeColor=inherit;top=0;left=0;bottom=0;right=0;collapsible=0;dropTarget=0;fillColor=none;points=[[0,0.5],[1,0.5]];portConstraint=eastwest;" parent="wawASpPagILhCwxSG9ba-255" vertex="1">
          <mxGeometry y="110" width="200" height="40" as="geometry" />
        </mxCell>
        <mxCell id="wawASpPagILhCwxSG9ba-263" value="" style="shape=partialRectangle;html=1;whiteSpace=wrap;connectable=0;strokeColor=inherit;overflow=hidden;fillColor=none;top=0;left=0;bottom=0;right=0;pointerEvents=1;" parent="wawASpPagILhCwxSG9ba-262" vertex="1">
          <mxGeometry width="60" height="40" as="geometry">
            <mxRectangle width="60" height="40" as="alternateBounds" />
          </mxGeometry>
        </mxCell>
        <mxCell id="wawASpPagILhCwxSG9ba-264" value="[18:0] write_addr" style="shape=partialRectangle;html=1;whiteSpace=wrap;connectable=0;strokeColor=inherit;overflow=hidden;fillColor=none;top=0;left=0;bottom=0;right=0;pointerEvents=1;" parent="wawASpPagILhCwxSG9ba-262" vertex="1">
          <mxGeometry x="60" width="140" height="40" as="geometry">
            <mxRectangle width="140" height="40" as="alternateBounds" />
          </mxGeometry>
        </mxCell>
        <mxCell id="wawASpPagILhCwxSG9ba-265" style="shape=tableRow;horizontal=0;startSize=0;swimlaneHead=0;swimlaneBody=0;strokeColor=inherit;top=0;left=0;bottom=0;right=0;collapsible=0;dropTarget=0;fillColor=none;points=[[0,0.5],[1,0.5]];portConstraint=eastwest;" parent="wawASpPagILhCwxSG9ba-255" vertex="1">
          <mxGeometry y="150" width="200" height="40" as="geometry" />
        </mxCell>
        <mxCell id="wawASpPagILhCwxSG9ba-266" style="shape=partialRectangle;html=1;whiteSpace=wrap;connectable=0;strokeColor=inherit;overflow=hidden;fillColor=none;top=0;left=0;bottom=0;right=0;pointerEvents=1;" parent="wawASpPagILhCwxSG9ba-265" vertex="1">
          <mxGeometry width="60" height="40" as="geometry">
            <mxRectangle width="60" height="40" as="alternateBounds" />
          </mxGeometry>
        </mxCell>
        <mxCell id="wawASpPagILhCwxSG9ba-267" value="write_data" style="shape=partialRectangle;html=1;whiteSpace=wrap;connectable=0;strokeColor=inherit;overflow=hidden;fillColor=none;top=0;left=0;bottom=0;right=0;pointerEvents=1;" parent="wawASpPagILhCwxSG9ba-265" vertex="1">
          <mxGeometry x="60" width="140" height="40" as="geometry">
            <mxRectangle width="140" height="40" as="alternateBounds" />
          </mxGeometry>
        </mxCell>
        <mxCell id="wawASpPagILhCwxSG9ba-274" style="edgeStyle=orthogonalEdgeStyle;rounded=0;orthogonalLoop=1;jettySize=auto;html=1;exitX=1;exitY=0.5;exitDx=0;exitDy=0;entryX=0;entryY=0.5;entryDx=0;entryDy=0;jumpStyle=gap;" parent="1" source="wawASpPagILhCwxSG9ba-161" target="wawASpPagILhCwxSG9ba-115" edge="1">
          <mxGeometry relative="1" as="geometry">
            <Array as="points">
              <mxPoint x="1664" y="220" />
            </Array>
          </mxGeometry>
        </mxCell>
        <mxCell id="wawASpPagILhCwxSG9ba-276" style="edgeStyle=orthogonalEdgeStyle;rounded=0;orthogonalLoop=1;jettySize=auto;html=1;exitX=1;exitY=0.5;exitDx=0;exitDy=0;entryX=0;entryY=0.5;entryDx=0;entryDy=0;jumpStyle=gap;" parent="1" source="wawASpPagILhCwxSG9ba-186" target="wawASpPagILhCwxSG9ba-115" edge="1">
          <mxGeometry relative="1" as="geometry">
            <Array as="points">
              <mxPoint x="1350" y="550" />
              <mxPoint x="1350" y="220" />
            </Array>
          </mxGeometry>
        </mxCell>
        <mxCell id="wawASpPagILhCwxSG9ba-277" style="edgeStyle=orthogonalEdgeStyle;rounded=0;orthogonalLoop=1;jettySize=auto;html=1;exitX=1;exitY=0.5;exitDx=0;exitDy=0;entryX=0;entryY=0.5;entryDx=0;entryDy=0;jumpStyle=gap;" parent="1" source="wawASpPagILhCwxSG9ba-259" target="wawASpPagILhCwxSG9ba-115" edge="1">
          <mxGeometry relative="1" as="geometry">
            <Array as="points">
              <mxPoint x="1350" y="860" />
              <mxPoint x="1350" y="220" />
              <mxPoint x="1664" y="220" />
            </Array>
          </mxGeometry>
        </mxCell>
        <mxCell id="wawASpPagILhCwxSG9ba-284" value="OR" style="edgeLabel;html=1;align=center;verticalAlign=middle;resizable=0;points=[];" parent="wawASpPagILhCwxSG9ba-277" vertex="1" connectable="0">
          <mxGeometry x="0.9768" y="2" relative="1" as="geometry">
            <mxPoint x="-24" y="2" as="offset" />
          </mxGeometry>
        </mxCell>
        <mxCell id="wawASpPagILhCwxSG9ba-278" style="edgeStyle=orthogonalEdgeStyle;rounded=0;orthogonalLoop=1;jettySize=auto;html=1;exitX=1;exitY=0.5;exitDx=0;exitDy=0;entryX=0;entryY=0.5;entryDx=0;entryDy=0;jumpStyle=gap;" parent="1" source="wawASpPagILhCwxSG9ba-164" target="wawASpPagILhCwxSG9ba-118" edge="1">
          <mxGeometry relative="1" as="geometry">
            <Array as="points">
              <mxPoint x="1640" y="260" />
              <mxPoint x="1640" y="260" />
            </Array>
          </mxGeometry>
        </mxCell>
        <mxCell id="wawASpPagILhCwxSG9ba-279" style="edgeStyle=orthogonalEdgeStyle;rounded=0;orthogonalLoop=1;jettySize=auto;html=1;exitX=1;exitY=0.5;exitDx=0;exitDy=0;entryX=0;entryY=0.5;entryDx=0;entryDy=0;jumpStyle=gap;" parent="1" source="wawASpPagILhCwxSG9ba-189" target="wawASpPagILhCwxSG9ba-118" edge="1">
          <mxGeometry relative="1" as="geometry">
            <Array as="points">
              <mxPoint x="1380" y="590" />
              <mxPoint x="1380" y="260" />
            </Array>
          </mxGeometry>
        </mxCell>
        <mxCell id="wawASpPagILhCwxSG9ba-280" style="edgeStyle=orthogonalEdgeStyle;rounded=0;orthogonalLoop=1;jettySize=auto;html=1;exitX=1;exitY=0.5;exitDx=0;exitDy=0;entryX=0;entryY=0.5;entryDx=0;entryDy=0;jumpStyle=gap;" parent="1" source="wawASpPagILhCwxSG9ba-262" target="wawASpPagILhCwxSG9ba-118" edge="1">
          <mxGeometry relative="1" as="geometry">
            <Array as="points">
              <mxPoint x="1380" y="1200" />
              <mxPoint x="1380" y="260" />
            </Array>
          </mxGeometry>
        </mxCell>
        <mxCell id="wawASpPagILhCwxSG9ba-285" value="OR" style="edgeLabel;html=1;align=center;verticalAlign=middle;resizable=0;points=[];" parent="wawASpPagILhCwxSG9ba-280" vertex="1" connectable="0">
          <mxGeometry x="0.9649" y="1" relative="1" as="geometry">
            <mxPoint x="-17" as="offset" />
          </mxGeometry>
        </mxCell>
        <mxCell id="wawASpPagILhCwxSG9ba-281" style="edgeStyle=orthogonalEdgeStyle;rounded=0;orthogonalLoop=1;jettySize=auto;html=1;exitX=1;exitY=0.5;exitDx=0;exitDy=0;entryX=0;entryY=0.5;entryDx=0;entryDy=0;jumpStyle=gap;" parent="1" source="wawASpPagILhCwxSG9ba-265" target="wawASpPagILhCwxSG9ba-121" edge="1">
          <mxGeometry relative="1" as="geometry">
            <Array as="points">
              <mxPoint x="1410" y="1240" />
              <mxPoint x="1410" y="300" />
            </Array>
          </mxGeometry>
        </mxCell>
        <mxCell id="wawASpPagILhCwxSG9ba-282" style="edgeStyle=orthogonalEdgeStyle;rounded=0;orthogonalLoop=1;jettySize=auto;html=1;exitX=1;exitY=0.5;exitDx=0;exitDy=0;entryX=0;entryY=0.5;entryDx=0;entryDy=0;jumpStyle=gap;" parent="1" source="wawASpPagILhCwxSG9ba-192" target="wawASpPagILhCwxSG9ba-121" edge="1">
          <mxGeometry relative="1" as="geometry">
            <Array as="points">
              <mxPoint x="1410" y="630" />
              <mxPoint x="1410" y="300" />
            </Array>
          </mxGeometry>
        </mxCell>
        <mxCell id="wawASpPagILhCwxSG9ba-283" style="edgeStyle=orthogonalEdgeStyle;rounded=0;orthogonalLoop=1;jettySize=auto;html=1;exitX=1;exitY=0.5;exitDx=0;exitDy=0;entryX=0;entryY=0.5;entryDx=0;entryDy=0;jumpStyle=gap;" parent="1" source="wawASpPagILhCwxSG9ba-170" edge="1">
          <mxGeometry relative="1" as="geometry">
            <Array as="points" />
            <mxPoint x="1250" y="299.8" as="sourcePoint" />
            <mxPoint x="1660" y="299.8" as="targetPoint" />
          </mxGeometry>
        </mxCell>
        <mxCell id="wawASpPagILhCwxSG9ba-286" value="OR" style="edgeLabel;html=1;align=center;verticalAlign=middle;resizable=0;points=[];" parent="wawASpPagILhCwxSG9ba-283" vertex="1" connectable="0">
          <mxGeometry x="0.9417" y="1" relative="1" as="geometry">
            <mxPoint x="7" y="1" as="offset" />
          </mxGeometry>
        </mxCell>
        <mxCell id="wawASpPagILhCwxSG9ba-287" style="edgeStyle=orthogonalEdgeStyle;rounded=0;orthogonalLoop=1;jettySize=auto;html=1;exitX=1;exitY=0.5;exitDx=0;exitDy=0;entryX=0;entryY=0.5;entryDx=0;entryDy=0;jumpStyle=gap;" parent="1" source="wawASpPagILhCwxSG9ba-250" target="wawASpPagILhCwxSG9ba-186" edge="1">
          <mxGeometry relative="1" as="geometry">
            <Array as="points">
              <mxPoint x="880" y="1040" />
              <mxPoint x="880" y="550" />
            </Array>
          </mxGeometry>
        </mxCell>
        <mxCell id="wawASpPagILhCwxSG9ba-288" style="edgeStyle=orthogonalEdgeStyle;rounded=0;orthogonalLoop=1;jettySize=auto;html=1;exitX=1;exitY=0.5;exitDx=0;exitDy=0;entryX=0;entryY=0.5;entryDx=0;entryDy=0;jumpStyle=gap;" parent="1" source="wawASpPagILhCwxSG9ba-289" target="wawASpPagILhCwxSG9ba-189" edge="1">
          <mxGeometry relative="1" as="geometry">
            <Array as="points">
              <mxPoint x="910" y="1080" />
              <mxPoint x="910" y="590" />
            </Array>
          </mxGeometry>
        </mxCell>
        <mxCell id="wawASpPagILhCwxSG9ba-295" style="edgeStyle=orthogonalEdgeStyle;rounded=0;orthogonalLoop=1;jettySize=auto;html=1;exitX=1;exitY=0.5;exitDx=0;exitDy=0;entryX=0;entryY=0.5;entryDx=0;entryDy=0;jumpStyle=gap;" parent="1" source="wawASpPagILhCwxSG9ba-298" target="wawASpPagILhCwxSG9ba-259" edge="1">
          <mxGeometry relative="1" as="geometry">
            <Array as="points">
              <mxPoint x="1080" y="1160" />
            </Array>
          </mxGeometry>
        </mxCell>
        <mxCell id="wawASpPagILhCwxSG9ba-296" style="edgeStyle=orthogonalEdgeStyle;rounded=0;orthogonalLoop=1;jettySize=auto;html=1;exitX=1;exitY=0.5;exitDx=0;exitDy=0;entryX=0;entryY=0.5;entryDx=0;entryDy=0;jumpStyle=gap;" parent="1" source="wawASpPagILhCwxSG9ba-256" target="wawASpPagILhCwxSG9ba-250" edge="1">
          <mxGeometry relative="1" as="geometry">
            <Array as="points">
              <mxPoint x="1310" y="1120" />
              <mxPoint x="1310" y="1300" />
              <mxPoint x="-220" y="1300" />
              <mxPoint x="-220" y="1040" />
            </Array>
          </mxGeometry>
        </mxCell>
        <mxCell id="wawASpPagILhCwxSG9ba-297" style="edgeStyle=orthogonalEdgeStyle;rounded=0;orthogonalLoop=1;jettySize=auto;html=1;exitX=1;exitY=0.5;exitDx=0;exitDy=0;entryX=0;entryY=0.5;entryDx=0;entryDy=0;jumpStyle=gap;" parent="1" source="wawASpPagILhCwxSG9ba-292" target="lt0cO0rgXMRksFK3DKkX-1" edge="1">
          <mxGeometry relative="1" as="geometry">
            <Array as="points">
              <mxPoint x="1020" y="1120" />
              <mxPoint x="1020" y="750" />
            </Array>
          </mxGeometry>
        </mxCell>
        <mxCell id="wawASpPagILhCwxSG9ba-301" style="edgeStyle=orthogonalEdgeStyle;rounded=0;orthogonalLoop=1;jettySize=auto;html=1;exitX=1;exitY=0.5;exitDx=0;exitDy=0;entryX=0;entryY=0.5;entryDx=0;entryDy=0;jumpStyle=gap;" parent="1" source="wawASpPagILhCwxSG9ba-221" target="wawASpPagILhCwxSG9ba-104" edge="1">
          <mxGeometry relative="1" as="geometry">
            <Array as="points">
              <mxPoint x="260" y="960" />
              <mxPoint x="260" y="620" />
            </Array>
          </mxGeometry>
        </mxCell>
        <mxCell id="wawASpPagILhCwxSG9ba-302" style="edgeStyle=orthogonalEdgeStyle;rounded=0;orthogonalLoop=1;jettySize=auto;html=1;exitX=1;exitY=0.5;exitDx=0;exitDy=0;entryX=0;entryY=0.5;entryDx=0;entryDy=0;jumpStyle=gap;" parent="1" source="wawASpPagILhCwxSG9ba-86" target="wawASpPagILhCwxSG9ba-218" edge="1">
          <mxGeometry relative="1" as="geometry">
            <Array as="points">
              <mxPoint x="520" y="380" />
              <mxPoint x="520" y="260" />
              <mxPoint x="-130" y="260" />
              <mxPoint x="-130" y="920" />
            </Array>
          </mxGeometry>
        </mxCell>
        <mxCell id="wawASpPagILhCwxSG9ba-303" style="edgeStyle=orthogonalEdgeStyle;rounded=0;orthogonalLoop=1;jettySize=auto;html=1;exitX=1;exitY=0.5;exitDx=0;exitDy=0;entryX=0;entryY=0.5;entryDx=0;entryDy=0;jumpStyle=gap;" parent="1" source="wawASpPagILhCwxSG9ba-183" target="wawASpPagILhCwxSG9ba-247" edge="1">
          <mxGeometry relative="1" as="geometry">
            <Array as="points">
              <mxPoint x="1310" y="510" />
              <mxPoint x="1310" y="800" />
              <mxPoint x="-160" y="800" />
              <mxPoint x="-160" y="1000" />
            </Array>
          </mxGeometry>
        </mxCell>
        <mxCell id="wawASpPagILhCwxSG9ba-304" value="clk" style="ellipse;whiteSpace=wrap;html=1;" parent="1" vertex="1">
          <mxGeometry x="-620" y="400" width="40" height="40" as="geometry" />
        </mxCell>
        <mxCell id="wawASpPagILhCwxSG9ba-305" style="edgeStyle=orthogonalEdgeStyle;rounded=0;orthogonalLoop=1;jettySize=auto;html=1;exitX=1;exitY=0.5;exitDx=0;exitDy=0;entryX=0;entryY=0.5;entryDx=0;entryDy=0;jumpStyle=gap;" parent="1" source="wawASpPagILhCwxSG9ba-51" target="wawASpPagILhCwxSG9ba-304" edge="1">
          <mxGeometry relative="1" as="geometry" />
        </mxCell>
        <mxCell id="cJzb_HQXO194d4CzHGgO-4" style="edgeStyle=orthogonalEdgeStyle;rounded=0;orthogonalLoop=1;jettySize=auto;html=1;exitX=1;exitY=0.5;exitDx=0;exitDy=0;entryX=0;entryY=0.5;entryDx=0;entryDy=0;jumpStyle=gap;" parent="1" source="-I-AIGW35sh0JRv_y47P-1" target="wawASpPagILhCwxSG9ba-298" edge="1">
          <mxGeometry relative="1" as="geometry">
            <Array as="points">
              <mxPoint x="940" y="500" />
              <mxPoint x="940" y="1210" />
              <mxPoint x="-130" y="1210" />
              <mxPoint x="-130" y="1160" />
            </Array>
          </mxGeometry>
        </mxCell>
        <mxCell id="O48ufWLDJa71DFLYfbTo-1" value="" style="shape=image;verticalLabelPosition=bottom;labelBackgroundColor=default;verticalAlign=top;aspect=fixed;imageAspect=0;image=data:image/png,iVBORw0KGgoAAAANSUhEUgAABCcAAAKACAYAAACv/BLIAAAACXBIWXMAAA7EAAAOxAGVKw4bAAAgAElEQVR4nOzdeZSU1Z0//k9BgxhXFlEzcQ+KRoPbBNFRMRiNW6IdiFtOEidRIzHGiUscYw4wcRnG6GjEQzRGTxZNjCg6StQYFdQJokES/cYdE3GJKCDghtDQvz/yg6Go6u5anqqnnqrX65w+B2533bpdVc997vPue++T6+zs7AwAAACAlPRKuwEAAABAaxNOAAAAAKkSTgAAAACpEk4AAAAAqRJOAAAAAKkSTgAAAACpEk4AAAAAqRJOAAAAAKkSTgAAAACpEk4AAAAAqRJOAAAAAKkSTgAAAACpEk4AAAAAqRJOAAAAAKkSTgAAAACpEk4AAAAAqRJOAAAAAKkSTgAAAACpEk4AAAAAqRJOAAAAAKkSTgAAAACpEk4AAAAAqRJOAAAAAKkSTgAAAACpEk4AAAAAqRJOAAAAAKkSTgAAAACpEk4AAAAAqRJOAAAAAKkSTgAAAACpEk4AAAAAqRJOAAAAAKkSTgAAAACpEk4AAAAAqRJOAAAAAKkSTgAAAACpEk4AAAAAqRJOAAAAAKkSTgAAAACpEk4AAAAAqRJOAAAAAKlqS7sBAGTfyy+/HLfffnvMnDkznnzyyZg/f34sXbo0evfuHeuvv34MHjw4tt122xg2bFgccMAB8ZnPfCbWW2+9tJudqHfeeSfuuuuuuOeee+LJJ5+MefPmxdKlS6Nv374xYMCAGDp0aOy7777R3t4ew4YNS7u5AAANJdfZ2dmZdiMAyKbp06fHxRdfHPfdd19Zj+vfv388/vjjscMOO9SoZf/n+OOPj1//+tcF5W+//XZsuummVdf/3nvvxcUXXxxXX311LFmypKTHjBw5Mi677LLYc889q35+AIBmIJwAoGxvvPFGnHHGGXHLLbdUXMecOXNi9913T7BVhV544YXYeeedY+XKlQXfSyKcmDVrVhx77LHx8ssvl/3Ytra2uPDCC+O73/1uVW0AAGgGlnUAUJaZM2dGe3t7vPHGG2k3pUcXX3xx0WAiCdOmTYsxY8bEBx98UNHjOzo64rzzzos333wzLrvssoRbBwCQLcIJAEp29913xzHHHBMffvhh0e9vtdVWcdBBB8Uuu+wS/fv3j46Ojli8eHE899xzMWfOnHjqqafq1ta//e1vceONN9ak7kcffbTLYGLjjTeOI488MvbYY4/YdNNNY/HixTF79uy4884747333iv4+csvvzy23377+OY3v1mTtgIAZIFwAoCSPPTQQ9He3l40mDjwwANj3LhxMXLkyMjlcl3WMW/evLj55pvjqquuqmVTIyLi3//932PFihWJ17tkyZI49thjC4KJXr16xbnnnhsXXHBBbLDBBgWPW7RoUZxzzjlx/fXXF3zv7LPPjlGjRsXQoUMTby8AQBbYcwKAHr3++uux5557xvz58/PK11tvvbjqqqvi5JNPLqu+FStWxMqVK6Nfv35JNnONWbNmxYgRI6K7U1yle06MHTs2Jk+enFfW1tYWN998c7S3t/f4+AsvvDC+//3vF5QffvjhMW3atLLbAwDQDIQTAPTo4IMPjvvvvz+vbKONNop77rkn9t1335Ra1bV/+Zd/if/93//t9mcqCSeee+652HXXXaOjoyOv/PLLL49/+7d/K7meY489Nn7zm98UlM+cOTP22WefstoEANAMeqXdAAAa2y9+8YuCYKKtrS3uuOOOhgwmfvOb3+QFE21tya1gvPTSSwuCieHDh8eZZ55ZVj1XXXVVbLjhhgXlkyZNqqp9AABZJZwAoEvLli2L8847r6D8Bz/4QRx00EEptKh7S5cuLZjBcNpppyVS99tvvx033XRTQflFF13U7T4bxQwePLhou2699dZ49913K24jAEBWCScA6NJPfvKTeP311/PKdt999zjnnHNSalH3Lrjggrz2Dhw4MCZMmJBI3VOnTi3YBHOXXXaJUaNGVVTfqaeeWlC2bNmyuPvuuyuqDwAgy4QTABTV2dkZV1xxRUH5f/7nf0bv3r1TaFH3/vjHP8bVV1+dV3bhhRdG//79E6l/ypQpBWUnnHBCxfXtsMMOscceexSU33vvvRXXCQCQVcIJAIr6/e9/Hy+99FJe2R577BGHHnpoSi3qWkdHR5x66qmxatWqNWXDhg0r+y4iXVmxYkXMmDGjoPyoo46qqt5ir+UjjzxSVZ0AAFkknACgqF/+8pcFZaecckoKLenZxRdfHE888cSa/+dyuZg8eXJiMzwee+yxeP/99/PKBg4cGLvttltV9R5wwAEFZc8991wsWbKkqnoBALJGOAFAgZUrV8a0adPyynr16hWjR49OqUVd+/Of/xwXXnhhXtkpp5wSI0aMSOw5HnvssYKyvfbaq+yNMNdVbFlHRMRf/vKXquoFAMga4QQABWbOnBkLFy7MKxs+fHgMGjQopRYVt2LFivjKV74SK1asWFM2ePDguOSSSxJ9nj//+c8FZcOGDau63i222CIGDhxYUP7ss89WXTcAQJYIJwAo8PDDDxeUDR8+PIWWdG/ChAkFwcGVV16Z2CaYqz3zzDMFZUOGDEmk7u23376gbN68eYnUDQCQFcIJAAr84Q9/KChLYqZAkh566KGCGRKf+9zn4rjjjkv8uf72t78VlG233XaJ1L3NNtsUlL3yyiuJ1A0AkBVtaTcAgMYzZ86cgrJi4cTDDz8cd9xxRzz++OPx/PPPx+LFi6OjoyM23njj2HbbbWPvvfeOww47LA4//PDo27dvYu17++2340tf+lLe3Tk23XTT+PGPf5zYc6y2bNmyePPNNwvKt9hii0Tq32yzzQrKFixYkEjdAABZIZwAIM+7774br732WkH5LrvssubfDzzwQHznO98puhdDRMSiRYti0aJF8cQTT8S1114bH/3oR+M//uM/4qSTTopevaqftHfKKacUzC644oorYsstt6y67nUVCyYiiocKlSi2j8fixYsTqRsAICss6wAgz4svvlhQtsEGG8R6660XnZ2dcf7558fBBx/cZTBRzOuvvx5f//rX41Of+lS8/vrrVbXv2muvjSlTpuSVHX300fGVr3ylqnq7smjRoqLlm2yySSL1b7jhhgVlS5cuTaRuAICsEE4AkKdYeLDxxhtHRMS//du/xSWXXBKdnZ0V1T179uwYMWJE0Q0mSzFnzpz49re/nVc2ePDguPbaayuqrxRLliwpKOvdu3f069cvkfqLhRMffvhhInUDAGSFZR0A5Jk/f35B2cYbbxy//OUv48orr8wr79WrV4wYMSIOOOCA+OhHPxqdnZ0xf/78ePTRR2PGjBnR0dFRUNe8efPiyCOPjDlz5qwJPUqxZMmSGDNmTCxbtiyv/Prrr09siUUxxYKCJPfPaGsrPBWvfWtUAIBWIJwAIM/ChQsLypYtWxZnnnnmmv/ncrk48cQT46KLLoqtt966aD0LFiyI8ePHx49//ONYuXJl3vdeeumlOPXUU+NXv/pVye066aSTYu7cuXllZ555ZhxxxBEl11GJYkFBsUChUn369CkoW3ujTwCAVmBZBwB51p2ZEBHx8ssvrwkt+vXrF7/5zW/iF7/4RZfBRMQ/NnqcNGlSTJ06NdZbb72C7//617+ORx99tKQ2TZw4MaZOnZpXtueee8bEiRNLenw11g1WIv4RziSlWBBRLLAAAGhmwgkA8nS330Eul4tbbrklRo8eXXJ9Rx11VFx33XVFv/df//VfPT7+nnvuifPPPz+vbNNNN40pU6YkuryiK8VmSRRbrlKpYjMz6vF7AQA0EuEEACX7zne+E0ceeWTZj/vSl75UdPnFHXfcEW+88UaXj3vhhRfi+OOPz5tdkMvl4he/+EVst912ZbejEsWCguXLlydWf7GZKsU2yQQAaGbCCQDydHVhvMkmm8T3vve9ius9++yzC8pWrVoV06dPL/rz77zzThx99NGxePHivPILLrigooCkUsVej46OjsTuqPHOO+8UlA0YMCCRugEAskI4AUCeru6gMWbMmOjfv3/F9Y4cOTK22WabgvIHH3ywoGzlypVx3HHHxdNPP51XfsQRR8SECRMqbkMluvqdi91itBLrhi8REQMHDkykbgCArBBOAJBno402Klp+2GGHVV33fvvtV1D23HPPFZSdeeaZ8dvf/javbMiQIXHjjTcmuhllKbq6TWmxW65Wolg93W00CgDQjIQTAOTZZJNNipZ//OMfr7ru3XffvaBswYIFef+fNGlSTJo0Ka9sww03jNtvv73LttXSgAEDYoMNNigof/311xOp/7XXXiso23777ROpGwAgK4QTAOTp6sI4iX0Qii1XWH2L0oiId999N84888yCn3n33XfjE5/4RORyuYq+iunfv3/BzxULTyIitt1224KyF198scTfunvF6tlpp50SqRsAICuEEwDk2WmnnYreoWLp0qVV111sP4u178TR0dERK1eurPp5krbLLrsUlD3zzDNV17t06dKCmRO9evWKYcOGVV03AECWCCcAyNPW1hZDhw4tKH/rrbeqrrtYwNHVHheNpNiMitmzZ1dd75w5c6KzszOvbJdddim6jAQAoJkJJwAosNtuuxWUzZkzp+p6191fIiIbmz+OGDGioOyJJ56I9957r6p6Z8yYUVA2atSoquosR6lLYAAAaq0t7QYA0Hj233//uPHGG/PKHnnkkaL7QZTjj3/8Y0HZJz7xiTX/7tOnTxx66KFVPUcx9957b0HZqFGjoq0t/zS4ww47FH38vvvuG/369Ytly5atKVu+fHk88MADcdRRRyXarlr8/sV0FUTkcrmC2RxptGNd9WwTAFB/uU5newDW8eqrr8ZWW22VV7b++uvHa6+9Fv3796+ozlWrVsVHP/rRgltn/upXv4rjjjuu4raWotgF8Ntvvx2bbrppyXV87nOfizvvvDOv7IQTTigIcUr1yiuvxDbbbJN30T1gwIB44403ok+fPhXVWapSAoGkhwdJzMowZAGA5mVZBwAFPvaxj8X++++fV/bBBx/ET3/604rrvOOOOwqCib59+8Zhhx1WcZ31VCxAmTJlSvz973+vqL7JkycXXGx/8YtfbIhgolGf07ITAGhewgkAijrllFMKyi688MKKLsZXrlwZF198cUH5iSeeGJtssklF7au39vb2GDRoUF7Z8uXL48ILLyy7rjfffDMmTZqUV5bL5eKMM86oqo2NKOlAQUABAM1JOAFAUccdd1xst912eWVLliyJr371q7FixYqy6rr44osL9pvo3bt3nH/++VW3s1769esXY8eOLSi/5pprim5s2Z2xY8fGO++8k1fW3t4eO++8c1Vt7EpaG14KEgCAUgknACiqra0tLrnkkoLy3/3ud3HsscfGBx98UFI9P/rRj2LcuHEF5SeddFJ8/OMfr7qd9XT22WfH4MGD88pWrlwZo0ePjieffLKkOs4///y49dZb88r69u0bEydOTKyda0srIBBMAADlEE4A0KVjjz02jjjiiILyqVOnxu677x73339/l4996aWXor29Pb797W8X7K0wdOjQ+O///u/E21trG220UVxxxRUF5QsWLIj99tsvJk+eHB0dHUUf++qrr8aYMWOKBj4XXXRRl3cKqYZgAgDICnfrAKBbixYtin/+53+Ol156qej3d9hhhzj00ENj6623jj59+sTrr78ejzzySDz22GNF766w0UYbxcyZM/NuIVprSdytY23/+q//GjfccEPR722++eZx+OGHx8477xzrr79+LFy4MGbNmhX33Xdf0eDimGOOiVtvvbWh9maoZmhQj2DC0AUAmo9wAoAe/fWvf42RI0fGvHnzqqrnn/7pn2LatGkxbNiwhFpWmqTDiRUrVsTRRx8dv/3tb6tq1yGHHBJ33HFH9OvXr6p61lZtOJBmMLH6uXuqx9AFAJqPZR0A9Gi77baLxx57LA488MCK6zjwwAPj0UcfrXswUQt9+vSJO+64I77xjW9U9PhcLhenn356TJs2LbFgIokNL+sVTHR2dhb9AgBal3ACgJJsvvnm8eCDD8ZPfvKT2HrrrUt+3I477hi33XZbTJ8+PT72sY/VsIX11dbWFpMnT4677747dtttt5Ift99++8X06dPjqquuira2tkTaksRSikrDgXJDESEEAFCMZR0AlK2joyPuueeeuOuuu2L27Nnx0ksvxdKlS6NXr14xYMCAGDJkSAwfPjyOPPLIOOCAA5p+g8TOzs6YMWNGTJ06NWbNmhVz586NJUuWRO/evWPAgAExdOjQGDFiRLS3t8eee+6ZyHMm9ZrWcxlHqc9lWQcAtB7hBABkSFqhRD2XjAgnAKD1WNYBABnRCsEEANCaklnsCgDUTJLLYgQTAEAjEk4AQINKeq+OegcFggkAoFSWdQBAAxJMAACtRDgBAA1GMAEAtBrLOgCggTRSMFGrW4UCAKzLzAkAaFKCCQAgK4QTAEBVBBMAQLWEEwBAxQQTAEAShBMA0EB6utjv7Oxs6kAg6T03AIBsEE4AQIMpFj7UO5Qo5bmSbo9gAgBal7t1AEADqvbCvx5BRi6XS+x5BBMA0NqEEwBAxeodKjTzkhYAaGWWdQAAmSCYAIDmJZwAgIyxBAIAaDbCCQDIkHoGE400U6GR2gIAJE84AQB0qRFCgUZoAwBQW8IJAGgySV/MpxkOCCYAoDUIJwCgidTqYj6NkEAwAQCtI9fpzA8AmdLVvhP1OqXXet8LQxMAaD3CCQDIoHUDAqdzACDL2tJuAABQPmEEANBM7DkBAAAApEo4AQAAAKRKOAEAAACkSjgBAAAApEo4AQAAAKRKOAEAAACkyq1EASBFq1atit/+9rcREXH44YdHr17p/N0gl8sVLXfLUgCgHoQTVG369Okxffr0tJsBkEnPP/98/OpXv4qIiBNOOCGGDBlS9zZMmDChy+/lcrkYN25cHVsDNJORI0fGyJEj024GkAHCCao2ffr0bge2AJTmpptuSrsJRenjgWoIJ4BS2HMCAAAASJWZEyTO9F+ArpUzC6Ee/Wmp7am0LV3V71wBzctsK6ASwgkSNW7cuBg/fnzazQBoSF1tOtmVevSnpV5EVNKW7n7fCRMm2GwTmpiAAiiXcAIAaqzcUAIAoNXYcwIAaiSXy1UVTNQj1KjV7AWBDABQDuEEANRAUhfnWbzIz2KbAYB0CScAIGFJX5zX+mLf3g8AQNqEEwCQoGadNVDq79Wsvz8AUFvCCQBIiAtzAIDKCCcAIAGVBBOdnZ0xbty4GrSmNnra4FM4AwBUSjgBAFWqNJhoJOW0Z93ft9q7kgAAtKXdAADIsnIvyisNJXK5XEMFGsIIACBJZk4AQIXKuUDv7OysOlxw1w4AoFkJJwCgAuUGE1mRpbYCAM1DOAEAZUozmKjHcop6BBRCEABgbcIJAChDLYOJRrpzh/AAAKgn4QQAlKhZl3J0pRl+BwAgG4QTAJCwai7qS3lsPe+UkcRGngAAPRFOAECCmvVCvtTfq5Sfa9bXCACoXFvaDQCAZlHPi+5cLlf3i3yhAgBQK2ZOAECJurs4T/LCXQgAALQa4QQAlKFYcCBMAACojmUdAFCmeoQRnZ2ddd34MilZbDMAkD4zJwAgowQBAECzEE4AAAAAqRJOAAB1Y38OAKAY4QQANKisXchbZgIAVEo4AQANrF63LwUASJNwAgAanNuXAgDNzq1EASADmiGMaIbfAQCoDTMnAAAAgFQJJwCAqtkMEwCohnACAAAASJVwAgAAAEiVcAIAqEopSzpshgkAdEc4AQAAAKRKOAEAAACkSjgBANSUJR0AQE+EEwAAAECqhBMAAABAqoQTAEDFSrlTBwBAT4QTAAAAQKra0m4AAFB/6854sGklAJAmMycAoMUUW4pRq+UZQg8AoBTCCQBoId2FELlcrqyQwn4TAEBSLOsAAPIIHQCAejNzAgAAAEiVcAIAqAn7TQAApRJOAEALqVdgIJgAAMohnACAFlPr4EAwAQCUSzgBAC2oVgGCYAIAqIRwAgBaVNJBgmACAKiUcAIAWlhnZ2cioYJgAgCoRlvaDQAA0idcAADSZOYEAAAAkCrhBAAAAJAq4QQAAACQKuEEAAAAkCrhBAAAAJAq4QQAAACQKuEEAAAAkCrhBAAAAJAq4QQAAACQKuEEAAAAkCrhBAAAAJAq4QQAAACQKuEEAAAAkCrhBAAAAJAq4QQAAACQKuEEAAAAkCrhBAAAAJAq4QQAAACQKuEEAAAAkCrhBAAAAJAq4QQAAACQKuEEAAAAkCrhBAAAAJAq4QQAAACQKuEEAAAAkCrhBAAAAJAq4QQAAACQKuEEAAAAkCrhBAAAAJAq4QQAAACQKuEEAAAAkCrhBAAAAJAq4QQAAFC2XC5X9AugEsIJAACgLN2FEBMmTKhjS4Bm0ZZ2AwAAgGwwMwKoFeEEAABQlDACqBfhBAAkqJqB/IQJE0qaDt3Z2VnxcwCUSjAB1JNwAgASUq+B/NrPI6gAkiaUANIgnACAKqQ9iM/lcgIKIBFp92dAa3O3DgCoQCPdMq9R2gFkU9L92bhx4xKrC2gdwgkAKFMjhgGN2Cag8SXZd3R2dprJBVTMsg4AKIMQAGgWSfVnAgkgCWZOAECJGj2YaPT2AY0jif7CTAkgSWZOAEAJsnLhb4NMoCeV9mf6FqCWzJwAgB5UM5Dv6WvtjePGjRvX5c/Vo71A8xNMAI1KOAEA3WiUgXy5IYWAAkiCpRtAvVjWAQAJqccAvrOzs+TgwRIPYG3lhJb6DqDehBMA0IVSB/L1HsSXG1CsfgzQuhq1PwNYzbIOACii0Qfy9qEASuX4B7JAOAEA68jKQF5AAQA0C+EEAKwla2uyBRRAd7LWpwGtSzgBAP+/rA7iBRRAMVnt04DWJJwAgMj+IF5AAawt630a0HqEEwBQhkYexAsogAjBBJBNwgkAWl6j35mjHAIKaG2CCSCrhBMAUIIsDeI7OzvLaq+AApqDYALIMuEEAC2tmS/MBRQAQFYIJwCgB1n+C2OW2w6UzqwJIOuEEwC0rFaZLVDqhUirvB7QbAQTQDMQTgBAN5plIN8svweQTzABNAvhBAAtySwBoJUIJoBGJ5wAoOU0061Dy1HK7yO0gexo1b4MaE7CCQBaiotvoBkIJoBmI5wAgCJaeUAvwIHG5hgFmpFwAoCW4S+Nzf27QSuwASbQrIQTALQEwQSQdYIJoJkJJwBoeqZA57MxJmSPYAJodsIJAJqaAX3lBBQAQL0IJwBoWoIJoBnoy4BWIJwAoOW14mC+1N/Z7AlIl2ACaBXCCQCakg0we9bKvztkgWACaCXCCQCajmACyDrBBNBqhBMkasKECZHL5br8AqCxuKiBbHMMA82iLe0G0FqSCCichIEk6EtKl8vlvF5QR2Z/Aa3IzAkyxywMoDul9A8G9ECjEkwArUo4QWZZLgKsS39QO15bAKCWhBM0BYNmQD9QOX+BhcZg1gTQyoQTNA2zKIBSGNRXTh8LtSOYAFqdcIKmI6SA1mNQXz2vDaTHuAVAOEETE1IAa3PxDWSdfgxoZsIJEjVu3Ljo7OzM+0qbjTMBSlNKn60vhXQ0wpgKoJba0m4AzS+Jk2lSg+F163Gih+xz61Agy/RhAP9g5gSZUKtZGP4CCNnmGAayTB8G8H+EE2RKLZaLGBhANjl2a8NfaKE+9GEA+YQTZJaAAlpXOcesi+3k6TOhfvRhQKsQTpBpSc6isGkmZINgAmgV+jCglQgnaApCCmgNjk2gGdgEE6CQcIKmIqSA5lXu8WhgXzm3FAUA6s2tRGlKaw+sqx1Ar368Cx1Ij2ACaBaCPYDihBM0vXUvUiodFAgpIB2CCaBZlNqf6ceAVmRZBy2n2hP+6uUe/vIBtVfu5pcG9MmxtAMAqCczJ2hJnZ2diQyqbWgFtWG2BNBszJoA6J6ZE7Ssep38zbKA8ggmskX/Bj0TTAD0TDhBS6vnNHADeOiZYKKxeH0BgHoRTkDUL6QQUEDXBBNAMzJrAqA0wglYSz1CCgEFFBJMNC4bY0LlBBMApRNOQBG1DikM5KFyBvFAFjjXA5RHOAHdqGVIYdAC/1Du7UJpTPo0qIx+DeAfhBNQgtUhhQEEpMfxlx6vPZTHcg6A8rWl3QDImiTXX+dyOQMTWpoBfHPRp0HpHCsA+cycgBowywKS41hqDKW+D5Z3AACVEE4AkAoXsUAzKqVvE7oCFBJOQA0ZfEBxlnNkk9kTAECtCCcAgJIJjKBrgjmAygknAKgrsyaAZqRvA6iOcAJS5q8stBKD9+aQ5F2LAAAihBMA1ImLVaBZCV4BqiecAKDmygkmDN6bh0CKViCYAEiGcAJqzGCEVieYaE7eKxDAASSpLe0GAP8Y3Bjo0+ocA81J/wb6t6yoNmzyPkN1zJwAoGZMd25u3jfomeMkG5KYBWMmDVRHOAFATQgmgFanf8uGJEMFAQVUTjgBdeC2e7Qan+fW4eKLVqWfaw61eB99NqAywgkAEmUDTNZloE6z8ZkGSJ5wAoBUCCaALBJMANSGcALqxIUYrcA+E0AzMzMMoHaEE9BA/DWGLBNMtC776tAKBBPNR78EjaUt7QYAkH0GeAD/IJhoLl29n857kDzhBAB1Y9AOZJGZYc1DqACNy7IOqCNTn2lGBu1E6N9oXvq45lFuH+Q9hfoSTkADMoAnKwzagWbmfNw8vJfQ+CzrAKAiBnpUIpfLCatoOj7T9bXu+aen19/5CrLBzAmos1IHME6kNDK71lOM95pW5HNfX8XOP/UeMxmjQW0IJyAFBjJkmWCCahnYkwWlfE71cfXV3XuSdL/ivYX6E04AUDLBBD3xvtMMBGiNx3sCzU84ASmxsz3NzAUqPdG/0ah8NhtPqe9JVz9X73OScyBURjgBQEncmYNS+QzQCpr1c57L5fK+siaJgKJZ31todMIJAHokmAD4P83a13W12WQWQ4pa8VpA7QgnIEXNOrihuRiIUQn9G1nUyptg9oiJa+wAACAASURBVPS7p3UucA6C1iGcgAbnpExWNOuAHYB/yMotO6ttZ1ePNyaD2hJOANAlyzkAWFu9LtCzGgQ4H0LlhBMAFCWYAFpJKy/pKFet96GoVd3lvH9ZDUcgy4QTGbbubso2LMomAx0AIG2VjEdqMe6s9Vi2luMuYzqojnAio7rruMvp1AUc2eA9od7MmgBaifPsP6QdUNTrfXDugsYknMiYUsODan9GWAGtSzBBvTi/0Aj0efnSDijqpVXeT8gS4URGJB0SlFtXFk86AACUr7Ozs6Ev3uvVtrXHv8bCUHvCiQxI+jZKad2Wia418gCA1uIviEAr0ed1rxE3kKz3e2EWMdSPcKLBJd0Z1uq+z9Se155aM0gnaT4rNDJ9XmnqFVC4WwognGhgjRZMJF0PAACNr9YBRVpjyyTDDsEJVK8t7QZQXBZ3Pqb2crmckx814S+IpEW/Rhr0eeXr7Ows+XWbMGFCjVvTOpYtWxYPPPBA3HvvvTFz5sx444034q233oq+ffvG4MGDY+utt45Pf/rTcdhhh8Wee+5Z07a88847cdddd8U999wTTz75ZMybNy+WLl0affv2jQEDBsTQoUNj3333jfb29hg2bFhN20JzMnOiwaS98SXpMQAiLQbpAIX0eYUqeU16CirSPgclVe/qMfyZZ56ZSH3vvfde/PCHP4xtt902jjjiiPjRj34Ujz/+eLzyyiuxbNmyWLp0abz44ovxwAMPxAUXXBB77bVX7LPPPjFt2rREnn/dtnzve9+LrbbaKk444YT4+c9/Hn/6059i0aJF0dHREe+//368+uqr8fvf/z7+4z/+I3bfffc46KCD4oknnki8LTQ34UQDESRQCp8TkuTzBLQa/V51krzVaNrBRL3qL9cTTzwRw4YNi3POOSfmz59f8uNmzZoVRx55ZHzhC1+IJUuWJNKWWbNmxSc+8Ym4+OKLy6pz+vTpMXz48Jg4cWIi7aA1CCcaRNonytW3jGr0W0c1O689jcpnk0qV8tlJ+xwI69LndS/JgKJRNMp7fvvtt8e+++4bc+fOrbiO2267Lfbaa6949dVXq2rLtGnT4qCDDoqXX365osd3dHTEeeedF2eddVZV7aB12HMig8pZ81dqfQBd0UcAzaLRL5CzJOnxaHfPUy/1+p268oc//CGOP/74+PDDDwu+16tXr9h///3j4IMPjn/6p3+KDz/8MObOnRt33nlnPPfccwU/P3fu3Dj88MPj4Ycfjk022aTstjz66KMxZsyY+OCDDwq+t/HGG8eRRx4Ze+yxR2y66aaxePHimD17dtx5553x3nvvFfz85ZdfHttvv31885vfLLsdtBbhRMYk3UG76Gg8aZ8YaR1u2wZQSL9XulqPWdJ4L3p6zqeffjo++clPxsqVKxN93vfffz+OPfbYWLZsWcH3Ro4cGVdffXXssssuBd+79NJL47bbboszzjgjXnvttbzvPfXUU3HmmWfGDTfcUFZblixZEscee2xBMNGrV68499xz44ILLogNNtig4HGLFi2Kc845J66//vqC75199tkxatSoGDp0aFltobUIJzKkUYOJteuZPn16jB8/PpF66ZrXmHrxWau96dOn5/27GV/zcePGlbQp3rhx4+rUIlpRqXeQaMZjsJZKOb6bydlnn514MBERMXHixKLLML70pS/FDTfcEG1tXV+2tbe3xz777BMHH3xwPPPMM3nf+9nPfhbf+ta3yrqTx7//+7/HvHnz8sra2tri5ptvjvb29i4fN2DAgPjpT38a2223XXz/+9/P+96yZcvirLPOqsmGnTSRThpGRHT5VerPlfNVaVvWfezxxx+fWJt8+fLly5cvX758NedXNePNJB9bqd/97nc9Pu+3v/3tsutdvnx5Z//+/Qvq2mOPPTqXLVtWcj3PPfdc5wYbbFBQz4knnlhyHc8++2xnW1tbQR2XX355Wb/TF7/4xaKvz8yZM8uqh9ZiQ8werL4tULlflejsYiZDV+XVsnQAAIB6qdeeabUYO3d0dBRs7NjdbIZyPPjgg/H2228XlE+cODHWW2+9kuvZcccd44wzzigonzZtWqxYsaKkOi699NLo6OjIKxs+fHjZt0i96qqrYsMNNywonzRpUln10Fos6+hGNR1oLperqGOsVRBRS0OGDFnz7wMPPDBGjhyZXmOaRE/TI019plqlTMH1OauP6dOnx4wZMyKi+ftQnzvSUOqSA5+9yqW1rKOzyJ4XtRpLX3nllfHUU0+t+f9HPvKROO6444rur1CuBx98sKBs6623js985jNl13XqqafGJZdckle2ePHieOKJJ2L48OHdPvbtt9+Om266qaD8oosuKvu6aPDgwXHaaafFpZdemld+6623xo9//OOiwQUIJ7qQRLJbaUCRNWu/ViNHjrRWMwE9neQnTJjQEp8taqPU/s2xXB/jx49fE040ex9aygWM/o2klfK585mrXNozcevx3s2bN68gvDrvvPMS23ui2F4TBx10UEV1bbPNNjFkyJB44YUX8srX3SyzmKlTpxZsgrnLLrvEqFGjKmrLqaeeWhBOLFu2LO6+++4YM2ZMRXXS3CzrAGghpQ4iDdSpBZ8r6i3tC+dmVs1S5tXqvTSjUt/61rfybpG5zTbbxDnnnJNY/W+++WZB2cc+9rGK6yv22Pnz5/f4uClTphSUnXDCCRW3Y4cddog99tijoPzee++tuE6am3ACAICW1UgXwVmR5P5qpZal5bbbbov/+Z//ySu77LLLol+/fok9R7F9JXr37l1xfcX2wuipvStWrFgzi29tRx11VMXtiIg49NBDC8oeeeSRquqkeQknMsZfAFpDI52UaR5mTZSuFpse8w8+X9SLY7U2kt74ffX31v5qFAsWLIjTTjstr+yzn/1sfOELX0j0ebbeeuuCstdff73i+ootEyn2HGt77LHH4v33388rGzhwYOy2224VtyMi4oADDigoe+6552LJkiVV1UtzEk50IYmOsZE6V5qPQRflEEyUrpTXSkgBjU2fl7xK+71x48Zl9nUeO3Zs3pKL9ddfP66++urEn2fEiBEFZcU2ySzFa6+9Fs8880xeWe/eveOf//mfu33cY489VlC21157VX2uK7asIyLiL3/5S1X10pyEE92opiPNaicMNB8X0aWpZODttQWaXauGsbfcckvccssteWUXXHBBbL/99ok/11FHHRXrr79+XtncuXOLLrPoybXXXltQdthhh8XGG2/c7eP+/Oc/F5QNGzas7Odf1xZbbBEDBw4sKH/22WerrpvmI5zowbrTzEr9qoVSTgzltsOUZWC1Vg5Vq711tH4TsqeV+7xStHLf9sYbb8TYsWPzynbddddEN8Fc28Ybbxwnn3xyQfk555wTK1asKLmev/71r3H55ZcXlJ911lk9Pnbd2RYREUOGDCn5ubtTLNCZN29eInXTXIQT0KAMmqinVv68JTX4btVBfC14LalGqX/MobhqQ4nOzs6C225mSWdnZ3z5y1+OBQsWrCnr3bt33HDDDdGnT5+aPe+4ceNiiy22yCt7/PHH4xvf+EasWrWqx8cvXLgwjjnmmHj33Xfzyr/4xS/GyJEje3z83/72t4Ky7bbbrsfHlWKbbbYpKHvllVcSqZvmIpzICAM1oFZaeZCedN+qrwayqta3Bs2Kyy67LO677768srPOOiv23nvvmj7vgAED4le/+lVBAHL99dfH5z73uaKbXK72hz/8IfbZZ5+CpRk77LBDXHPNNT0+97Jly4reznTdsKRSm222WUHZ2uEPrFZ4nxkyqxlOCJQnl8t53+mWi+Wu1eq1cVxCevR55UviNWuWPm/OnDnxve99L69s5513jgkTJtTl+UeOHBk33XRTHH/88dHR0bGmfNq0abHjjjtGe3t7HHLIIbHVVlvF8uXL44UXXog77rgjfv/73xfUtdVWW8Xvf//72HTTTXt83mLBRETxUKESgwYNKihbvHhxInXTXIQTGVDt1DonaoB8te4XBRTdc26iFtyhozxJHYPN8nq+8847cdxxx8Xy5cvXlLW1tcXPf/7z6NevX93aMXr06Bg4cGAce+yx8dZbb60p/+CDD+LGG2+MG2+8scc6hg8fHlOnTo0tt9yypOdctGhR0fJNNtmktEb3YMMNNywoW7p0aSJ101ws62gSPd07ul7PBdDoyh2Q13KjY4B6S3Kjy1L7xq42YG+kkPLrX/96PP/883llF1xwQc2XcxRz0EEHxdNPPx177rln2Y/9+te/Ho888kjJwURExJIlSwrKevfunVgoUyyc+PDDDxOpm+YinGhwjZZqG6DXV6l3XIFibApXqJJgYu1/l/N6OTah8bRan7e2pEOJUl/LnpZENEJfOWnSpPjNb36TVzZixIiCJR718tBDD8XnP//5eOKJJ8p+7A033BBf+cpXut2jYl3FgoK+ffuW/dxdaWsrnKxfzl1IaB3CiQaW9PTEak/IrXxCB1pPV32egKI+vHaUQxjbvTRCiXKkOaPi8ccfL7jV5iabbBI33XRT0YvqWlq5cmWcd955cdBBB8Uf/vCHiuu46aabYtiwYXH77beX9JhiQUGSv3uxu5yUcgcSWo9wokHVqlNefVKp5AvIDhd21evuNRRQAFmR1IaX9R4L1iOkeOutt2L06NF5+0xERFx33XWx7bbb1vS517VixYo4/vjjY+LEiQUX7n369IkvfelLMWXKlPjrX/8a77//fixevDieffbZuPbaa+OQQw4pqG/RokXxhS98IX7605/2+NwrV64sKEvytS8WRNTytqxklw0xG1A5nYHQoPmVsnGczfeohM9Mz7o7tmzqCDS6Zrg1aK3GOB0dHTFmzJiYN29eXvm3v/3tGD16dOLP15OTTz45brnlloLyww47LK6++urYbrvt8srXX3/92GSTTWKnnXaKk08+OR5++OE4+eST47nnnlvzM6tWrYqTTz45+vfvH+3t7V0+d7FZEmvfLaRaxWZmJLlshOZh5kSGNcIJg8bhIgl6ZoPgxuG1IymWdBRX7d3eGuk1q8UY58wzz4wZM2bklY0YMSIuvfTSxJ+rJ9ddd1387Gc/Kyg//fTT46677ioIJorZf//9Y+bMmfEv//IveeWdnZ1x0kknxUsvvdTlY4sFBevOJqnGsmXLCsqKbZIJwomMaqQTBpA9rdyHCCiyQ+gK9dVoocTakuwPrr/++rj66qvzyrbYYouYMmVK3ZcbLFq0KM4999yC8sMPPzyuvPLK6NWr9Mu1/v37x9SpU2OrrbbKK1+6dGl85zvf6fJxxYKCjo6OxO6o8c477xSUDRgwIJG6aS7CiQxq1JMGtVPOrbrA56BnjTwAB0qnv0tGLfvEcePG1aTeSs2YMSNOO+20vLI+ffrElClT4qMf/Wjd2/PDH/4w3n777byy9dZbL6655pqygonVBg0aFFdddVVB+R133BGPPfZY0cf079+/aHmxW4xWYvHixQVlAwcOTKRumotwogF1d3IwmG5d3nuoP8cdZJ/juGv1CmobZZP1F154Idrb2wuWLFxxxRWx33771b09HR0dccMNNxSUn3TSSfGxj32s4no///nPx2677VZQft111xX9+c0226xo+fz58ytuQ0/1bL311onUTXMRTjSoYh23kyul8FckSI7jqbac16iG47N7Pf2xK83jr9LnruY9X7RoURxxxBGxaNGivPKTTjopxo4dW3G91Xj00UfjjTfeKCjvbvPKUhWrY+rUqUV/dsCAAbHBBhsUlL/++utVtyMi4rXXXiso23777ROpm+YinGhgjZIy0zh8DuiJjeGSt/p2dt19AY2p1fu7Rv5jV71vWz9x4sR44YUXCspvuOGGkvr5Yl8TJkwoqO/KK68s+rO33357wc/+7//+b9G2rrupZSUOPPDAgrIFCxbE888/X/Tni9069cUXX6y6HV3Vs9NOOyVSN83FrUQBgIblVskUIxQsXaseP1n4jMydO7egbNNNN43111+/6rq33HLLLp9zxx13LCjfZZdd4i9/+Ute2TPPPFN1O5YuXVowc6JXr14xbNiwquum+Zg5ARnTqoMMepaFgVijcTxB83J8Z08p71lP57oszWhbdyPMiEgkmOiunmLPGRGx++67F5TNnj276nbMmTOn4H3dZZddii4jAeEEQAsxWAeyLisXntROV5+BrH02it22dOHChYnU/dZbb5X8nBERI0aMKCh74okn4r333quqHTNmzCgoGzVqVFV10rws6wCAGhIIda+zszNzFxSkp9TPiuOu9ZTTjxx66KGJPOeLL75YsDRjm222iaFDhxb87Oabb15QNnjw4IKy5cuXx6uvvlrV3Toiouj+Gl09Z0TEvvvuG/369Ytly5blteWBBx6Io446quJ23HvvvQVlSb3+NB/hBDQha7Rbj40wK+fiGKBxlNonrx7rVNJ/33PPPZU0rcD48eMLNsU8+uij44orrijp8TvvvHPR8vvvvz++8pWvVNW2YqFARBQNTiIi1ltvvfjMZz4Td955Z175r3/964rDiVdeeSVmzpyZVzZgwIA4+OCDK6qP5mdZBwAtr1bBjUAI6s9xl32lvodZD5aL3VEjIuJnP/tZVfUuXLgwbrvttoLyIUOGFJ3Bsdpxxx1XUDZlypT4+9//XlE7Jk+eXPBefvGLX+xyaQkIJ6BJZf2ETem818lI+oLGBRLUn+OOnjTSZ2To0KGx6667FpQ/+OCD8eCDD1Zc70UXXRTvvPNOQfno0aO7fVx7e3sMGjQor2z58uVx4YUXlt2GN998MyZNmpRXlsvl4owzzii7LlqHcAIyqJFOrGSDz0xpOjs7E/sCoHK16EcbsW8+++yzi5Z/+ctf7nJTy+5MnTq16LKS9ddfP0477bRuH9uvX78YO3ZsQfk111xTdGPL7owdO7YgIGlvb+9yKQtECCcAMs2sCaBV6O+oVCOHxl/+8pdjzz33LCh/9dVXY//994/nn3++5Lp+8pOfxHHHHVf0d/3Od74TW221VY91nH322QWbZq5cuTJGjx4dTz75ZEntOP/88+PWW2/NK+vbt29MnDixpMfTuoQTkFFJ3AucbLNrPa1CXwZUopFDidVyuVxMnjw5+vXrV/C95557LvbYY48499xzY968eUUfv2rVqpgxY0aMGjUqTjnllFi+fHnBz+y0007x3e9+t6T2bLTRRkVnXixYsCD222+/mDx5cnR0dBR97KuvvhpjxoyJSy65pOB7F110Ueywww4ltYHW5W4dAAA0NAEV5Wr0UGJtn/rUp+Kmm26K0aNHx6pVq/K+9/7778ell14al156aQwdOjQ+8YlPxKBBg2LFihXxxhtvxKxZs2LhwoVd1r3FFlvEPffcExtttFHJ7Tn++OPjvvvuixtuuCGv/N13342xY8fGhAkT4vDDD4+dd9451l9//Vi4cGHMmjUr7rvvvqLBxTHHHBNnnXVWyc9P6xJOQJNzW9HmZNYErUZfRk98PppPpbcKzeJn4Zhjjokbb7wxTj755Hj33XeL/syzzz4bzz77bMl1fvzjH4/bbrsttt1227Lbc80118T8+fPjt7/9bcH35s+fXxBcdOWQQw6Jm266ScBISSzrgAzL4smX+vH5ICt8VoGkZLk/Oe6442L27NlF96Ao14knnhhPPPFE7LbbbhU9vk+fPnHHHXfEN77xjYoen8vl4vTTT49p06YVXbICxQgnoAVIq5uL95NW5bPfmkp537N8QUqycrlcpvuKHXfcMf74xz/GrbfeGnvvvXdZj+3Vq1eMHj06Zs+eHb/85S/LWspRTFtbW0yePDnuvvvuskKO/fbbL6ZPnx5XXXVVtLWZqE/pfFog4yqd8kg2Wc5Bs9KXAUmqx1Kw8ePHx/jx4xOvN5fLRXt7e7S3t8czzzwT999/fzzwwAMxd+7cWLBgQSxcuDD69OkTgwYNis022yw++clPxqc//en49Kc/HVtssUXi7fnsZz8bhx56aMyYMSOmTp0as2bNirlz58aSJUuid+/eMWDAgBg6dGiMGDEi2tvbE5n5QWsSTkCLsF47+1y4AUDpmmHss/POO8fOO+8cp59+eqrtyOVyMXLkyBg5cmSq7aC5WdYBTSDrJ156Vk4w4fNAVvnssi5LOqiWYB+yQzgBLcQJOpsEEwAANDvhBDQJF6X4DNAKhKzQWpzboHUIJ6DFGNhniw0woZB+rDVY0sFq3mdoDTbEhCZS6m73zbBBFP/HewlAsyt2rhNgQXMxcwJalL88Nj7vEa2o1AsJxwfQ2dmZ91Xs+0B2CCegyZRzIja4b1yWc9DKfK7xF3Eq0VNYATQ24QQ0IQEFAACQJcIJaFL+YpBdZk2Az3crE5oDtCbhBDQxa7ezRzABpdN3NR99IEDrEk5AkzOAyw4XWlA+xw0ANAfhBEADKOcCS+AE+QQUrUUfCNCchBPQAkoZyBncZ4NBOa3E5r6txR06AFqbcAIgZdZYAwDQ6oQTwBr+8lh/ggnontkTANAahBPQIlzcNh4XUlAaAUXzs6QDAOEEQApsgAnlcRwAQHMTTkALMbjPHu8Z/B/HAwA0L+EEQJ3ZZwIq57hoPpZ0ABAhnACoK8EE1J59JwAge4QTAHXiggnqx/EGANkinACoAxtgAhSypAOA1YQTAA3EIBx6VupxYvYEAGSHcAKgQQgmoHSOl+wTHgGwNuEEQANwoQW14QI42/SNAK1DOAHkMZBPntcUasPyDgBoHsIJAKDpCSgai40wAViXcAIAyKxyLmAFFADQuIQT0GL8Jaq+/HUQas8xBADZJ5wACvjrIpA19p/IDqEtAMUIJwBqxEUQ1JeAovF57QHoinACKMoAsj78dRBoFc4rAHRHOAEtyF8Xa89rB+nQv2Wf0BagNQkngG4ZwNeOATjUhmMru7x3AK1LOAEtygCwdgQ6APlsgglAT4QT0MIMBNPjtYfaKuUYEyQCQOMQTkCLM4AHoJacQwAohXACoM7MmgBaRanBhH4RAOEEANCUXPACQHYIJwADeKBlWXJQO2ZNAFAO4QQAAIkSTABQLuEEUBJ/XQSgFM4XAFRCOAGQIINyaCzuSFRf5byWZk0AsDbhBAAAVRNMAFAN4QQQEf66mASvD2SX47c6ggkAqiWcAEiAzd+gcTnuakswAUAShBMAVfIXV2gOjuXyCSYASIpwAljD0o7aMjCH9Dj+kieYACBJwgmAKljOAc1FAJs8/R8ApRBOANSYgTk0BsdicgSzACRNOAHkMZAsnb+wAq1IMAFALQgngLK5KC+dwTk0FnvrAEBjEk4AFWn1wXur//5AazJrAoBaEU4AlMngHGhF+j4Aakk4ARQwsOyaGROQfZZ2lM/rAUCtCSeAogQUhcoZnHv9gGaQy+X0fQDUhXACoAQG59B6Wnm2QLmhRIS+D4DqCCeAirXKwF0wAc2n1GO1Vfq51SoJJSL0fQBUry3tBgA0MsEE0AqqCWH0fQAkwcwJgC4IJqC5mT1R+UyJ1fR9ACRFOAF0qVUHnTaAg9bRigHF6j6u2t9J3wdAkoQTAGuxARzQzJIKWfR9ACTNnhNAVXK5XNMMUgUTUFtdHWNpH0udnZ0lHf9Z7+8EEwA0MuEEQAgmoNa6O8bKueiv1ZKrZg4ohBIAZIFlHUDVsr4WWzABtVXqRX8SP1PNz6ddb9KS2Fci4h99nn4PgFoTTgDdavYBqWACaiupC/lK62nFzW2FEgBkkWUdQMsSTEBtJD2zoNr6ylmKkeXlHZZvAJBlwgmgR6UM1htxoN4dwQQkr5GXO9QioKinerRHPwdAmoQTQMtpxWneUEtJLSGoVd1r15XkMd1oAUYl9HEANAp7TgCJycJAXTAByUlyb4NG04htSlor/I4AZIdwAihJLW7zV2+CCaje6kCiHvsb1KI/aeQ+qp70cQA0Gss6gMQ14v4TggmoTi0u6pMIJtatI8l2NuLeE9XSvwHQqIQTQMnKGag3UkAhmKBVrfvZr/TznfQFetrHWSP1T/XSar8vANkjnADKkrWAQjBBltXilpzlfs6TnomQ5HMWqy/p2Q5Znz2hXwMgK+w5AZStnMFumoN6wQRZVqtjJ41jsrOzsyb71lTzuzR7/1DOaw4AjcDMCaAijT6DotkvPGhuWf5L/bpqHWYW619K7Z/K6ZsaaQaFPguAZiScACrWqAGFYALS14zHVjP+TgDQKCzrAKrSaEs8BBOQnHKP2dVLCRrh2GqENgAApRNOAFVrlIBCMAE9q8XeD+XUW0+N2CYAoDjhBJCItAMKwQTNpFaf0azVCwC0DuEEkJi0LlAEEzSjpD+rzRpMpP38AEAybIgJJKoWu+T3VE+pXMSQNY3+ma1FgNIod8QAAOrLzAkgcbVa017N4xv9Ig+yphFmYvT0s4IOAMgO4QSQqkovHgQT0LySuOOHYAIAssWyDqAmypme3dXPrb44qeYiQzAB5WuEC/t6BJcAQOMwcwKomST+8imYAEolmACA7BJOADUlIADqoZJgQv8EAI1DOAHUXBoXAC46oDKlXOQ3wvG1dhsEEwCQffacAOqinrcIdNEBzc+SLwBoLmZOAHVTjwsCFx1Ad/QRANCYzJwA6qpWMyhccEB9ZPVYy2q7AaBVmDkB1F3SFwkuOiA53R1P9TzWknwufQQAND4zJ4BUdHWx0NOsChcZUHvFZjhl8djLYpsBoFXlOp25qdL48eNjwoQJERFx4IEHxsiRI9NtEJm3+vO0tnHjxqXQEqi96dOnx4wZMyJCH1pMsf6gFPoMSM/a/dq4ceNi/Pjx6TYIyAQzJ0jUjBkz1pyMIEmVXqBAluhDk6PPAIBssecEAAAAkCozJ6gZU2oBAFqLWUtApYQT1IT1hQAArUlAAVTCsg4AAAAgVcIJAAAAIFXCCQAAACBVwgkAAAAgVcIJAAAAIFXCCQAAACBVwgkAAAAgVcIJAAAAIFXCCQAAACBVBwcyfgAAIABJREFUwgkAAAAgVcIJAAAAIFXCCQAAACBVbWk3AAAAIA2dnZ3x5z//Of70pz/F/PnzY+XKlTFo0KDYbbfd4lOf+lT07t077SZCyxBO0HAef/zxOOaYY2LBggWxbNmyqut77733YubMmfH666/HW2+9FR0dHTFw4MAYMmRI7LPPPrHeeutV/RzLli2L//f//l88/fTT8fbbb8e7774bG2+8cWy++eaxzz77xNZbb131c7SKV199Nf74xz/Gyy+/HO+880707ds3+vfvH9tuu23svffe0b9//7SbCAAkbPLkyTF27NiKH//UU0/FrrvuWvLPf/jhh3HVVVfFj370o3jllVeK/sygQYPim9/8Zpx77rnxkY98pOK2AaURTtAwOjo64rLLLovvf//7sWLFiqpDgwceeCAmTpwYM2bMiA8//LDoz/Tr1y/GjBkT55xzTuy2225l1b9q1aq47bbb4uc//3n87ne/6/I5IiJ23nnn+Na3vhVf+9rXom/fvmU9T6mWL18e22+/fbz22mtryq666qo4/fTTS65j8803jzfffLOi5//CF74QU6ZMqeixK1asiBtvvDEmTZoUs2fP7vLncrlc7L///nHbbbfFwIEDC77/wx/+MM4555yK2tCVgQMHxoIFCxKtEwDIt2jRoro91wsvvBBHH310PP30093+3IIFC2LChAlx0003xV133RU77rhjnVoIrcmeEzSERx55JPbcc88477zzYsWKFVXVtXDhwjjyyCNj1KhRPYYGy5Yti1/84hex5557xsUXXxydnZ0lPcd7770Xn/zkJ2PMmDFx5513dvscERHPPPNMjB07NoYPHx7PP/98Wb9Pqa6//vq8YKISb7/9dkKtKd3s2bNjr732ipNOOqnbYCLiH1MvH3rooVTaCQDUTr3O7c8//3zst99+BcFE7969Y7vttostt9yy4DEvvPBCjBw5Ml5++eW6tBFalZkTpOqpp56KCy+8MG655ZaSg4HuzJ07Nw455JB46aWXCr632WabxWabbRbvvfdevPLKK7Fq1ao13+vo6Ijvfe97sXjx4viv//qvHp/ngw8+iL/85S95Zb169YpBgwbFoEGD4oMPPoi///3vBctS/vSnP8WnP/3peOSRR2Lbbbet7JcsYvny5fGf//mfVdXx7rvvVh0Mlevmm2+Or371q0WX72y55ZYxYMCANa/lBx98UNe2rbbTTjul8rwA0ErWnjmx3nrrxZlnnlnW4zfbbLMef+aDDz6Iz3/+8/HWW2+tKdt6661j/PjxceKJJ66Z3frmm2/Gf//3f8ell14aK1eujIiIv//973HiiSfGQw89FL16+fsu1IJwgrpbtWpVTJ8+PSZNmhS33357IqHEag8//HBeMLHFFlvE1772tfjXf/3X2H777deUL168OG699db4wQ9+kJeCX3rppTFixIg45phjSnq+XC4Xn/3sZ+PrX/96HHTQQXn7IaxYsSJmzZoVV1xxRdx6661ryl977bX42te+Fvfff381v2qeSZMmVZ3mrzudctSoUbH33nuX/Phyl8VMmTIlTjzxxDUn/YiI7bbbLs4+++wYPXp0DB48eE35qlWr4plnnolp06bFdddd12Wdw4cPj+9+97tltWNdN998c/ztb39b8/9SwioAoDprz5wYPHhw1X90KeYHP/hBPPvss2v+v+uuu8bvfve7gtkSgwcPjksu+f/au/Ponu78j+OvryQSEnsoUdvUWjRlbEOLg2FstS89ZuxL6WIfjqXS0pqZcFDOVLWopXTEUnqoWkYx1tRSS+1Lk9EhyYwQiR+RfH9/OG5zv1l8v8k3PhrPxznO+b5v7v3cT3J6mpvX/SwzVa9ePfXu3VsPHjyQJO3bt08rV65U3759vd43AJKcQA5NmzbNKcn2b9q0aRmeu2jRImfZsmXTnS/JWaFCBWfRokWt2t/f3+O+LF261CnJmS9fPueYMWOcSUlJWZ5/8+ZNZ8OGDW39qFy5svPBgwdZXhcbG+usU6eO88iRI271a+7cuem+3x07drj9fWUlLi7OWaxYsQx/pvPnz3e7nePHj9uuXbx4sVf6l5ETJ044CxYsaLtf3759nQkJCY+9NjU11ZmcnJwr/Tpz5ozT19fX6lPXrl1z5T4AAORVrs+FmT0TumratKl1TWhoqNf7dePGDWdAQIDtOfPcuXOPvW7s2LG276d69epe7xuAhxiThCdq586dGa6L0KNHD33//fcqUqRIju9RtGhR7dq1S7Nnz1aBAgUee+6GDRsUGBhoHbt48aL27t2b5XXFihXT4cOHVbduXbf6NHLkSLVu3dp2LCIiwq1rHycsLMx625CT7a5cR04UL148R/3KTEpKivr166ekpCTr2MSJE7Vs2TIFBQU99nqHwyFf39wZ9DVhwgTr7Yivr69mzpyZK/cBAAB2aUdOZLTodU4tWrTINo10zJgxbi1wGRYWZnsmOnv2rPbt2+f1/gFgQUwYFhoaqu3bt2vNmjUKDg7OcXulSpXSrl271LRpU7evKVOmjPr162c7tmXLliyv8fHx8fgP5EGDBtnqkydPenR9Ro4cOaKPP/5Y0sM/2gcPHpzttlwXosqNBwNJ+vTTT3Xs2DGr7tatmz788MNcuZcn9u/fr02bNln1gAEDWJUbAIAnJO1Lktx4QbJy5Urrs8Ph0LBhw9y6LigoSD179rQdW79+vVf7BuAhwgk8cfny5VPz5s21adMmHT9+XK1atfJa2+3atdPLL7/s8XVt2rSx1bmxGrPrKIu0izFlR2pqqoYNG2at2fDHP/5RjRo1ynZ7T2LkRHJysi2ICAoK0oIFC+RwOLx+L09NmjTJ+hwQEKB3333XYG8AAHi2pH1J4u1nkLNnz+rcuXNW3axZM1WoUMHt63v37m2rvbluGIBfEE7giRo+fLiio6O1a9cudezY0XR3LM8//7ytzmlwkBHXKStpp5Jkx/z5862tN4OCgnK8cJTryIncCCc2btyo6Ohoqx4/frxKly7t9ft4avv27dq9e7dVDxkyJN1/EwAAIHfcu3fPNt3T288gu3btstXNmjXz6PoGDRrYRsyePHnS1l8A3kE4gSeqWbNmCgkJMd2NdFy3hAoICPD6PVxHJuRkK9GLFy/a3vS///77Of65PomRE8uWLbM+58uXL0fTULwpLCzM+uzv75/jHT8AAID7cvsZ5PDhw7a6cePGHl1foEABhYaGWnVqaqp+/PFHr/QNwC8IJwClHynhjfUvXEVGRtrqV199NVvtpKamqn///lZiX6dOHb3zzjs57l/aB4OCBQvK398/x22mlZiYqB07dlh106ZNn4qgavv27dq/f79VDxw4UGXLljXYIwAAni25PXrTdZ2vWrVqedxGtWrVbPWlS5dy1CcA6RFOAJKOHz9uq1966SWv32PRokXWZz8/P/Xp0ydb7cyaNctaJdrHx0eLFi3K0S4dj+TmXE9JOnDggG2V7LZt23r9HtkxY8YM67OPj4/Gjx9vsDcAADx7cnvkxOXLl63Pfn5+2ZpS6vriIu00VQDekTv78QG/Ml999ZWt9nQu4uN88MEHtu1J//znP+u5557zuJ1Dhw5pypQpVj127FjVq1fPK33M7VWy0+7QISnDhUuvXbumixcv6s6dOypWrJjKlCmjSpUqeb0vj/zrX//Snj17rLpXr165ej8AAJCe68iJrl27Wp99fHxUrFgxlShRQjVr1lTTpk3VsWNH/eY3v3Gr7cTERFv7ZcuWTTed1x2ua1HFxcV53AaArBFO4Jm3f/9+27D+KlWqqH79+l5p+8qVK5o8ebJWr15tHWvfvr2mTZvmcVvx8fHq3bu3kpOTJT0cXvjee+95pZ+S/cHgxIkTth00AgMDVbx4cYWEhKhx48Zq3ry52rVr59F2qpmFE4mJiZo3b56WLFmS4RDJ8uXLq1u3bpowYUK2Ap2suC4iOm7cOK+2DwAAHs915ERaKSkpiouLU1xcnM6dO6f169drzJgx6tKliz744IN00y1cuYYI2d0q3XVh8/j4+Gy1AyBzhBN4pt2/f19vvvmm7VjahSYfx+l0auPGjVadlJSkW7du6dy5czp06JAOHTokp9Mp6eECkKNHj9bMmTPl5+fncV8HDRqkq1evSpJ8fX21fPlyry7cmdWDQWJiohITExUdHa1Dhw5pzpw5KleunMaPH68333zTrTcQaafO+Pn5qVSpUjp58qQ6deqkK1euZHpdVFSU5syZo08//VRz587VoEGDPPvGMnHmzBlt2bLFqlu0aKE6dep4pW0AAOA+15ETj5Oamqp169Zp69at+vvf/66+fftmeq5riJDdZyfX69JOVQXgHYQTeKaNGDHC9kdzw4YNs/wF5yolJUVdunTJ8pzChQura9euGj9+vF588cVs9XPBggVav369VU+aNEkNGjTIVluZ8fTBIDo6Wu+88442btyo1atXq2TJklme//PPP1ufCxcurIsXL6p58+ZZhiJp3blzR4MHD1ZsbKwmTpzoUV8zMnv2bCs4kqTRo0fnuE0AAOC5ypUra+rUqSpYsKDteHJysuLj4xUdHa3IyEjrJc0jiYmJ6t+/v/z8/PT6669n2Pa9e/dsdYECBbLVR9frHo1kBeA9hBN4Zo0dO1aLFy+26mLFiunLL7/M1jzErFSrVk1FixbV9evXVb16dY/bP3bsmG26QZMmTfTuu+96tY+S1K9fP5UuXdo2nUOSEhIS9L///U8nTpzQsWPHdPfuXdvXd+7cqbZt22r37t0KDAzMsG2n06mEhASrDgwM1J/+9CcrmKhatapGjRqlNm3aqGzZskpMTNTZs2e1Zs0aLVy40PZgMWnSJNWrV0+tWrXK9vcaHx+vVatWWXX58uXVrl27bLcHAACyr0OHDurQocNjz4uMjNTf/vY3rV271jrmdDrVv39//fa3v1XVqlXTXfPgwQNbnT9//mz10XUqa3bbAZA5wgk8c+7fv6/BgwdrxYoV1rGgoCBt2bJFFStW9Pr9IiMjFRkZqblz56pKlSoKDw9Xp06d3Lo2Pj5ePXv2tP44L168uFatWuWV3TlczZs377HnJCQkaOXKlQoLC1NMTIx1/MiRI3rrrbe0dOnSTK9LTU216qioKEVFRUmSRo0apfDwcNsvfX9/fzVu3FiNGzfWG2+8odatW1urYjudTg0bNkznz5/P9s9h+fLltpBl0KBBXg+lAACAd9WvX18RERFatmyZBg4caD1b3L9/X1OnTtU//vGPdNe4bo3uOpLCXa4vZ4KCgrLVDoDM8TSOZ0pUVJReeeUVWzARHBysbdu2qVGjRh635+vrK6fTaf1LSkpSTEyMjh49qpUrV2rAgAG2nS8uXLigzp07u7VdZUpKinr37q2LFy9KerhmxRdffKHy5ct73E9vKVSokIYPH65Tp06l+3ktX75cp06dyvC627dvZ3h8+PDhmjNnTpYLa1avXl2bN2+2rdNx+fJl2zQXT6Xd1tXHx8dr61gAAIDc169fv3SLWkdERCg2Njbdua4hgmvI4C7CCSD3EU7gmfHNN9+obt26ioyMtI7VrFlTBw8e1O9+9zuv3KNAgQIqWbKk6tSpoz59+mjJkiWKiopSWFiY7S3/rFmzNHPmzCzbmjhxor799lurDgsL0x/+8Aev9DOnSpYsqc2bN9u21UpNTdXChQszPD/t2g6PhISEaPbs2W7dr3bt2hoyZIjt2Jo1azzo8S/27dun06dPW3W7du3S7V0OAACebqNHj1blypWt2ul0atu2benO81Y4kZSUZKsLFSqUrXYAZI5wAnleSkqKJk+erPbt2+u///2vdbxPnz46dOiQXnjhhVy9f2BgoKZNm6a1a9fa1nOYNm2aNSrC1eeff65Zs2ZZ9WuvvaYpU6bkaj89Vbx4cU2fPt12bOvWrRmem9Ev8DfeeMOjRakGDhxoq7/77rsMQ4/H+eSTT2z10KFDPW4DAACY5evrq+7du9uOff/99+nOK1q0qK1Ou0C3J/7973/b6goVKmSrHQCZI5xAnhYfH68OHTroww8/tP6QLViwoD777DOtXLky0wUcc0Pnzp1tfwgnJydr7ty56c7bvXu3hg0bZtXVqlXTihUr0i1U+TTo3r27bUGoS5cu6datW+nOyyic+P3vf+/RverUqaPChQtbdVxcnNs7fTxy69YtRUREWHVISIjatm3rURsAAODpUL9+fVud0bSOwMBAlS5d2qpjYmKytQ3oo7WyHqlRo4bHbQDIGgtiIs+6evWq2rRpo/Pnz1vHatWqpYiICFWvXt1In4YPH257c//1119rwYIFVh0bG6uuXbvq/v371rGKFStq0qRJbrV/9uxZWx0REWE7Vr16db311lvZ7X46QUFBqlatmk6ePGkdi42NVZEiRWzn+fj4qEiRIrbgIu2UEHfky5dPlSpV0g8//GAdi4uLU4kSJdxuY9OmTbYHku7du+fK4qIAACD3BQcH2+q0O4OlVaNGDV2/fl3Sw+kfV65c8ThcuHTpkvXZ4XAYe5YE8jLCCeRJ586dU8uWLXXt2jXrWN++ffXxxx+n20P7SQoNDVVgYKASExMlPUzh79+/b40+uHHjRrrRAN9++61t7QlP7NmzR3v27LHqli1bejWckDx7MDh48KBVu27t5Q7XoZmetuG6iGaPHj087gMAAHg6uD5zZPbCokaNGtq1a5dVHzhwwKNwIjk5WUeOHLHqKlWqGH2eBPIqpnUgz4mJiVGbNm2sYMLhcCg8PFzLli17Kn6RlCpVyla7LrD0a+Pug0Ht2rVt9Y0bNzy+1507d2x1yZIl3b42KSnJFvKULl1ajRs39rgPAADg6XDhwgVbnXb6RlrNmze31Xv37vXoPkeOHLEtpNmyZUuPrgfgHsIJ5ClOp1O9evXSTz/9JOlhMPHJJ59o3Lhxhnv2i/j4eOuzv79/utEAvyapqam6fPmyVTscjnThyyN169a11Wl3TXFX2vme/v7+Hk3p+Oabb2wPFu3atVO+fPwvEACAX6vNmzfb6sxeOrRp08a2JfnGjRs92rVj9erVtrpz584e9BKAu3gyR56yfPlyfffdd1Y9evTodFtQmnT16lXdvHnTqitWrGj7eq1ateR0OrP9b+nSpbb25s+fb/v6jh07vPr9HDhwwDYNpW7dugoICMjw3E6dOtnCgI0bN3p0r9OnT9sWunrllVc8Wi/CdUoHC2ECAPDrdfToUe3cudOqAwIC1KJFiwzPLVy4sO1rN2/e1JdffunWfZKSkvTFF19YdUhICCMngFxCOIE85a9//av1uVSpUpoxY4bB3qS3ZMkSW92xY0dDPfGOtD9vSWrfvn2m55YpU0avvvqqVe/YscO2uOXjfPbZZ7bak3AhOTnZ9nbFx8dHrVq1cvt6AACQO1JSUjy+JiEhQf3797dtKT548OAsp++OGTPGVk+aNMn2wigzU6dOtW1FP3LkSBbTBnIJ4QTyjCNHjujMmTNW3atXLxUoUMDr97lw4YJtaoa7Tp8+rVmzZlm1w+FQnz59vNm1bMvOg8Hnn3+ur7/+2qoDAgIeO0plxIgRtnrIkCFKTk5+7L3OnDmjhQsXWnWhQoU0cOBAt/t6+PBh204hoaGhv+rpNAAA5BUXLlxQy5YtdeLECbfO/+mnn9SyZUvbTmGFChXS1KlTs7yudevWtmkf169fV69evdKtZ5XW6tWrNW/ePKt+/vnnvb6wOIBfEE4gz0i7E4Qkvfzyy7lyn0OHDqlWrVpat26dUlNT3bpm3759atWqlW1+Y79+/XKtj54aMWKEZs+erXv37rl1/kcffaShQ4fajo0cOfKx24P26NFDDRo0sOrIyEj17t07y/tGRUXptddes20BOmrUKBUrVsytvkrS7t27bTULYQIA8PT45z//qdDQULVo0ULLli2z1g57JCUlRQcPHtSoUaP04osv2tat8vHx0apVqzJd8yqtuXPnytf3l80Kt2/frsaNG2vdunW2lyVXrlzR22+/rT59+lgvcBwOhxYvXvxULK4O5FVsJYo8I+2oCUnaunWrbQHF7Jg0aZK1zWda165dU/fu3VWlShUNGjRILVq0UN26dW3D/BISEnTgwAEtWbJEERERtiCjatWqCg8Pz1HfvOnWrVsaN26c/vKXv2jAgAHq0KGDGjZsKH9/f+ucGzduaNu2bZo7d66OHj1qu/7VV1/V+++//9j7OBwOLViwQE2bNrXChvXr16tu3bqaPn26OnToYNtWdeXKlZoxY4ZtpEr9+vU1ZcoUj74/11W5CScAAHj67Nq1y9ryMygoSMHBwUpOTlZsbKzu37+f7vz8+fNr4cKF6tChg1vt169fXx999JFtJOfJkyfVvXt3+fj4KCQkRLdv37aNtnwkPDxcrVu3zuZ3BsAdhBPIM1ynWkREROS4zXHjxmUYTjxy4cIFTZw4UdLD5L548eIqXLiwEhISFBcXl+HIihdeeEHbt29XcHBwjvvnbXFxcQoPD1d4eLh8fHxUokQJBQUF6ebNm5nOy2zYsKE2bNiQ5c8prfr162vFihXq2bOnNVf0xx9/VLdu3eTn56cyZcro//7v/xQbG2ubSyo9DHXWrl3r9r0ecd0Z5GkZsQIAADJ2586dLKdc1KhRQ8uXL1e9evU8anf48OHy8fHR22+/bQs8UlJSFB0dne78gIAAzZs3L92IUQDex7QO5BmJiYlP5D5lypTJ8I/jlJQUxcbG6tKlS4qJiUkXTDgcDg0YMEDHjh1T+fLln0hfcyIlJUUxMTG6fPlyhsGEn5+fxo0bp71793q0packde/eXevWrUt3XXJysqKiohQTE5MumGjVqpX279/v8c/uP//5j20hK19fX1WuXNmjNgAAQO6oXLmyFi9erHr16snhcGR5bv78+dW8eXNFRETo1KlTHgcTjwwdOlRHjx5Vp06dMl3cMn/+/Hr99df1ww8/EEwATwgjJ5BnuP4xm1tatmypc+fOad68eVq3bl2GKXtaJUuWVNeuXTVy5EjVqFHjifTRU9OnT1dQUJA2bNhg2xo0I+XKlVO3bt00ZswYlStXLtv37NKlixo1aqTJkydr9erVtjUlHnE4HGrUqJEmTJigTp06Zes+aRfMkh6OXEm71zkAADDH19dXAwcO1MCBAxUXF6dTp07p0qVLio+P1927d1WgQAEFBwerXLlyatSokdfWfKhZs6a++uorxcXFae/evbp8+bLu3r2rQoUKqWrVqmrSpIkKFy7slXsBcI/D+aT+okOeFRYWpvfee892bNq0aQoLCzPToSfsypUrOnXqlKKjo3Xnzh09ePBARYsWVXBwsF566SVVr17ddBfdlpqaqtOnT+v8+fP6+eeflZiYqJSUFBUvXlwlS5ZUaGioqlSp4vX7JiYmat++fTp79qxu376tokWLKiQkRE2aNNFzzz3n9fsBAIDc4fpc+Cw9EwLIGUZOADlUqVIlVapUyXQ3vCJfvnyqXbu2ateu/UTvGxgYqNatW7PQFAAAAPCMYs0JAAAAAABgFOEEAAAAAAAwinACAAAAAAAYRTgBAAAAAACMIpwAAAAAAABGsVsHcoXr1qIAAADI+3gGBJBdhBPINfxyAgAAAAC4g2kdAAAAAADAKMIJAAAAAABgFNM6kGPNmzc33QUAAAA8hXhOBOAuh9PpdJruBAAAAAAAeHYxrQMAAAAAABhFOAEAAAAAAIwinAAAAAAAAEYRTgAAAAAAAKMIJwAAAAAAgFGEEwAAAAAAwCjCCQAAAAAAYBThBAAAAAAAMIpwAgAAAAAAGEU4AQAAAAAAjCKcAAAAAAAARhFOAAAAAAAAowgnAAAAAACAUYQTAAAAAADAKMIJAAAAAABgFOEEAAAAAAAwinACAAAAAAAYRTgBAAAAAACMIpwAAAAAAABGEU4AAAAAAACjCCcAAAAAAIBRhBMAAAAAAMAowgkAAAAAAGAU4QQAAAAAADCKcAIAAAAAABhFOAEAAAAAAIwinAAAAAAAAEYRTgAAAAAAAKMIJwAAAAAAgFGEEwAAAAAAwCjCCQAAAAAAYBThBAAAAAAAMIpwAgAAAAAAGEU4AQAAAAAAjCKcAAAAAAAARhFOAAAAAAAAowgnAAAAAACAUYQTAAAAAADAKMIJAAAAAABgFOEEAAAAAAAwinACAAAAAAAYRTgBAAAAAACMIpwAAAAAAABGEU4AAAAAAACjCCcAAAAAAIBRhBMAAAAAAMAowgkAAAAAAGAU4QQAAAAAADCKcAIAAAAAABhFOAEAAAAAAIwinAAAAAAAAEYRTgAAAAAAAKMIJwAAAAAAgFGEEwAAAAAAwCjCCQAAAAAAYBThBAAAAAAAMIpwAgAAAAAAGEU4AQAAAAAAjCKcAAAAAAAARhFOAAAAAAAAowgnAAAAAACAUYQTAAAAAADAKMIJAAAAAABgFOEEAAAAAAAwinACAAAAAAAYRTgBAAAAAACMIpwAAAAAAABGEU4AAAAAAACjCCcAAAAAAIBRhBMAAAAAAMAowgkAAAAAAGAU4QQAAAAAADCKcAIAAAAAABhFOAEAAAAAAIwinAAAAAAAAEYRTgAAAAAAAKMIJwAAAAAAgFGEEwAAAAAAwCjCCQAAAAAAYBThBAAAAAAAMIpwAgAAAAAAGEU4AQAAAAAAjCKcAAAAAAAARhFOAAAAAAAAowgnAAAAAACAUYQTAAAAAADAKMIJAAAAAABgFOEEAAAAAAAwinACAAAAAAAYRTgBAAAAAACMIpwAAAAAAABGEU4AAAAAAACjCCcAAAAAAIBRhBMAAAAAAMAowgkAAAAAAGAU4QQAAAAAADCKcAIAAAAAABhFOAEAAAAAAIwinAAAAAAAAEYRTgAAAAAAAKMIJwAAAAAAgFGEEwAAAAAAwCjCCQAAAAAAYBThBAAAAAAAMIpwAgAAAAAAGEU4AQAAAAAAjCKcAAAAAACnUBewAAAAc0lEQVQARhFOAAAAAAAAowgnAAAAAACAUYQTAAAAAADAKMIJAAAAAABgFOEEAAAAAAAwinACAAAAAAAYRTgBAAAAAACMIpwAAAAAAABGEU4AAAAAAACjCCcAAAAAAIBRhBMAAAAAAMAowgkAAAAAAGDU/wPqzQSRkGjzEgAAAABJRU5ErkJggg==;" parent="1" vertex="1">
          <mxGeometry x="-950" y="590" width="603" height="363.05" as="geometry" />
        </mxCell>
        <mxCell id="-I-AIGW35sh0JRv_y47P-4" style="edgeStyle=orthogonalEdgeStyle;rounded=0;orthogonalLoop=1;jettySize=auto;html=1;exitX=1;exitY=0.5;exitDx=0;exitDy=0;entryX=0;entryY=0.5;entryDx=0;entryDy=0;jumpStyle=gap;" parent="1" source="wawASpPagILhCwxSG9ba-229" target="wawASpPagILhCwxSG9ba-289" edge="1">
          <mxGeometry relative="1" as="geometry">
            <Array as="points">
              <mxPoint x="1000" y="420" />
              <mxPoint x="1000" y="1270" />
              <mxPoint x="-190" y="1270" />
              <mxPoint x="-190" y="1080" />
            </Array>
          </mxGeometry>
        </mxCell>
        <mxCell id="lt0cO0rgXMRksFK3DKkX-7" style="edgeStyle=orthogonalEdgeStyle;rounded=0;orthogonalLoop=1;jettySize=auto;html=1;exitX=1;exitY=0.5;exitDx=0;exitDy=0;entryX=0;entryY=0.5;entryDx=0;entryDy=0;jumpStyle=gap;" parent="1" source="wawASpPagILhCwxSG9ba-92" target="wawASpPagILhCwxSG9ba-224" edge="1">
          <mxGeometry relative="1" as="geometry">
            <Array as="points">
              <mxPoint x="550" y="460" />
              <mxPoint x="550" y="710" />
            </Array>
          </mxGeometry>
        </mxCell>
        <mxCell id="Gm78F68o149zD0WeLDm1-1" value="input_buffer" style="shape=table;startSize=30;container=1;collapsible=0;childLayout=tableLayout;" parent="1" vertex="1">
          <mxGeometry x="-50" y="330" width="200" height="270" as="geometry" />
        </mxCell>
        <mxCell id="Gm78F68o149zD0WeLDm1-2" value="" style="shape=tableRow;horizontal=0;startSize=0;swimlaneHead=0;swimlaneBody=0;strokeColor=inherit;top=0;left=0;bottom=0;right=0;collapsible=0;dropTarget=0;fillColor=none;points=[[0,0.5],[1,0.5]];portConstraint=eastwest;" parent="Gm78F68o149zD0WeLDm1-1" vertex="1">
          <mxGeometry y="30" width="200" height="40" as="geometry" />
        </mxCell>
        <mxCell id="Gm78F68o149zD0WeLDm1-3" value="clk" style="shape=partialRectangle;html=1;whiteSpace=wrap;connectable=0;strokeColor=inherit;overflow=hidden;fillColor=none;top=0;left=0;bottom=0;right=0;pointerEvents=1;" parent="Gm78F68o149zD0WeLDm1-2" vertex="1">
          <mxGeometry width="90" height="40" as="geometry">
            <mxRectangle width="90" height="40" as="alternateBounds" />
          </mxGeometry>
        </mxCell>
        <mxCell id="Gm78F68o149zD0WeLDm1-4" value="left_out" style="shape=partialRectangle;html=1;whiteSpace=wrap;connectable=0;strokeColor=inherit;overflow=hidden;fillColor=none;top=0;left=0;bottom=0;right=0;pointerEvents=1;" parent="Gm78F68o149zD0WeLDm1-2" vertex="1">
          <mxGeometry x="90" width="110" height="40" as="geometry">
            <mxRectangle width="110" height="40" as="alternateBounds" />
          </mxGeometry>
        </mxCell>
        <mxCell id="Gm78F68o149zD0WeLDm1-5" value="" style="shape=tableRow;horizontal=0;startSize=0;swimlaneHead=0;swimlaneBody=0;strokeColor=inherit;top=0;left=0;bottom=0;right=0;collapsible=0;dropTarget=0;fillColor=none;points=[[0,0.5],[1,0.5]];portConstraint=eastwest;" parent="Gm78F68o149zD0WeLDm1-1" vertex="1">
          <mxGeometry y="70" width="200" height="40" as="geometry" />
        </mxCell>
        <mxCell id="Gm78F68o149zD0WeLDm1-6" value="left_in" style="shape=partialRectangle;html=1;whiteSpace=wrap;connectable=0;strokeColor=inherit;overflow=hidden;fillColor=none;top=0;left=0;bottom=0;right=0;pointerEvents=1;" parent="Gm78F68o149zD0WeLDm1-5" vertex="1">
          <mxGeometry width="90" height="40" as="geometry">
            <mxRectangle width="90" height="40" as="alternateBounds" />
          </mxGeometry>
        </mxCell>
        <mxCell id="Gm78F68o149zD0WeLDm1-7" value="right_out" style="shape=partialRectangle;html=1;whiteSpace=wrap;connectable=0;strokeColor=inherit;overflow=hidden;fillColor=none;top=0;left=0;bottom=0;right=0;pointerEvents=1;" parent="Gm78F68o149zD0WeLDm1-5" vertex="1">
          <mxGeometry x="90" width="110" height="40" as="geometry">
            <mxRectangle width="110" height="40" as="alternateBounds" />
          </mxGeometry>
        </mxCell>
        <mxCell id="Gm78F68o149zD0WeLDm1-8" value="" style="shape=tableRow;horizontal=0;startSize=0;swimlaneHead=0;swimlaneBody=0;strokeColor=inherit;top=0;left=0;bottom=0;right=0;collapsible=0;dropTarget=0;fillColor=none;points=[[0,0.5],[1,0.5]];portConstraint=eastwest;" parent="Gm78F68o149zD0WeLDm1-1" vertex="1">
          <mxGeometry y="110" width="200" height="40" as="geometry" />
        </mxCell>
        <mxCell id="Gm78F68o149zD0WeLDm1-9" value="right_in" style="shape=partialRectangle;html=1;whiteSpace=wrap;connectable=0;strokeColor=inherit;overflow=hidden;fillColor=none;top=0;left=0;bottom=0;right=0;pointerEvents=1;" parent="Gm78F68o149zD0WeLDm1-8" vertex="1">
          <mxGeometry width="90" height="40" as="geometry">
            <mxRectangle width="90" height="40" as="alternateBounds" />
          </mxGeometry>
        </mxCell>
        <mxCell id="Gm78F68o149zD0WeLDm1-10" value="backspace_out" style="shape=partialRectangle;html=1;whiteSpace=wrap;connectable=0;strokeColor=inherit;overflow=hidden;fillColor=none;top=0;left=0;bottom=0;right=0;pointerEvents=1;" parent="Gm78F68o149zD0WeLDm1-8" vertex="1">
          <mxGeometry x="90" width="110" height="40" as="geometry">
            <mxRectangle width="110" height="40" as="alternateBounds" />
          </mxGeometry>
        </mxCell>
        <mxCell id="Gm78F68o149zD0WeLDm1-11" style="shape=tableRow;horizontal=0;startSize=0;swimlaneHead=0;swimlaneBody=0;strokeColor=inherit;top=0;left=0;bottom=0;right=0;collapsible=0;dropTarget=0;fillColor=none;points=[[0,0.5],[1,0.5]];portConstraint=eastwest;" parent="Gm78F68o149zD0WeLDm1-1" vertex="1">
          <mxGeometry y="150" width="200" height="40" as="geometry" />
        </mxCell>
        <mxCell id="Gm78F68o149zD0WeLDm1-12" value="backspace_in" style="shape=partialRectangle;html=1;whiteSpace=wrap;connectable=0;strokeColor=inherit;overflow=hidden;fillColor=none;top=0;left=0;bottom=0;right=0;pointerEvents=1;" parent="Gm78F68o149zD0WeLDm1-11" vertex="1">
          <mxGeometry width="90" height="40" as="geometry">
            <mxRectangle width="90" height="40" as="alternateBounds" />
          </mxGeometry>
        </mxCell>
        <mxCell id="Gm78F68o149zD0WeLDm1-13" value="[6:0] symbol_out" style="shape=partialRectangle;html=1;whiteSpace=wrap;connectable=0;strokeColor=inherit;overflow=hidden;fillColor=none;top=0;left=0;bottom=0;right=0;pointerEvents=1;" parent="Gm78F68o149zD0WeLDm1-11" vertex="1">
          <mxGeometry x="90" width="110" height="40" as="geometry">
            <mxRectangle width="110" height="40" as="alternateBounds" />
          </mxGeometry>
        </mxCell>
        <mxCell id="Gm78F68o149zD0WeLDm1-14" style="shape=tableRow;horizontal=0;startSize=0;swimlaneHead=0;swimlaneBody=0;strokeColor=inherit;top=0;left=0;bottom=0;right=0;collapsible=0;dropTarget=0;fillColor=none;points=[[0,0.5],[1,0.5]];portConstraint=eastwest;" parent="Gm78F68o149zD0WeLDm1-1" vertex="1">
          <mxGeometry y="190" width="200" height="40" as="geometry" />
        </mxCell>
        <mxCell id="Gm78F68o149zD0WeLDm1-15" value="[6:0] symbol_in" style="shape=partialRectangle;html=1;whiteSpace=wrap;connectable=0;strokeColor=inherit;overflow=hidden;fillColor=none;top=0;left=0;bottom=0;right=0;pointerEvents=1;" parent="Gm78F68o149zD0WeLDm1-14" vertex="1">
          <mxGeometry width="90" height="40" as="geometry">
            <mxRectangle width="90" height="40" as="alternateBounds" />
          </mxGeometry>
        </mxCell>
        <mxCell id="Gm78F68o149zD0WeLDm1-16" value="" style="shape=partialRectangle;html=1;whiteSpace=wrap;connectable=0;strokeColor=inherit;overflow=hidden;fillColor=none;top=0;left=0;bottom=0;right=0;pointerEvents=1;" parent="Gm78F68o149zD0WeLDm1-14" vertex="1">
          <mxGeometry x="90" width="110" height="40" as="geometry">
            <mxRectangle width="110" height="40" as="alternateBounds" />
          </mxGeometry>
        </mxCell>
        <mxCell id="Gm78F68o149zD0WeLDm1-17" style="shape=tableRow;horizontal=0;startSize=0;swimlaneHead=0;swimlaneBody=0;strokeColor=inherit;top=0;left=0;bottom=0;right=0;collapsible=0;dropTarget=0;fillColor=none;points=[[0,0.5],[1,0.5]];portConstraint=eastwest;" parent="Gm78F68o149zD0WeLDm1-1" vertex="1">
          <mxGeometry y="230" width="200" height="40" as="geometry" />
        </mxCell>
        <mxCell id="Gm78F68o149zD0WeLDm1-18" value="out_ready" style="shape=partialRectangle;html=1;whiteSpace=wrap;connectable=0;strokeColor=inherit;overflow=hidden;fillColor=none;top=0;left=0;bottom=0;right=0;pointerEvents=1;" parent="Gm78F68o149zD0WeLDm1-17" vertex="1">
          <mxGeometry width="90" height="40" as="geometry">
            <mxRectangle width="90" height="40" as="alternateBounds" />
          </mxGeometry>
        </mxCell>
        <mxCell id="Gm78F68o149zD0WeLDm1-19" style="shape=partialRectangle;html=1;whiteSpace=wrap;connectable=0;strokeColor=inherit;overflow=hidden;fillColor=none;top=0;left=0;bottom=0;right=0;pointerEvents=1;" parent="Gm78F68o149zD0WeLDm1-17" vertex="1">
          <mxGeometry x="90" width="110" height="40" as="geometry">
            <mxRectangle width="110" height="40" as="alternateBounds" />
          </mxGeometry>
        </mxCell>
        <mxCell id="Gm78F68o149zD0WeLDm1-23" style="edgeStyle=orthogonalEdgeStyle;rounded=0;orthogonalLoop=1;jettySize=auto;html=1;exitX=1;exitY=0.5;exitDx=0;exitDy=0;entryX=0;entryY=0.5;entryDx=0;entryDy=0;jumpStyle=gap;" parent="1" source="wawASpPagILhCwxSG9ba-61" target="Gm78F68o149zD0WeLDm1-5" edge="1">
          <mxGeometry relative="1" as="geometry" />
        </mxCell>
        <mxCell id="Gm78F68o149zD0WeLDm1-24" style="edgeStyle=orthogonalEdgeStyle;rounded=0;orthogonalLoop=1;jettySize=auto;html=1;exitX=1;exitY=0.5;exitDx=0;exitDy=0;entryX=0;entryY=0.5;entryDx=0;entryDy=0;jumpStyle=gap;" parent="1" source="wawASpPagILhCwxSG9ba-64" target="Gm78F68o149zD0WeLDm1-8" edge="1">
          <mxGeometry relative="1" as="geometry" />
        </mxCell>
        <mxCell id="Gm78F68o149zD0WeLDm1-25" style="edgeStyle=orthogonalEdgeStyle;rounded=0;orthogonalLoop=1;jettySize=auto;html=1;exitX=1;exitY=0.5;exitDx=0;exitDy=0;entryX=0;entryY=0.5;entryDx=0;entryDy=0;jumpStyle=gap;" parent="1" source="wawASpPagILhCwxSG9ba-67" target="Gm78F68o149zD0WeLDm1-11" edge="1">
          <mxGeometry relative="1" as="geometry" />
        </mxCell>
        <mxCell id="Gm78F68o149zD0WeLDm1-26" style="edgeStyle=orthogonalEdgeStyle;rounded=0;orthogonalLoop=1;jettySize=auto;html=1;exitX=1;exitY=0.5;exitDx=0;exitDy=0;entryX=0;entryY=0.5;entryDx=0;entryDy=0;jumpStyle=gap;" parent="1" source="wawASpPagILhCwxSG9ba-74" target="Gm78F68o149zD0WeLDm1-14" edge="1">
          <mxGeometry relative="1" as="geometry" />
        </mxCell>
        <mxCell id="Gm78F68o149zD0WeLDm1-27" style="edgeStyle=orthogonalEdgeStyle;rounded=0;orthogonalLoop=1;jettySize=auto;html=1;exitX=1;exitY=0.5;exitDx=0;exitDy=0;entryX=0;entryY=0.5;entryDx=0;entryDy=0;jumpStyle=gap;" parent="1" source="Gm78F68o149zD0WeLDm1-2" target="wawASpPagILhCwxSG9ba-86" edge="1">
          <mxGeometry relative="1" as="geometry" />
        </mxCell>
        <mxCell id="Gm78F68o149zD0WeLDm1-28" style="edgeStyle=orthogonalEdgeStyle;rounded=0;orthogonalLoop=1;jettySize=auto;html=1;exitX=1;exitY=0.5;exitDx=0;exitDy=0;entryX=0;entryY=0.5;entryDx=0;entryDy=0;jumpStyle=gap;" parent="1" source="Gm78F68o149zD0WeLDm1-5" target="wawASpPagILhCwxSG9ba-89" edge="1">
          <mxGeometry relative="1" as="geometry" />
        </mxCell>
        <mxCell id="Gm78F68o149zD0WeLDm1-29" style="edgeStyle=orthogonalEdgeStyle;rounded=0;orthogonalLoop=1;jettySize=auto;html=1;exitX=1;exitY=0.5;exitDx=0;exitDy=0;entryX=0;entryY=0.5;entryDx=0;entryDy=0;jumpStyle=gap;" parent="1" source="Gm78F68o149zD0WeLDm1-8" target="wawASpPagILhCwxSG9ba-92" edge="1">
          <mxGeometry relative="1" as="geometry" />
        </mxCell>
        <mxCell id="Gm78F68o149zD0WeLDm1-30" style="edgeStyle=orthogonalEdgeStyle;rounded=0;orthogonalLoop=1;jettySize=auto;html=1;exitX=1;exitY=0.5;exitDx=0;exitDy=0;entryX=0;entryY=0.5;entryDx=0;entryDy=0;jumpStyle=gap;" parent="1" source="Gm78F68o149zD0WeLDm1-11" target="wawASpPagILhCwxSG9ba-95" edge="1">
          <mxGeometry relative="1" as="geometry" />
        </mxCell>
        <mxCell id="Gm78F68o149zD0WeLDm1-32" style="edgeStyle=orthogonalEdgeStyle;rounded=0;orthogonalLoop=1;jettySize=auto;html=1;exitX=1;exitY=0.5;exitDx=0;exitDy=0;entryX=0;entryY=0.5;entryDx=0;entryDy=0;jumpStyle=gap;" parent="1" source="wawASpPagILhCwxSG9ba-95" target="Gm78F68o149zD0WeLDm1-17" edge="1">
          <mxGeometry relative="1" as="geometry">
            <Array as="points">
              <mxPoint x="520" y="500" />
              <mxPoint x="520" y="710" />
              <mxPoint x="-80" y="710" />
              <mxPoint x="-80" y="580" />
            </Array>
          </mxGeometry>
        </mxCell>
      </root>
    </mxGraphModel>
  </diagram>
</mxfile>
